sean_hairline-nop.ufo
<glyph name="exclam" format="1">
  <advance width="290"/>
  <unicode hex="0021"/>
  <outline>
    <component base="period"/>
    <contour>
      <point x="134" y="229" type="line"/>
      <point x="156" y="229" type="line"/>
      <point x="156" y="722" type="line"/>
      <point x="134" y="722" type="line"/>
    </contour>
  </outline>
</glyph>
<glyph name="quotedbl" format="1">
  <advance width="436"/>
  <unicode hex="0022"/>
  <outline>
    <contour>
      <point x="157" y="658" type="line"/>
      <point x="157" y="846" type="line"/>
      <point x="135" y="846" type="line"/>
      <point x="135" y="658" type="line"/>
    </contour>
    <contour>
      <point x="343" y="658" type="line"/>
      <point x="343" y="846" type="line"/>
      <point x="322" y="846" type="line"/>
      <point x="322" y="658" type="line"/>
    </contour>
  </outline>
</glyph>
<glyph name="numbersign" format="1">
  <advance width="595"/>
  <unicode hex="0023"/>
  <outline>
    <contour>
      <point x="26" y="260" type="line"/>
      <point x="490" y="260" type="line"/>
      <point x="494" y="279" type="line"/>
      <point x="31" y="279" type="line"/>
    </contour>
    <contour>
      <point x="108" y="493" type="line"/>
      <point x="103" y="474" type="line"/>
      <point x="567" y="474" type="line"/>
      <point x="571" y="493" type="line"/>
    </contour>
    <contour>
      <point x="293" y="38" type="line"/>
      <point x="314" y="38" type="line"/>
      <point x="531" y="721" type="line"/>
      <point x="510" y="721" type="line"/>
    </contour>
    <contour>
      <point x="307" y="706" type="line"/>
      <point x="286" y="706" type="line"/>
      <point x="74" y="30" type="line"/>
      <point x="94" y="30" type="line"/>
    </contour>
  </outline>
</glyph>
<glyph name="percent" format="1">
  <advance width="810"/>
  <unicode hex="0025"/>
  <outline>
    <contour>
      <point x="32" y="671" type="curve"/>
      <point x="30" y="565"/>
      <point x="90" y="485"/>
      <point x="191" y="486" type="curve" smooth="yes"/>
      <point x="292" y="486"/>
      <point x="347" y="569"/>
      <point x="347" y="677" type="curve" smooth="yes"/>
      <point x="347" y="782"/>
      <point x="292" y="862"/>
      <point x="193" y="862" type="curve" smooth="yes"/>
      <point x="90" y="863"/>
      <point x="30" y="780"/>
    </contour>
    <contour>
      <point x="53" y="673" type="curve" smooth="yes"/>
      <point x="53" y="768"/>
      <point x="101" y="841"/>
      <point x="190" y="841" type="curve" smooth="yes"/>
      <point x="278" y="842"/>
      <point x="327" y="770"/>
      <point x="326" y="676" type="curve" smooth="yes"/>
      <point x="326" y="582"/>
      <point x="281" y="507"/>
      <point x="194" y="507" type="curve" smooth="yes"/>
      <point x="105" y="507"/>
      <point x="53" y="579"/>
    </contour>
    <contour>
      <point x="463" y="173" type="curve"/>
      <point x="461" y="67"/>
      <point x="521" y="-13"/>
      <point x="622" y="-12" type="curve" smooth="yes"/>
      <point x="723" y="-12"/>
      <point x="778" y="71"/>
      <point x="778" y="179" type="curve" smooth="yes"/>
      <point x="778" y="284"/>
      <point x="723" y="364"/>
      <point x="624" y="364" type="curve" smooth="yes"/>
      <point x="521" y="365"/>
      <point x="461" y="282"/>
    </contour>
    <contour>
      <point x="484" y="175" type="curve" smooth="yes"/>
      <point x="484" y="270"/>
      <point x="532" y="343"/>
      <point x="621" y="343" type="curve" smooth="yes"/>
      <point x="709" y="344"/>
      <point x="758" y="272"/>
      <point x="757" y="178" type="curve" smooth="yes"/>
      <point x="757" y="84"/>
      <point x="712" y="9"/>
      <point x="625" y="9" type="curve" smooth="yes"/>
      <point x="536" y="9"/>
      <point x="484" y="81"/>
    </contour>
    <contour>
      <point x="202" y="0" type="line"/>
      <point x="628" y="852" type="line"/>
      <point x="606" y="852" type="line"/>
      <point x="180" y="0" type="line"/>
    </contour>
  </outline>
</glyph>
<glyph name="ampersand" format="1">
  <advance width="644"/>
  <unicode hex="0026"/>
  <outline>
    <contour>
      <point x="145" y="593" type="curve" smooth="yes"/>
      <point x="145" y="668"/>
      <point x="204" y="713"/>
      <point x="283" y="713" type="curve" smooth="yes"/>
      <point x="366" y="713"/>
      <point x="430" y="669"/>
      <point x="430" y="591" type="curve" smooth="yes"/>
      <point x="430" y="485"/>
      <point x="330" y="452"/>
      <point x="236" y="398" type="curve" smooth="yes"/>
      <point x="137" y="341"/>
      <point x="37" y="301"/>
      <point x="37" y="190" type="curve" smooth="yes"/>
      <point x="37" y="67"/>
      <point x="131" y="-7"/>
      <point x="259" y="-7" type="curve" smooth="yes"/>
      <point x="440" y="-7"/>
      <point x="533" y="136"/>
      <point x="589" y="318" type="curve"/>
      <point x="569" y="326" type="line"/>
      <point x="515" y="154"/>
      <point x="433" y="13"/>
      <point x="262" y="13" type="curve" smooth="yes"/>
      <point x="145" y="13"/>
      <point x="57" y="78"/>
      <point x="57" y="189" type="curve" smooth="yes"/>
      <point x="57" y="293"/>
      <point x="153" y="328"/>
      <point x="245" y="382" type="curve" smooth="yes"/>
      <point x="345" y="441"/>
      <point x="450" y="477"/>
      <point x="451" y="591" type="curve" smooth="yes"/>
      <point x="451" y="681"/>
      <point x="380" y="734"/>
      <point x="285" y="734" type="curve" smooth="yes"/>
      <point x="193" y="734"/>
      <point x="125" y="682"/>
      <point x="125" y="595" type="curve" smooth="yes"/>
      <point x="125" y="492"/>
      <point x="194" y="434"/>
      <point x="265" y="359" type="curve" smooth="yes"/>
      <point x="595" y="0" type="line"/>
      <point x="622" y="0" type="line"/>
      <point x="278" y="371" type="line" smooth="yes"/>
      <point x="214" y="443"/>
      <point x="145" y="496"/>
    </contour>
  </outline>
</glyph>
<glyph name="parenleft" format="1">
  <advance width="436"/>
  <unicode hex="0028"/>
  <outline>
    <contour>
      <point x="110" y="326" type="curve" smooth="yes"/>
      <point x="110" y="83"/>
      <point x="179" y="-81"/>
      <point x="352" y="-252" type="curve"/>
      <point x="367" y="-236" type="line"/>
      <point x="199" y="-70"/>
      <point x="132" y="89"/>
      <point x="132" y="326" type="curve" smooth="yes"/>
      <point x="132" y="564"/>
      <point x="199" y="725"/>
      <point x="371" y="889" type="curve"/>
      <point x="353" y="902" type="line"/>
      <point x="180" y="732"/>
      <point x="110" y="569"/>
    </contour>
  </outline>
</glyph>
<glyph name="parenright" format="1">
  <advance width="509"/>
  <unicode hex="0029"/>
  <outline>
    <contour>
      <point x="152" y="-266" type="line"/>
      <point x="327" y="-88"/>
      <point x="408" y="77"/>
      <point x="408" y="327" type="curve" smooth="yes"/>
      <point x="408" y="572"/>
      <point x="335" y="734"/>
      <point x="156" y="902" type="curve"/>
      <point x="141" y="887" type="line"/>
      <point x="315" y="723"/>
      <point x="387" y="565"/>
      <point x="387" y="326" type="curve" smooth="yes"/>
      <point x="387" y="81"/>
      <point x="306" y="-78"/>
      <point x="135" y="-253" type="curve"/>
    </contour>
  </outline>
</glyph>
<glyph name="asterisk" format="1">
  <advance width="338"/>
  <unicode hex="002A"/>
  <outline>
    <contour>
      <point x="192" y="667" type="line"/>
      <point x="170" y="667" type="line"/>
      <point x="170" y="513" type="line"/>
      <point x="192" y="513" type="line"/>
    </contour>
    <contour>
      <point x="44" y="578" type="line"/>
      <point x="38" y="557" type="line"/>
      <point x="185" y="509" type="line"/>
      <point x="192" y="530" type="line"/>
    </contour>
    <contour>
      <point x="78" y="414" type="line"/>
      <point x="95" y="401" type="line"/>
      <point x="194" y="520" type="line"/>
      <point x="177" y="534" type="line"/>
    </contour>
    <contour>
      <point x="263" y="395" type="line"/>
      <point x="280" y="408" type="line"/>
      <point x="189" y="534" type="line"/>
      <point x="171" y="521" type="line"/>
    </contour>
    <contour>
      <point x="330" y="563" type="line"/>
      <point x="322" y="583" type="line"/>
      <point x="176" y="530" type="line"/>
      <point x="184" y="509" type="line"/>
    </contour>
  </outline>
</glyph>
<glyph name="plus" format="1">
  <advance width="691"/>
  <unicode hex="002B"/>
  <outline>
    <contour>
      <point x="628" y="311" type="line"/>
      <point x="628" y="333" type="line"/>
      <point x="47" y="333" type="line"/>
      <point x="47" y="311" type="line"/>
    </contour>
    <contour>
      <point x="354" y="588" type="line"/>
      <point x="332" y="588" type="line"/>
      <point x="332" y="18" type="line"/>
      <point x="354" y="18" type="line"/>
    </contour>
  </outline>
</glyph>
<glyph name="comma" format="1">
  <advance width="363"/>
  <unicode hex="002C"/>
  <outline>
    <contour>
      <point x="156" y="-99" type="line"/>
      <point x="264" y="82" type="line"/>
      <point x="234" y="82" type="line"/>
      <point x="130" y="-99" type="line"/>
    </contour>
  </outline>
</glyph>
<glyph name="period" format="1">
  <advance width="290"/>
  <unicode hex="002E"/>
  <outline>
    <contour>
      <point x="121" y="22" type="curve" smooth="yes"/>
      <point x="121" y="8"/>
      <point x="132" y="-3"/>
      <point x="146" y="-3" type="curve" smooth="yes"/>
      <point x="160" y="-3"/>
      <point x="172" y="9"/>
      <point x="172" y="22" type="curve" smooth="yes"/>
      <point x="172" y="37"/>
      <point x="161" y="48"/>
      <point x="146" y="48" type="curve" smooth="yes"/>
      <point x="133" y="48"/>
      <point x="121" y="36"/>
    </contour>
  </outline>
</glyph>
<glyph name="slash" format="1">
  <advance width="509"/>
  <unicode hex="002F"/>
  <outline>
    <contour>
      <point x="66" y="-68" type="line"/>
      <point x="492" y="844" type="line"/>
      <point x="470" y="844" type="line"/>
      <point x="44" y="-68" type="line"/>
    </contour>
  </outline>
</glyph>
<glyph name="zero" format="1">
  <advance width="750"/>
  <unicode hex="0030"/>
  <outline>
    <contour>
      <point x="133" y="356" type="curve" smooth="yes"/>
      <point x="133" y="549"/>
      <point x="215" y="713"/>
      <point x="389" y="713" type="curve" smooth="yes"/>
      <point x="565" y="715"/>
      <point x="653" y="553"/>
      <point x="650" y="359" type="curve"/>
      <point x="650" y="170"/>
      <point x="567" y="11"/>
      <point x="395" y="11" type="curve" smooth="yes"/>
      <point x="222" y="11"/>
      <point x="133" y="167"/>
    </contour>
    <contour>
      <point x="112" y="354" type="curve"/>
      <point x="108" y="153"/>
      <point x="207" y="-11"/>
      <point x="392" y="-10" type="curve" smooth="yes"/>
      <point x="577" y="-10"/>
      <point x="671" y="158"/>
      <point x="671" y="360" type="curve" smooth="yes"/>
      <point x="671" y="564"/>
      <point x="578" y="734"/>
      <point x="392" y="734" type="curve" smooth="yes"/>
      <point x="203" y="735"/>
      <point x="108" y="562"/>
    </contour>
  </outline>
</glyph>
<glyph name="one" format="1">
  <advance width="428"/>
  <unicode hex="0031"/>
  <outline>
    <contour>
      <point x="109" y="541" type="line"/>
      <point x="303" y="695" type="line"/>
      <point x="303" y="0" type="line"/>
      <point x="325" y="0" type="line"/>
      <point x="325" y="722" type="line"/>
      <point x="303" y="722" type="line"/>
      <point x="95" y="558" type="line"/>
    </contour>
  </outline>
</glyph>
<glyph name="two" format="1">
  <advance width="545"/>
  <unicode hex="0032"/>
  <outline>
    <contour>
      <point x="44" y="21" type="line"/>
      <point x="44" y="0" type="line"/>
      <point x="510" y="0" type="line"/>
      <point x="510" y="21" type="line"/>
    </contour>
    <contour>
      <point x="58" y="9" type="line"/>
      <point x="153" y="84"/>
      <point x="216" y="140"/>
      <point x="306" y="220" type="curve" smooth="yes"/>
      <point x="410" y="312"/>
      <point x="480" y="391"/>
      <point x="480" y="529" type="curve" smooth="yes"/>
      <point x="480" y="651"/>
      <point x="412" y="733"/>
      <point x="294" y="733" type="curve" smooth="yes"/>
      <point x="194" y="733"/>
      <point x="136" y="678"/>
      <point x="86" y="590" type="curve"/>
      <point x="103" y="578" type="line"/>
      <point x="148" y="660"/>
      <point x="201" y="712"/>
      <point x="293" y="712" type="curve" smooth="yes"/>
      <point x="400" y="712"/>
      <point x="461" y="637"/>
      <point x="461" y="526" type="curve" smooth="yes"/>
      <point x="461" y="395"/>
      <point x="391" y="321"/>
      <point x="292" y="233" type="curve" smooth="yes"/>
      <point x="201" y="153"/>
      <point x="138" y="98"/>
      <point x="44" y="21" type="curve"/>
    </contour>
  </outline>
</glyph>
<glyph name="four" format="1">
  <advance width="690"/>
  <unicode hex="0034"/>
  <outline>
    <contour>
      <point x="82" y="274" type="line"/>
      <point x="468" y="708" type="line"/>
      <point x="453" y="722" type="line"/>
      <point x="66" y="287" type="line"/>
    </contour>
    <contour>
      <point x="661" y="265" type="line"/>
      <point x="661" y="287" type="line"/>
      <point x="66" y="287" type="line"/>
      <point x="66" y="265" type="line"/>
    </contour>
    <contour>
      <point x="453" y="722" type="line"/>
      <point x="453" y="0" type="line"/>
      <point x="475" y="0" type="line"/>
      <point x="475" y="722" type="line"/>
    </contour>
  </outline>
</glyph>
<glyph name="seven" format="1">
  <advance width="581"/>
  <unicode hex="0037"/>
  <outline>
    <contour>
      <point x="538" y="700" type="line"/>
      <point x="538" y="722" type="line"/>
      <point x="63" y="722" type="line"/>
      <point x="63" y="700" type="line"/>
    </contour>
    <contour>
      <point x="513" y="700" type="line"/>
      <point x="105" y="0" type="line"/>
      <point x="128" y="0" type="line"/>
      <point x="538" y="700" type="line"/>
    </contour>
  </outline>
</glyph>
<glyph name="eight" format="1">
  <advance width="519"/>
  <unicode hex="0038"/>
  <outline>
    <contour>
      <point x="276" y="383" type="curve" smooth="yes"/>
      <point x="183" y="431"/>
      <point x="103" y="471"/>
      <point x="103" y="572" type="curve" smooth="yes"/>
      <point x="103" y="661"/>
      <point x="168" y="710"/>
      <point x="260" y="710" type="curve" smooth="yes"/>
      <point x="359" y="710"/>
      <point x="430" y="660"/>
      <point x="430" y="566" type="curve" smooth="yes"/>
      <point x="430" y="468"/>
      <point x="352" y="429"/>
      <point x="261" y="384" type="curve" smooth="yes"/>
      <point x="156" y="330"/>
      <point x="64" y="286"/>
      <point x="64" y="171" type="curve" smooth="yes"/>
      <point x="64" y="56"/>
      <point x="145" y="-10"/>
      <point x="264" y="-10" type="curve" smooth="yes"/>
      <point x="386" y="-10"/>
      <point x="469" y="58"/>
      <point x="469" y="176" type="curve" smooth="yes"/>
      <point x="468" y="288"/>
      <point x="379" y="331"/>
    </contour>
    <contour>
      <point x="450" y="174" type="curve" smooth="yes"/>
      <point x="450" y="70"/>
      <point x="376" y="11"/>
      <point x="268" y="11" type="curve" smooth="yes"/>
      <point x="160" y="11"/>
      <point x="84" y="70"/>
      <point x="86" y="173" type="curve" smooth="yes"/>
      <point x="86" y="283"/>
      <point x="177" y="321"/>
      <point x="278" y="372" type="curve" smooth="yes"/>
      <point x="372" y="421"/>
      <point x="451" y="464"/>
      <point x="451" y="567" type="curve" smooth="yes"/>
      <point x="451" y="673"/>
      <point x="373" y="731"/>
      <point x="262" y="731" type="curve" smooth="yes"/>
      <point x="156" y="731"/>
      <point x="83" y="673"/>
      <point x="83" y="571" type="curve" smooth="yes"/>
      <point x="83" y="465"/>
      <point x="163" y="419"/>
      <point x="261" y="371" type="curve" smooth="yes"/>
      <point x="361" y="321"/>
      <point x="450" y="282"/>
    </contour>
  </outline>
</glyph>
<glyph name="nine" format="1">
  <advance width="581"/>
  <unicode hex="0039"/>
  <outline>
    <contour>
      <point x="507" y="482" type="curve" smooth="yes"/>
      <point x="507" y="226"/>
      <point x="337" y="85"/>
      <point x="83" y="11" type="curve"/>
      <point x="90" y="-10" type="line"/>
      <point x="354" y="66"/>
      <point x="526" y="216"/>
      <point x="526" y="483" type="curve" smooth="yes"/>
      <point x="526" y="633"/>
      <point x="443" y="736"/>
      <point x="299" y="734" type="curve" smooth="yes"/>
      <point x="171" y="734"/>
      <point x="92" y="649"/>
      <point x="92" y="519" type="curve" smooth="yes"/>
      <point x="92" y="388"/>
      <point x="170" y="301"/>
      <point x="299" y="301" type="curve" smooth="yes"/>
      <point x="415" y="301"/>
      <point x="478" y="375"/>
      <point x="524" y="484" type="curve"/>
      <point x="509" y="494" type="line"/>
      <point x="466" y="392"/>
      <point x="409" y="322"/>
      <point x="301" y="322" type="curve" smooth="yes"/>
      <point x="184" y="322"/>
      <point x="114" y="401"/>
      <point x="114" y="520" type="curve" smooth="yes"/>
      <point x="114" y="635"/>
      <point x="183" y="711"/>
      <point x="296" y="711" type="curve" smooth="yes"/>
      <point x="429" y="711"/>
      <point x="507" y="619"/>
    </contour>
  </outline>
</glyph>
<glyph name="semicolon" format="1">
  <advance width="400"/>
  <unicode hex="003B"/>
  <outline>
    <component base="nuktadeva" xOffset="704" yOffset="502"/>
    <contour>
      <point x="156" y="-99" type="line"/>
      <point x="264" y="82" type="line"/>
      <point x="234" y="82" type="line"/>
      <point x="130" y="-99" type="line"/>
    </contour>
  </outline>
</glyph>
<glyph name="less" format="1">
  <advance width="691"/>
  <unicode hex="003C"/>
  <outline>
    <contour>
      <point x="38" y="289" type="line"/>
      <point x="647" y="559" type="line"/>
      <point x="647" y="581" type="line"/>
      <point x="38" y="311" type="line"/>
    </contour>
    <contour>
      <point x="38" y="311" type="line"/>
      <point x="38" y="289" type="line"/>
      <point x="657" y="25" type="line"/>
      <point x="657" y="47" type="line"/>
    </contour>
  </outline>
</glyph>
<glyph name="equal" format="1">
  <advance width="727"/>
  <unicode hex="003D"/>
  <outline>
    <contour>
      <point x="667" y="207" type="line"/>
      <point x="667" y="228" type="line"/>
      <point x="38" y="228" type="line"/>
      <point x="38" y="207" type="line"/>
    </contour>
    <contour>
      <point x="667" y="429" type="line"/>
      <point x="667" y="450" type="line"/>
      <point x="38" y="450" type="line"/>
      <point x="38" y="429" type="line"/>
    </contour>
  </outline>
</glyph>
<glyph name="greater" format="1">
  <advance width="691"/>
  <unicode hex="003E"/>
  <outline>
    <contour>
      <point x="656" y="317" type="line"/>
      <point x="47" y="47" type="line"/>
      <point x="47" y="25" type="line"/>
      <point x="656" y="295" type="line"/>
    </contour>
    <contour>
      <point x="656" y="295" type="line"/>
      <point x="656" y="317" type="line"/>
      <point x="37" y="581" type="line"/>
      <point x="37" y="559" type="line"/>
    </contour>
  </outline>
</glyph>
<glyph name="question" format="1">
  <advance width="394"/>
  <unicode hex="003F"/>
  <outline>
    <component base="period" xOffset="-13" yOffset="-1"/>
    <contour>
      <point x="122" y="323" type="line"/>
      <point x="122" y="221" type="line"/>
      <point x="144" y="221" type="line"/>
      <point x="144" y="323" type="line"/>
    </contour>
    <contour>
      <point x="63" y="673" type="line"/>
      <point x="90" y="683"/>
      <point x="111" y="689"/>
      <point x="140" y="689" type="curve" smooth="yes"/>
      <point x="244" y="689"/>
      <point x="316" y="621"/>
      <point x="316" y="518" type="curve" smooth="yes"/>
      <point x="316" y="406"/>
      <point x="236" y="333"/>
      <point x="122" y="333" type="curve"/>
      <point x="122" y="312" type="line"/>
      <point x="248" y="312"/>
      <point x="334" y="395"/>
      <point x="334" y="520" type="curve" smooth="yes"/>
      <point x="334" y="634"/>
      <point x="256" y="709"/>
      <point x="142" y="709" type="curve" smooth="yes"/>
      <point x="110" y="709"/>
      <point x="86" y="703"/>
      <point x="56" y="693" type="curve"/>
    </contour>
  </outline>
</glyph>
<glyph name="at" format="1">
  <advance width="836"/>
  <unicode hex="0040"/>
  <outline>
    <contour>
      <point x="556" y="191" type="line"/>
      <point x="541" y="111"/>
      <point x="503" y="54"/>
      <point x="426" y="54" type="curve" smooth="yes"/>
      <point x="336" y="54"/>
      <point x="290" y="123"/>
      <point x="290" y="219" type="curve" smooth="yes"/>
      <point x="290" y="308"/>
      <point x="338" y="369"/>
      <point x="424" y="369" type="curve" smooth="yes"/>
      <point x="507" y="369"/>
      <point x="553" y="310"/>
      <point x="553" y="223" type="curve" smooth="yes"/>
      <point x="553" y="128"/>
      <point x="566" y="46"/>
      <point x="648" y="46" type="curve" smooth="yes"/>
      <point x="734" y="46"/>
      <point x="765" y="122"/>
      <point x="765" y="219" type="curve" smooth="yes"/>
      <point x="765" y="423"/>
      <point x="645" y="556"/>
      <point x="444" y="556" type="curve" smooth="yes"/>
      <point x="228" y="556"/>
      <point x="92" y="424"/>
      <point x="92" y="210" type="curve" smooth="yes"/>
      <point x="92" y="-5"/>
      <point x="226" y="-140"/>
      <point x="441" y="-140" type="curve" smooth="yes"/>
      <point x="549" y="-140"/>
      <point x="622" y="-107"/>
      <point x="703" y="-36" type="curve"/>
      <point x="689" y="-20" type="line"/>
      <point x="613" y="-88"/>
      <point x="546" y="-121"/>
      <point x="445" y="-121" type="curve" smooth="yes"/>
      <point x="240" y="-121"/>
      <point x="113" y="7"/>
      <point x="113" y="212" type="curve" smooth="yes"/>
      <point x="113" y="413"/>
      <point x="239" y="538"/>
      <point x="441" y="538" type="curve" smooth="yes"/>
      <point x="632" y="538"/>
      <point x="745" y="411"/>
      <point x="745" y="217" type="curve" smooth="yes"/>
      <point x="745" y="133"/>
      <point x="724" y="65"/>
      <point x="650" y="65" type="curve" smooth="yes"/>
      <point x="577" y="65"/>
      <point x="573" y="140"/>
      <point x="573" y="224" type="curve" smooth="yes"/>
      <point x="573" y="322"/>
      <point x="521" y="388"/>
      <point x="427" y="388" type="curve" smooth="yes"/>
      <point x="327" y="388"/>
      <point x="268" y="321"/>
      <point x="268" y="218" type="curve" smooth="yes"/>
      <point x="268" y="110"/>
      <point x="321" y="34"/>
      <point x="423" y="34" type="curve" smooth="yes"/>
      <point x="511" y="34"/>
      <point x="557" y="96"/>
      <point x="570" y="187" type="curve"/>
    </contour>
  </outline>
</glyph>
<glyph name="B" format="1">
  <advance width="618"/>
  <unicode hex="0042"/>
  <outline>
    <contour>
      <point x="286" y="394" type="line" smooth="yes"/>
      <point x="405" y="394"/>
      <point x="493" y="444"/>
      <point x="493" y="553" type="curve" smooth="yes"/>
      <point x="493" y="662"/>
      <point x="416" y="722"/>
      <point x="302" y="722" type="curve" smooth="yes"/>
      <point x="129" y="722" type="line"/>
      <point x="129" y="700" type="line"/>
      <point x="299" y="700" type="line" smooth="yes"/>
      <point x="401" y="700"/>
      <point x="471" y="648"/>
      <point x="471" y="551" type="curve" smooth="yes"/>
      <point x="471" y="454"/>
      <point x="392" y="411"/>
      <point x="286" y="411" type="curve" smooth="yes"/>
      <point x="130" y="411" type="line"/>
      <point x="130" y="394" type="line"/>
    </contour>
    <contour>
      <point x="286" y="392" type="line" smooth="yes"/>
      <point x="421" y="392"/>
      <point x="519" y="331"/>
      <point x="519" y="205" type="curve"/>
      <point x="523" y="84"/>
      <point x="430" y="21"/>
      <point x="300" y="21" type="curve" smooth="yes"/>
      <point x="129" y="21" type="line"/>
      <point x="129" y="0" type="line"/>
      <point x="300" y="0" type="line" smooth="yes"/>
      <point x="444" y="0"/>
      <point x="544" y="73"/>
      <point x="540" y="208" type="curve" smooth="yes"/>
      <point x="540" y="343"/>
      <point x="432" y="407"/>
      <point x="286" y="407" type="curve" smooth="yes"/>
      <point x="130" y="407" type="line"/>
      <point x="130" y="392" type="line"/>
    </contour>
    <contour>
      <point x="142" y="0" type="line"/>
      <point x="142" y="722" type="line"/>
      <point x="119" y="722" type="line"/>
      <point x="119" y="0" type="line"/>
    </contour>
  </outline>
</glyph>
<glyph name="D" format="1">
  <advance width="724"/>
  <unicode hex="0044"/>
  <outline>
    <contour>
      <point x="119" y="722" type="line"/>
      <point x="119" y="0" type="line"/>
      <point x="141" y="0" type="line"/>
      <point x="141" y="722" type="line"/>
    </contour>
    <contour>
      <point x="127" y="0" type="line"/>
      <point x="322" y="0" type="line" smooth="yes"/>
      <point x="527" y="0"/>
      <point x="647" y="138"/>
      <point x="647" y="347" type="curve" smooth="yes"/>
      <point x="647" y="571"/>
      <point x="525" y="722"/>
      <point x="309" y="722" type="curve" smooth="yes"/>
      <point x="132" y="722" type="line"/>
      <point x="132" y="700" type="line"/>
      <point x="308" y="700" type="line" smooth="yes"/>
      <point x="511" y="700"/>
      <point x="625" y="557"/>
      <point x="625" y="346" type="curve" smooth="yes"/>
      <point x="625" y="151"/>
      <point x="514" y="22"/>
      <point x="324" y="22" type="curve" smooth="yes"/>
      <point x="127" y="22" type="line"/>
    </contour>
  </outline>
</glyph>
<glyph name="F" format="1">
  <advance width="581"/>
  <unicode hex="0046"/>
  <outline>
    <contour>
      <point x="135" y="362" type="line"/>
      <point x="457" y="362" type="line"/>
      <point x="457" y="384" type="line"/>
      <point x="135" y="384" type="line"/>
    </contour>
    <contour>
      <point x="142" y="0" type="line"/>
      <point x="142" y="722" type="line"/>
      <point x="120" y="722" type="line"/>
      <point x="120" y="0" type="line"/>
    </contour>
    <contour>
      <point x="120" y="701" type="line"/>
      <point x="530" y="701" type="line"/>
      <point x="530" y="722" type="line"/>
      <point x="120" y="722" type="line"/>
    </contour>
  </outline>
</glyph>
<glyph name="H" format="1">
  <advance width="800"/>
  <unicode hex="0048"/>
  <outline>
    <contour>
      <point x="162" y="722" type="line"/>
      <point x="140" y="722" type="line"/>
      <point x="140" y="0" type="line"/>
      <point x="162" y="0" type="line"/>
    </contour>
    <contour>
      <point x="654" y="373" type="line"/>
      <point x="151" y="373" type="line"/>
      <point x="151" y="351" type="line"/>
      <point x="654" y="351" type="line"/>
    </contour>
    <contour>
      <point x="645" y="0" type="line"/>
      <point x="667" y="0" type="line"/>
      <point x="667" y="722" type="line"/>
      <point x="645" y="722" type="line"/>
    </contour>
  </outline>
</glyph>
<glyph name="J" format="1">
  <advance width="436"/>
  <unicode hex="004A"/>
  <outline>
    <contour>
      <point x="77" y="-168" type="line"/>
      <point x="108" y="-198"/>
      <point x="137" y="-212"/>
      <point x="180" y="-212" type="curve" smooth="yes"/>
      <point x="291" y="-212"/>
      <point x="341" y="-121"/>
      <point x="341" y="0" type="curve" smooth="yes"/>
      <point x="341" y="722" type="line"/>
      <point x="319" y="722" type="line"/>
      <point x="319" y="0" type="line" smooth="yes"/>
      <point x="319" y="-108"/>
      <point x="280" y="-191"/>
      <point x="182" y="-191" type="curve" smooth="yes"/>
      <point x="145" y="-191"/>
      <point x="121" y="-178"/>
      <point x="94" y="-152" type="curve"/>
    </contour>
  </outline>
</glyph>
<glyph name="K" format="1">
  <advance width="654"/>
  <unicode hex="004B"/>
  <outline>
    <contour>
      <point x="156" y="369" type="line"/>
      <point x="575" y="722" type="line"/>
      <point x="545" y="722" type="line"/>
      <point x="136" y="380" type="line"/>
    </contour>
    <contour>
      <point x="148" y="722" type="line"/>
      <point x="126" y="722" type="line"/>
      <point x="126" y="0" type="line"/>
      <point x="148" y="0" type="line"/>
    </contour>
    <contour>
      <point x="136" y="380" type="line"/>
      <point x="569" y="0" type="line"/>
      <point x="598" y="0" type="line"/>
      <point x="157" y="391" type="line"/>
    </contour>
  </outline>
</glyph>
<glyph name="P" format="1">
  <advance width="477"/>
  <unicode hex="0050"/>
  <outline>
    <contour>
      <point x="62" y="701" type="line"/>
      <point x="187" y="701" type="line" smooth="yes"/>
      <point x="319" y="701"/>
      <point x="410" y="621"/>
      <point x="410" y="492" type="curve" smooth="yes"/>
      <point x="410" y="376"/>
      <point x="332" y="301"/>
      <point x="216" y="301" type="curve" smooth="yes"/>
      <point x="157" y="301"/>
      <point x="116" y="319"/>
      <point x="64" y="346" type="curve"/>
      <point x="57" y="327" type="line"/>
      <point x="108" y="300"/>
      <point x="156" y="280"/>
      <point x="214" y="280" type="curve" smooth="yes"/>
      <point x="345" y="282"/>
      <point x="432" y="365"/>
      <point x="432" y="494" type="curve" smooth="yes"/>
      <point x="432" y="634"/>
      <point x="333" y="722"/>
      <point x="190" y="722" type="curve" smooth="yes"/>
      <point x="62" y="722" type="line"/>
    </contour>
    <contour>
      <point x="47" y="722" type="line"/>
      <point x="47" y="0" type="line"/>
      <point x="69" y="0" type="line"/>
      <point x="69" y="722" type="line"/>
    </contour>
  </outline>
</glyph>
<glyph name="Q" format="1">
  <advance width="836"/>
  <unicode hex="0051"/>
  <outline>
    <contour>
      <point x="125" y="361" type="curve" smooth="yes"/>
      <point x="125" y="557"/>
      <point x="219" y="707"/>
      <point x="401" y="707" type="curve" smooth="yes"/>
      <point x="585" y="709"/>
      <point x="685" y="560"/>
      <point x="682" y="363" type="curve"/>
      <point x="682" y="166"/>
      <point x="589" y="15"/>
      <point x="407" y="15" type="curve" smooth="yes"/>
      <point x="223" y="15"/>
      <point x="125" y="164"/>
    </contour>
    <contour>
      <point x="104" y="358" type="curve"/>
      <point x="100" y="149"/>
      <point x="208" y="-7"/>
      <point x="404" y="-6" type="curve" smooth="yes"/>
      <point x="601" y="-6"/>
      <point x="703" y="154"/>
      <point x="703" y="365" type="curve" smooth="yes"/>
      <point x="703" y="572"/>
      <point x="599" y="728"/>
      <point x="404" y="728" type="curve" smooth="yes"/>
      <point x="206" y="729"/>
      <point x="100" y="569"/>
    </contour>
    <contour>
      <point x="400" y="-4" type="line"/>
      <point x="449" y="-76"/>
      <point x="494" y="-127"/>
      <point x="567" y="-173" type="curve" smooth="yes"/>
      <point x="645" y="-223"/>
      <point x="715" y="-237"/>
      <point x="808" y="-240" type="curve"/>
      <point x="811" y="-219" type="line"/>
      <point x="723" y="-216"/>
      <point x="656" y="-205"/>
      <point x="581" y="-158" type="curve" smooth="yes"/>
      <point x="510" y="-113"/>
      <point x="469" y="-63"/>
      <point x="421" y="6" type="curve"/>
    </contour>
  </outline>
</glyph>
<glyph name="V" format="1">
  <advance width="618"/>
  <unicode hex="0056"/>
  <outline>
    <contour>
      <point x="575" y="722" type="line"/>
      <point x="297" y="0" type="line"/>
      <point x="322" y="0" type="line"/>
      <point x="599" y="722" type="line"/>
    </contour>
    <contour>
      <point x="315" y="0" type="line"/>
      <point x="33" y="722" type="line"/>
      <point x="9" y="722" type="line"/>
      <point x="291" y="0" type="line"/>
    </contour>
  </outline>
</glyph>
<glyph name="W" format="1">
  <advance width="879"/>
  <unicode hex="0057"/>
  <outline>
    <contour>
      <point x="252" y="0" type="line"/>
      <point x="455" y="722" type="line"/>
      <point x="430" y="722" type="line"/>
      <point x="230" y="0" type="line"/>
    </contour>
    <contour>
      <point x="437" y="722" type="line"/>
      <point x="620" y="0" type="line"/>
      <point x="642" y="0" type="line"/>
      <point x="461" y="722" type="line"/>
    </contour>
    <contour>
      <point x="252" y="0" type="line"/>
      <point x="72" y="722" type="line"/>
      <point x="48" y="722" type="line"/>
      <point x="230" y="0" type="line"/>
    </contour>
    <contour>
      <point x="620" y="0" type="line"/>
      <point x="642" y="0" type="line"/>
      <point x="832" y="722" type="line"/>
      <point x="808" y="722" type="line"/>
    </contour>
  </outline>
</glyph>
<glyph name="X" format="1">
  <advance width="637"/>
  <unicode hex="0058"/>
  <outline>
    <contour>
      <point x="537" y="722" type="line"/>
      <point x="38" y="0" type="line"/>
      <point x="64" y="0" type="line"/>
      <point x="560" y="722" type="line"/>
    </contour>
    <contour>
      <point x="588" y="0" type="line"/>
      <point x="94" y="722" type="line"/>
      <point x="71" y="722" type="line"/>
      <point x="563" y="0" type="line"/>
    </contour>
  </outline>
</glyph>
<glyph name="Y" format="1">
  <advance width="509"/>
  <unicode hex="0059"/>
  <outline>
    <contour>
      <point x="255" y="337" type="line"/>
      <point x="20" y="722" type="line"/>
      <point x="-4" y="722" type="line"/>
      <point x="231" y="337" type="line"/>
    </contour>
    <contour>
      <point x="479" y="722" type="line"/>
      <point x="231" y="337" type="line"/>
      <point x="255" y="337" type="line"/>
      <point x="503" y="722" type="line"/>
    </contour>
    <contour>
      <point x="255" y="0" type="line"/>
      <point x="255" y="346" type="line"/>
      <point x="231" y="346" type="line"/>
      <point x="231" y="0" type="line"/>
    </contour>
  </outline>
</glyph>
<glyph name="asciicircum" format="1">
  <advance width="476"/>
  <unicode hex="005E"/>
  <outline>
    <contour>
      <point x="251" y="811" type="line"/>
      <point x="229" y="811" type="line"/>
      <point x="55" y="466" type="line"/>
      <point x="77" y="466" type="line"/>
    </contour>
    <contour>
      <point x="229" y="811" type="line"/>
      <point x="399" y="476" type="line"/>
      <point x="421" y="476" type="line"/>
      <point x="251" y="811" type="line"/>
    </contour>
  </outline>
</glyph>
<glyph name="underscore" format="1">
  <advance width="857"/>
  <unicode hex="005F"/>
  <outline>
    <contour>
      <point x="85" y="-210" type="line"/>
      <point x="767" y="-210" type="line"/>
      <point x="767" y="-188" type="line"/>
      <point x="85" y="-188" type="line"/>
    </contour>
  </outline>
</glyph>
<glyph name="grave" format="1">
  <advance width="400"/>
  <unicode hex="0060"/>
  <outline>
    <contour>
      <point x="288" y="671" type="line"/>
      <point x="314" y="671" type="line"/>
      <point x="137" y="837" type="line"/>
      <point x="100" y="837" type="line"/>
    </contour>
  </outline>
</glyph>
<glyph name="f" format="1">
  <advance width="581"/>
  <unicode hex="0066"/>
  <outline>
    <contour>
      <point x="69" y="508" type="line"/>
      <point x="69" y="486" type="line"/>
      <point x="490" y="486" type="line"/>
      <point x="490" y="508" type="line"/>
    </contour>
    <contour>
      <point x="265" y="593" type="line" smooth="yes"/>
      <point x="265" y="709"/>
      <point x="322" y="777"/>
      <point x="418" y="777" type="curve" smooth="yes"/>
      <point x="443" y="777"/>
      <point x="469" y="773"/>
      <point x="496" y="764" type="curve"/>
      <point x="504" y="783" type="line"/>
      <point x="473" y="794"/>
      <point x="443" y="799"/>
      <point x="413" y="799" type="curve" smooth="yes"/>
      <point x="308" y="799"/>
      <point x="242" y="722"/>
      <point x="243" y="593" type="curve"/>
      <point x="243" y="0" type="line"/>
      <point x="265" y="0" type="line"/>
    </contour>
  </outline>
</glyph>
<glyph name="g" format="1">
  <advance width="568"/>
  <unicode hex="0067"/>
  <outline>
    <contour>
      <point x="115" y="364" type="curve" smooth="yes"/>
      <point x="115" y="462"/>
      <point x="180" y="519"/>
      <point x="280" y="519" type="curve" smooth="yes"/>
      <point x="378" y="519"/>
      <point x="442" y="463"/>
      <point x="442" y="367" type="curve" smooth="yes"/>
      <point x="442" y="270"/>
      <point x="376" y="214"/>
      <point x="277" y="214" type="curve" smooth="yes"/>
      <point x="179" y="214"/>
      <point x="115" y="269"/>
    </contour>
    <contour>
      <point x="422" y="464" type="line"/>
      <point x="554" y="464" type="line"/>
      <point x="554" y="485" type="line"/>
      <point x="404" y="485" type="line"/>
    </contour>
    <contour>
      <point x="276" y="194" type="curve" smooth="yes"/>
      <point x="388" y="194"/>
      <point x="462" y="258"/>
      <point x="462" y="368" type="curve" smooth="yes"/>
      <point x="462" y="476"/>
      <point x="390" y="539"/>
      <point x="280" y="539" type="curve" smooth="yes"/>
      <point x="167" y="539"/>
      <point x="93" y="474"/>
      <point x="93" y="363" type="curve" smooth="yes"/>
      <point x="93" y="256"/>
      <point x="166" y="194"/>
    </contour>
    <contour>
      <point x="157" y="46" type="line"/>
      <point x="84" y="15"/>
      <point x="49" y="-36"/>
      <point x="49" y="-115" type="curve" smooth="yes"/>
      <point x="49" y="-229"/>
      <point x="129" y="-293"/>
      <point x="248" y="-293" type="curve" smooth="yes"/>
      <point x="403" y="-296"/>
      <point x="523" y="-244"/>
      <point x="521" y="-106" type="curve" smooth="yes"/>
      <point x="521" y="-12"/>
      <point x="447" y="30"/>
      <point x="346" y="35" type="curve" smooth="yes"/>
      <point x="297" y="37"/>
      <point x="263" y="37"/>
      <point x="214" y="39" type="curve" smooth="yes"/>
      <point x="154" y="41"/>
      <point x="116" y="75"/>
      <point x="116" y="134" type="curve" smooth="yes"/>
      <point x="116" y="183"/>
      <point x="141" y="216"/>
      <point x="189" y="225" type="curve"/>
      <point x="174" y="232" type="line"/>
      <point x="122" y="219"/>
      <point x="96" y="182"/>
      <point x="96" y="128" type="curve" smooth="yes"/>
      <point x="96" y="60"/>
      <point x="146" y="24"/>
      <point x="218" y="21" type="curve" smooth="yes"/>
      <point x="263" y="19"/>
      <point x="295" y="19"/>
      <point x="340" y="17" type="curve" smooth="yes"/>
      <point x="433" y="12"/>
      <point x="502" y="-24"/>
      <point x="502" y="-109" type="curve" smooth="yes"/>
      <point x="502" y="-231"/>
      <point x="394" y="-272"/>
      <point x="256" y="-272" type="curve" smooth="yes"/>
      <point x="146" y="-272"/>
      <point x="70" y="-215"/>
      <point x="70" y="-110" type="curve" smooth="yes"/>
      <point x="70" y="-37"/>
      <point x="105" y="8"/>
      <point x="171" y="40" type="curve"/>
    </contour>
  </outline>
</glyph>
<glyph name="j" format="1">
  <advance width="363"/>
  <unicode hex="006A"/>
  <outline>
    <component base="period" xOffset="71" yOffset="609"/>
    <contour>
      <point x="40" y="-289" type="line"/>
      <point x="51" y="-290"/>
      <point x="58" y="-292"/>
      <point x="69" y="-292" type="curve" smooth="yes"/>
      <point x="163" y="-292"/>
      <point x="227" y="-229"/>
      <point x="227" y="-135" type="curve" smooth="yes"/>
      <point x="227" y="535" type="line"/>
      <point x="205" y="535" type="line"/>
      <point x="205" y="-135" type="line" smooth="yes"/>
      <point x="205" y="-216"/>
      <point x="150" y="-270"/>
      <point x="69" y="-270" type="curve" smooth="yes"/>
      <point x="60" y="-270"/>
      <point x="52" y="-270"/>
      <point x="43" y="-268" type="curve"/>
    </contour>
  </outline>
</glyph>
<glyph name="m" format="1">
  <advance width="981"/>
  <unicode hex="006D"/>
  <outline>
    <contour>
      <point x="486" y="403" type="line"/>
      <point x="518" y="479"/>
      <point x="571" y="524"/>
      <point x="652" y="524" type="curve" smooth="yes"/>
      <point x="750" y="524"/>
      <point x="818" y="463"/>
      <point x="818" y="367" type="curve" smooth="yes"/>
      <point x="818" y="0" type="line"/>
      <point x="840" y="0" type="line"/>
      <point x="840" y="364" type="line" smooth="yes"/>
      <point x="840" y="474"/>
      <point x="767" y="547"/>
      <point x="656" y="547" type="curve" smooth="yes"/>
      <point x="568" y="547"/>
      <point x="508" y="501"/>
      <point x="476" y="418" type="curve"/>
    </contour>
    <contour>
      <point x="140" y="533" type="line"/>
      <point x="118" y="533" type="line"/>
      <point x="118" y="0" type="line"/>
      <point x="140" y="0" type="line"/>
    </contour>
    <contour>
      <point x="134" y="412" type="line"/>
      <point x="166" y="484"/>
      <point x="220" y="524"/>
      <point x="299" y="524" type="curve" smooth="yes"/>
      <point x="399" y="524"/>
      <point x="470" y="465"/>
      <point x="470" y="367" type="curve" smooth="yes"/>
      <point x="470" y="0" type="line"/>
      <point x="492" y="0" type="line"/>
      <point x="492" y="364" type="line" smooth="yes"/>
      <point x="492" y="476"/>
      <point x="416" y="547"/>
      <point x="303" y="547" type="curve" smooth="yes"/>
      <point x="217" y="547"/>
      <point x="157" y="504"/>
      <point x="125" y="424" type="curve"/>
    </contour>
  </outline>
</glyph>
<glyph name="n" format="1">
  <advance width="618"/>
  <unicode hex="006E"/>
  <outline>
    <contour>
      <point x="134" y="398" type="line"/>
      <point x="173" y="462"/>
      <point x="237" y="520"/>
      <point x="334" y="520" type="curve" smooth="yes"/>
      <point x="440" y="520"/>
      <point x="490" y="451"/>
      <point x="490" y="339" type="curve" smooth="yes"/>
      <point x="490" y="0" type="line"/>
      <point x="512" y="0" type="line"/>
      <point x="512" y="344" type="line" smooth="yes"/>
      <point x="512" y="467"/>
      <point x="456" y="543"/>
      <point x="338" y="543" type="curve" smooth="yes"/>
      <point x="235" y="543"/>
      <point x="163" y="489"/>
      <point x="125" y="417" type="curve"/>
    </contour>
    <contour>
      <point x="140" y="533" type="line"/>
      <point x="118" y="533" type="line"/>
      <point x="118" y="0" type="line"/>
      <point x="140" y="0" type="line"/>
    </contour>
  </outline>
</glyph>
<glyph name="s" format="1">
  <advance width="509"/>
  <unicode hex="0073"/>
  <outline>
    <contour>
      <point x="73" y="50" type="line"/>
      <point x="130" y="7"/>
      <point x="180" y="-10"/>
      <point x="250" y="-10" type="curve" smooth="yes"/>
      <point x="353" y="-10"/>
      <point x="434" y="33"/>
      <point x="434" y="127" type="curve" smooth="yes"/>
      <point x="433" y="211"/>
      <point x="362" y="244"/>
      <point x="279" y="272" type="curve" smooth="yes"/>
      <point x="201" y="300"/>
      <point x="134" y="332"/>
      <point x="134" y="411" type="curve" smooth="yes"/>
      <point x="134" y="484"/>
      <point x="193" y="523"/>
      <point x="271" y="523" type="curve" smooth="yes"/>
      <point x="325" y="523"/>
      <point x="363" y="507"/>
      <point x="409" y="479" type="curve"/>
      <point x="419" y="497" type="line"/>
      <point x="371" y="526"/>
      <point x="330" y="543"/>
      <point x="274" y="543" type="curve" smooth="yes"/>
      <point x="183" y="543"/>
      <point x="114" y="497"/>
      <point x="114" y="412" type="curve" smooth="yes"/>
      <point x="114" y="327"/>
      <point x="180" y="285"/>
      <point x="264" y="255" type="curve" smooth="yes"/>
      <point x="342" y="228"/>
      <point x="413" y="205"/>
      <point x="413" y="127" type="curve" smooth="yes"/>
      <point x="413" y="47"/>
      <point x="342" y="11"/>
      <point x="254" y="11" type="curve" smooth="yes"/>
      <point x="188" y="11"/>
      <point x="142" y="28"/>
      <point x="87" y="67" type="curve"/>
    </contour>
  </outline>
</glyph>
<glyph name="v" format="1">
  <advance width="581"/>
  <unicode hex="0076"/>
  <outline>
    <contour>
      <point x="284" y="0" type="line"/>
      <point x="80" y="533" type="line"/>
      <point x="58" y="533" type="line"/>
      <point x="264" y="0" type="line"/>
    </contour>
    <contour>
      <point x="269" y="0" type="line"/>
      <point x="291" y="0" type="line"/>
      <point x="511" y="533" type="line"/>
      <point x="489" y="533" type="line"/>
    </contour>
  </outline>
</glyph>
<glyph name="w" format="1">
  <advance width="836"/>
  <unicode hex="0077"/>
  <outline>
    <contour>
      <point x="222" y="0" type="line"/>
      <point x="425" y="533" type="line"/>
      <point x="400" y="533" type="line"/>
      <point x="200" y="0" type="line"/>
    </contour>
    <contour>
      <point x="590" y="0" type="line"/>
      <point x="612" y="0" type="line"/>
      <point x="802" y="533" type="line"/>
      <point x="778" y="533" type="line"/>
    </contour>
    <contour>
      <point x="407" y="533" type="line"/>
      <point x="590" y="0" type="line"/>
      <point x="612" y="0" type="line"/>
      <point x="431" y="533" type="line"/>
    </contour>
    <contour>
      <point x="222" y="0" type="line"/>
      <point x="42" y="533" type="line"/>
      <point x="18" y="533" type="line"/>
      <point x="200" y="0" type="line"/>
    </contour>
  </outline>
</glyph>
<glyph name="x" format="1">
  <advance width="545"/>
  <unicode hex="0078"/>
  <outline>
    <contour>
      <point x="488" y="0" type="line"/>
      <point x="94" y="534" type="line"/>
      <point x="71" y="534" type="line"/>
      <point x="463" y="0" type="line"/>
    </contour>
    <contour>
      <point x="447" y="534" type="line"/>
      <point x="48" y="0" type="line"/>
      <point x="74" y="0" type="line"/>
      <point x="470" y="534" type="line"/>
    </contour>
  </outline>
</glyph>
<glyph name="y" format="1">
  <advance width="490"/>
  <unicode hex="0079"/>
  <outline>
    <contour>
      <point x="258" y="77" type="line"/>
      <point x="55" y="533" type="line"/>
      <point x="30" y="533" type="line"/>
      <point x="236" y="73" type="line"/>
    </contour>
    <contour>
      <point x="53" y="-300" type="line"/>
      <point x="78" y="-300" type="line"/>
      <point x="484" y="533" type="line"/>
      <point x="460" y="533" type="line"/>
    </contour>
  </outline>
</glyph>
<glyph name="bar" format="1">
  <advance width="290"/>
  <unicode hex="007C"/>
  <outline>
    <contour>
      <point x="151" y="-300" type="line"/>
      <point x="151" y="800" type="line"/>
      <point x="129" y="800" type="line"/>
      <point x="129" y="-300" type="line"/>
    </contour>
  </outline>
</glyph>
<glyph name="exclamdown" format="1">
  <advance width="290"/>
  <unicode hex="00A1"/>
  <outline>
    <component base="period" yScale="-1" yOffset="422"/>
    <contour>
      <point x="134" y="193" type="line"/>
      <point x="134" y="-300" type="line"/>
      <point x="156" y="-300" type="line"/>
      <point x="156" y="193" type="line"/>
    </contour>
  </outline>
</glyph>
<glyph name="cent" format="1">
  <advance width="584"/>
  <unicode hex="00A2"/>
  <outline>
    <contour>
      <point x="336" y="67" type="line"/>
      <point x="314" y="67" type="line"/>
      <point x="314" y="-41" type="line"/>
      <point x="336" y="-41" type="line"/>
    </contour>
    <contour>
      <point x="357" y="670" type="line"/>
      <point x="357" y="778" type="line"/>
      <point x="335" y="778" type="line"/>
      <point x="335" y="670" type="line"/>
    </contour>
    <contour>
      <point x="63" y="366" type="curve" smooth="yes"/>
      <point x="63" y="183"/>
      <point x="151" y="54"/>
      <point x="323" y="54" type="curve" smooth="yes"/>
      <point x="421" y="54"/>
      <point x="485" y="84"/>
      <point x="561" y="146" type="curve"/>
      <point x="547" y="163" type="line"/>
      <point x="477" y="103"/>
      <point x="417" y="75"/>
      <point x="325" y="75" type="curve" smooth="yes"/>
      <point x="165" y="75"/>
      <point x="85" y="197"/>
      <point x="85" y="367" type="curve" smooth="yes"/>
      <point x="85" y="541"/>
      <point x="180" y="658"/>
      <point x="348" y="658" type="curve" smooth="yes"/>
      <point x="430" y="658"/>
      <point x="485" y="639"/>
      <point x="551" y="591" type="curve"/>
      <point x="563" y="609" type="line"/>
      <point x="493" y="658"/>
      <point x="435" y="679"/>
      <point x="350" y="679" type="curve" smooth="yes"/>
      <point x="168" y="679"/>
      <point x="63" y="554"/>
    </contour>
  </outline>
</glyph>
<glyph name="sterling" format="1">
  <advance width="505"/>
  <unicode hex="00A3"/>
  <outline>
    <contour>
      <point x="433" y="1" type="line"/>
      <point x="433" y="23" type="line"/>
      <point x="29" y="23" type="line"/>
      <point x="29" y="1" type="line"/>
    </contour>
    <contour>
      <point x="386" y="367" type="line"/>
      <point x="386" y="388" type="line"/>
      <point x="65" y="388" type="line"/>
      <point x="65" y="367" type="line"/>
    </contour>
    <contour>
      <point x="432" y="640" type="curve"/>
      <point x="443" y="657" type="line"/>
      <point x="399" y="689"/>
      <point x="363" y="705"/>
      <point x="309" y="705" type="curve" smooth="yes"/>
      <point x="160" y="705"/>
      <point x="125" y="555"/>
      <point x="163" y="375" type="curve" smooth="yes"/>
      <point x="203" y="184"/>
      <point x="184" y="22"/>
      <point x="29" y="22" type="curve"/>
      <point x="29" y="0" type="line"/>
      <point x="195" y="2"/>
      <point x="224" y="171"/>
      <point x="185" y="372" type="curve" smooth="yes"/>
      <point x="152" y="541"/>
      <point x="169" y="684"/>
      <point x="306" y="684" type="curve" smooth="yes"/>
      <point x="357" y="684"/>
      <point x="391" y="671"/>
    </contour>
  </outline>
</glyph>
<glyph name="currency" format="1">
  <advance width="513"/>
  <unicode hex="00A4"/>
  <outline>
    <contour>
      <point x="371" y="417" type="line"/>
      <point x="467" y="512" type="line"/>
      <point x="452" y="528" type="line"/>
      <point x="356" y="433" type="line"/>
    </contour>
    <contour>
      <point x="57" y="94" type="line"/>
      <point x="152" y="188" type="line"/>
      <point x="138" y="205" type="line"/>
      <point x="42" y="110" type="line"/>
    </contour>
    <contour>
      <point x="362" y="189" type="line"/>
      <point x="457" y="94" type="line"/>
      <point x="473" y="109" type="line"/>
      <point x="377" y="205" type="line"/>
    </contour>
    <contour>
      <point x="49" y="511" type="line"/>
      <point x="144" y="416" type="line"/>
      <point x="160" y="431" type="line"/>
      <point x="64" y="527" type="line"/>
    </contour>
    <contour>
      <point x="122" y="312" type="curve" smooth="yes"/>
      <point x="122" y="398"/>
      <point x="175" y="458"/>
      <point x="259" y="458" type="curve" smooth="yes"/>
      <point x="343" y="459"/>
      <point x="395" y="397"/>
      <point x="394" y="310" type="curve"/>
      <point x="394" y="222"/>
      <point x="348" y="156"/>
      <point x="265" y="156" type="curve" smooth="yes"/>
      <point x="177" y="156"/>
      <point x="122" y="221"/>
    </contour>
    <contour>
      <point x="101" y="310" type="curve"/>
      <point x="99" y="208"/>
      <point x="162" y="134"/>
      <point x="262" y="135" type="curve" smooth="yes"/>
      <point x="358" y="135"/>
      <point x="415" y="210"/>
      <point x="415" y="311" type="curve" smooth="yes"/>
      <point x="415" y="409"/>
      <point x="357" y="479"/>
      <point x="262" y="479" type="curve" smooth="yes"/>
      <point x="163" y="480"/>
      <point x="99" y="410"/>
    </contour>
  </outline>
</glyph>
<glyph name="yen" format="1">
  <advance width="509"/>
  <unicode hex="00A5"/>
  <outline>
    <contour>
      <point x="476" y="370" type="line"/>
      <point x="265" y="370" type="line"/>
      <point x="265" y="348" type="line"/>
      <point x="476" y="348" type="line"/>
    </contour>
    <contour>
      <point x="236" y="370" type="line"/>
      <point x="29" y="370" type="line"/>
      <point x="29" y="348" type="line"/>
      <point x="236" y="348" type="line"/>
    </contour>
    <contour>
      <point x="478" y="229" type="line"/>
      <point x="478" y="251" type="line"/>
      <point x="29" y="251" type="line"/>
      <point x="29" y="229" type="line"/>
    </contour>
    <contour>
      <point x="262" y="337" type="line"/>
      <point x="27" y="722" type="line"/>
      <point x="3" y="722" type="line"/>
      <point x="238" y="337" type="line"/>
    </contour>
    <contour>
      <point x="486" y="722" type="line"/>
      <point x="238" y="337" type="line"/>
      <point x="262" y="337" type="line"/>
      <point x="510" y="722" type="line"/>
    </contour>
    <contour>
      <point x="262" y="0" type="line"/>
      <point x="262" y="346" type="line"/>
      <point x="238" y="346" type="line"/>
      <point x="238" y="0" type="line"/>
    </contour>
  </outline>
</glyph>
<glyph name="brokenbar" format="1">
  <advance width="256"/>
  <unicode hex="00A6"/>
  <outline>
    <contour>
      <point x="129" y="-300" type="line"/>
      <point x="151" y="-300" type="line"/>
    </contour>
    <contour>
      <point x="151" y="-300" type="line"/>
      <point x="151" y="72" type="line"/>
      <point x="129" y="72" type="line"/>
      <point x="129" y="-300" type="line"/>
    </contour>
    <contour>
      <point x="129" y="428" type="line"/>
      <point x="151" y="428" type="line"/>
    </contour>
    <contour>
      <point x="151" y="428" type="line"/>
      <point x="151" y="800" type="line"/>
      <point x="129" y="800" type="line"/>
      <point x="129" y="428" type="line"/>
    </contour>
  </outline>
</glyph>
<glyph name="section" format="1">
  <advance width="489"/>
  <unicode hex="00A7"/>
  <outline>
    <contour>
      <point x="364" y="131" type="line"/>
      <point x="402" y="153"/>
      <point x="425" y="189"/>
      <point x="425" y="239" type="curve" smooth="yes"/>
      <point x="424" y="323"/>
      <point x="353" y="356"/>
      <point x="270" y="384" type="curve" smooth="yes"/>
      <point x="192" y="412"/>
      <point x="125" y="444"/>
      <point x="125" y="523" type="curve" smooth="yes"/>
      <point x="125" y="596"/>
      <point x="184" y="635"/>
      <point x="262" y="635" type="curve" smooth="yes"/>
      <point x="316" y="635"/>
      <point x="354" y="619"/>
      <point x="400" y="591" type="curve"/>
      <point x="410" y="609" type="line"/>
      <point x="362" y="638"/>
      <point x="321" y="655"/>
      <point x="265" y="655" type="curve" smooth="yes"/>
      <point x="174" y="655"/>
      <point x="105" y="609"/>
      <point x="105" y="524" type="curve" smooth="yes"/>
      <point x="105" y="439"/>
      <point x="171" y="397"/>
      <point x="255" y="367" type="curve" smooth="yes"/>
      <point x="333" y="340"/>
      <point x="404" y="317"/>
      <point x="404" y="239" type="curve" smooth="yes"/>
      <point x="404" y="194"/>
      <point x="381" y="163"/>
      <point x="346" y="144" type="curve"/>
    </contour>
    <contour>
      <point x="210" y="-74" type="curve" smooth="yes"/>
      <point x="313" y="-74"/>
      <point x="394" y="-31"/>
      <point x="394" y="63" type="curve" smooth="yes"/>
      <point x="393" y="147"/>
      <point x="322" y="180"/>
      <point x="239" y="208" type="curve" smooth="yes"/>
      <point x="161" y="236"/>
      <point x="94" y="268"/>
      <point x="94" y="347" type="curve" smooth="yes"/>
      <point x="94" y="389"/>
      <point x="114" y="420"/>
      <point x="146" y="439" type="curve"/>
      <point x="130" y="452" type="line"/>
      <point x="95" y="430"/>
      <point x="74" y="395"/>
      <point x="74" y="348" type="curve" smooth="yes"/>
      <point x="74" y="263"/>
      <point x="140" y="221"/>
      <point x="224" y="191" type="curve" smooth="yes"/>
      <point x="302" y="164"/>
      <point x="373" y="141"/>
      <point x="373" y="63" type="curve" smooth="yes"/>
      <point x="373" y="-17"/>
      <point x="302" y="-53"/>
      <point x="214" y="-53" type="curve" smooth="yes"/>
      <point x="148" y="-53"/>
      <point x="102" y="-36"/>
      <point x="47" y="3" type="curve"/>
      <point x="33" y="-14" type="line"/>
      <point x="90" y="-57"/>
      <point x="140" y="-74"/>
    </contour>
  </outline>
</glyph>
<glyph name="ordfeminine" format="1">
  <advance width="311"/>
  <unicode hex="00AA"/>
  <outline>
    <contour>
      <point x="271" y="270" type="line"/>
      <point x="271" y="476" type="line" smooth="yes"/>
      <point x="271" y="544"/>
      <point x="220" y="586"/>
      <point x="150" y="586" type="curve" smooth="yes"/>
      <point x="109" y="586"/>
      <point x="80" y="570"/>
      <point x="50" y="542" type="curve"/>
      <point x="64" y="526" type="line"/>
      <point x="89" y="549"/>
      <point x="113" y="565"/>
      <point x="147" y="565" type="curve" smooth="yes"/>
      <point x="207" y="565"/>
      <point x="249" y="528"/>
      <point x="249" y="470" type="curve" smooth="yes"/>
      <point x="249" y="270" type="line"/>
    </contour>
    <contour>
      <point x="254" y="353" type="line"/>
      <point x="222" y="313"/>
      <point x="192" y="280"/>
      <point x="141" y="280" type="curve" smooth="yes"/>
      <point x="90" y="280"/>
      <point x="49" y="304"/>
      <point x="49" y="352" type="curve" smooth="yes"/>
      <point x="49" y="397"/>
      <point x="84" y="421"/>
      <point x="131" y="426" type="curve" smooth="yes"/>
      <point x="176" y="430"/>
      <point x="211" y="430"/>
      <point x="256" y="432" type="curve"/>
      <point x="256" y="450" type="line"/>
      <point x="212" y="448"/>
      <point x="177" y="448"/>
      <point x="133" y="444" type="curve" smooth="yes"/>
      <point x="72" y="439"/>
      <point x="27" y="407"/>
      <point x="27" y="350" type="curve" smooth="yes"/>
      <point x="27" y="292"/>
      <point x="75" y="260"/>
      <point x="137" y="260" type="curve" smooth="yes"/>
      <point x="194" y="260"/>
      <point x="230" y="292"/>
      <point x="263" y="339" type="curve"/>
    </contour>
  </outline>
</glyph>
<glyph name="macron" format="1">
  <advance width="286"/>
  <unicode hex="00AF"/>
  <outline>
    <contour>
      <point x="31" y="660" type="line"/>
      <point x="31" y="634" type="line"/>
      <point x="256" y="634" type="line"/>
      <point x="256" y="660" type="line"/>
    </contour>
  </outline>
</glyph>
<glyph name="degree" format="1">
  <advance width="381"/>
  <unicode hex="00B0"/>
  <outline>
    <contour>
      <point x="34" y="468" type="curve"/>
      <point x="32" y="366"/>
      <point x="95" y="292"/>
      <point x="195" y="293" type="curve" smooth="yes"/>
      <point x="291" y="293"/>
      <point x="348" y="368"/>
      <point x="348" y="469" type="curve" smooth="yes"/>
      <point x="348" y="567"/>
      <point x="290" y="637"/>
      <point x="195" y="637" type="curve" smooth="yes"/>
      <point x="96" y="638"/>
      <point x="32" y="568"/>
    </contour>
    <contour>
      <point x="55" y="470" type="curve" smooth="yes"/>
      <point x="55" y="556"/>
      <point x="108" y="616"/>
      <point x="192" y="616" type="curve" smooth="yes"/>
      <point x="276" y="617"/>
      <point x="328" y="555"/>
      <point x="327" y="468" type="curve"/>
      <point x="327" y="380"/>
      <point x="281" y="314"/>
      <point x="198" y="314" type="curve" smooth="yes"/>
      <point x="110" y="314"/>
      <point x="55" y="379"/>
    </contour>
  </outline>
</glyph>
<glyph name="plusminus" format="1">
  <advance width="691"/>
  <unicode hex="00B1"/>
  <outline>
    <contour>
      <point x="628" y="401" type="line"/>
      <point x="628" y="423" type="line"/>
      <point x="47" y="423" type="line"/>
      <point x="47" y="401" type="line"/>
    </contour>
    <contour>
      <point x="354" y="678" type="line"/>
      <point x="332" y="678" type="line"/>
      <point x="332" y="108" type="line"/>
      <point x="354" y="108" type="line"/>
    </contour>
    <contour>
      <point x="626" y="-13" type="line"/>
      <point x="626" y="9" type="line"/>
      <point x="47" y="9" type="line"/>
      <point x="47" y="-13" type="line"/>
    </contour>
  </outline>
</glyph>
<glyph name="twosuperior" format="1">
  <advance width="339"/>
  <unicode hex="00B2"/>
  <outline>
    <contour>
      <point x="201" y="583" type="curve" smooth="yes"/>
      <point x="254" y="630"/>
      <point x="303" y="668"/>
      <point x="303" y="739" type="curve" smooth="yes"/>
      <point x="303" y="810"/>
      <point x="254" y="856"/>
      <point x="182" y="856" type="curve" smooth="yes"/>
      <point x="119" y="856"/>
      <point x="75" y="825"/>
      <point x="44" y="770" type="curve"/>
      <point x="61" y="758" type="line"/>
      <point x="88" y="807"/>
      <point x="126" y="835"/>
      <point x="181" y="835" type="curve" smooth="yes"/>
      <point x="242" y="835"/>
      <point x="284" y="796"/>
      <point x="284" y="736" type="curve" smooth="yes"/>
      <point x="284" y="671"/>
      <point x="236" y="639"/>
      <point x="187" y="596" type="curve" smooth="yes"/>
      <point x="128" y="544"/>
      <point x="76" y="514"/>
      <point x="15" y="464" type="curve"/>
      <point x="29" y="452" type="line"/>
      <point x="90" y="500"/>
      <point x="143" y="531"/>
    </contour>
    <contour>
      <point x="15" y="464" type="line"/>
      <point x="15" y="443" type="line"/>
      <point x="328" y="443" type="line"/>
      <point x="328" y="464" type="line"/>
    </contour>
  </outline>
</glyph>
<glyph name="threesuperior" format="1">
  <advance width="302"/>
  <unicode hex="00B3"/>
  <outline>
    <contour>
      <point x="93" y="639" type="line"/>
      <point x="183" y="636"/>
      <point x="263" y="627"/>
      <point x="263" y="549" type="curve" smooth="yes"/>
      <point x="265" y="483"/>
      <point x="207" y="456"/>
      <point x="132" y="458" type="curve" smooth="yes"/>
      <point x="95" y="458"/>
      <point x="61" y="467"/>
      <point x="29" y="486" type="curve"/>
      <point x="16" y="470" type="line"/>
      <point x="51" y="448"/>
      <point x="89" y="437"/>
      <point x="130" y="437" type="curve" smooth="yes"/>
      <point x="219" y="434"/>
      <point x="286" y="472"/>
      <point x="284" y="552" type="curve" smooth="yes"/>
      <point x="284" y="640"/>
      <point x="194" y="651"/>
      <point x="93" y="654" type="curve"/>
    </contour>
    <contour>
      <point x="93" y="660" type="curve"/>
      <point x="93" y="643" type="line"/>
      <point x="188" y="645"/>
      <point x="269" y="665"/>
      <point x="269" y="748" type="curve" smooth="yes"/>
      <point x="269" y="819"/>
      <point x="215" y="857"/>
      <point x="140" y="857" type="curve" smooth="yes"/>
      <point x="94" y="857"/>
      <point x="52" y="840"/>
      <point x="24" y="804" type="curve"/>
      <point x="39" y="788" type="line"/>
      <point x="64" y="819"/>
      <point x="98" y="837"/>
      <point x="137" y="837" type="curve" smooth="yes"/>
      <point x="201" y="837"/>
      <point x="247" y="806"/>
      <point x="247" y="746" type="curve" smooth="yes"/>
      <point x="247" y="674"/>
      <point x="176" y="661"/>
    </contour>
  </outline>
</glyph>
<glyph name="acute" format="1">
  <advance width="223"/>
  <unicode hex="00B4"/>
  <outline>
    <contour>
      <point x="43" y="671" type="line"/>
      <point x="17" y="671" type="line"/>
      <point x="171" y="837" type="line"/>
      <point x="204" y="837" type="line"/>
    </contour>
  </outline>
</glyph>
<glyph name="guillemotright" format="1">
  <advance width="441"/>
  <unicode hex="00BB"/>
  <outline>
    <contour>
      <point x="396" y="261" type="line"/>
      <point x="396" y="283" type="line"/>
      <point x="215" y="407" type="line"/>
      <point x="215" y="385" type="line"/>
    </contour>
    <contour>
      <point x="396" y="283" type="line"/>
      <point x="225" y="163" type="line"/>
      <point x="225" y="141" type="line"/>
      <point x="396" y="261" type="line"/>
    </contour>
    <contour>
      <point x="220" y="261" type="line"/>
      <point x="220" y="283" type="line"/>
      <point x="39" y="407" type="line"/>
      <point x="39" y="385" type="line"/>
    </contour>
    <contour>
      <point x="220" y="283" type="line"/>
      <point x="49" y="163" type="line"/>
      <point x="49" y="141" type="line"/>
      <point x="220" y="261" type="line"/>
    </contour>
  </outline>
</glyph>
<glyph name="onequarter" format="1">
  <advance width="868"/>
  <unicode hex="00BC"/>
  <outline>
    <component base="fraction" xOffset="138" yOffset="-94"/>
    <contour>
      <point x="91" y="513" type="line"/>
      <point x="207" y="608" type="line"/>
      <point x="207" y="225" type="line"/>
      <point x="229" y="225" type="line"/>
      <point x="229" y="635" type="line"/>
      <point x="207" y="635" type="line"/>
      <point x="77" y="530" type="line"/>
    </contour>
    <contour>
      <point x="823" y="126" type="line"/>
      <point x="823" y="148" type="line"/>
      <point x="512" y="148" type="line"/>
      <point x="512" y="126" type="line"/>
    </contour>
    <contour>
      <point x="528" y="135" type="line"/>
      <point x="719" y="390" type="line"/>
      <point x="704" y="404" type="line"/>
      <point x="512" y="148" type="line"/>
    </contour>
    <contour>
      <point x="704" y="404" type="line"/>
      <point x="704" y="0" type="line"/>
      <point x="726" y="0" type="line"/>
      <point x="726" y="404" type="line"/>
    </contour>
  </outline>
</glyph>
<glyph name="onehalf" format="1">
  <advance width="868"/>
  <unicode hex="00BD"/>
  <outline>
    <component base="fraction" xOffset="138" yOffset="-94"/>
    <contour>
      <point x="513" y="23" type="line"/>
      <point x="513" y="2" type="line"/>
      <point x="826" y="2" type="line"/>
      <point x="826" y="23" type="line"/>
    </contour>
    <contour>
      <point x="699" y="142" type="curve" smooth="yes"/>
      <point x="752" y="189"/>
      <point x="801" y="227"/>
      <point x="801" y="298" type="curve" smooth="yes"/>
      <point x="801" y="369"/>
      <point x="752" y="415"/>
      <point x="680" y="415" type="curve" smooth="yes"/>
      <point x="617" y="415"/>
      <point x="573" y="384"/>
      <point x="542" y="329" type="curve"/>
      <point x="559" y="317" type="line"/>
      <point x="586" y="366"/>
      <point x="624" y="394"/>
      <point x="679" y="394" type="curve" smooth="yes"/>
      <point x="740" y="394"/>
      <point x="782" y="355"/>
      <point x="782" y="295" type="curve" smooth="yes"/>
      <point x="782" y="230"/>
      <point x="734" y="198"/>
      <point x="685" y="155" type="curve" smooth="yes"/>
      <point x="626" y="103"/>
      <point x="574" y="73"/>
      <point x="513" y="23" type="curve"/>
      <point x="527" y="11" type="line"/>
      <point x="588" y="59"/>
      <point x="641" y="90"/>
    </contour>
    <contour>
      <point x="91" y="513" type="line"/>
      <point x="207" y="608" type="line"/>
      <point x="207" y="225" type="line"/>
      <point x="229" y="225" type="line"/>
      <point x="229" y="635" type="line"/>
      <point x="207" y="635" type="line"/>
      <point x="77" y="530" type="line"/>
    </contour>
  </outline>
</glyph>
<glyph name="threequarters" format="1">
  <advance width="868"/>
  <unicode hex="00BE"/>
  <outline>
    <component base="fraction" xOffset="138" yOffset="-94"/>
    <contour>
      <point x="823" y="126" type="line"/>
      <point x="823" y="148" type="line"/>
      <point x="512" y="148" type="line"/>
      <point x="512" y="126" type="line"/>
    </contour>
    <contour>
      <point x="528" y="135" type="line"/>
      <point x="719" y="390" type="line"/>
      <point x="704" y="404" type="line"/>
      <point x="512" y="148" type="line"/>
    </contour>
    <contour>
      <point x="704" y="404" type="line"/>
      <point x="704" y="0" type="line"/>
      <point x="726" y="0" type="line"/>
      <point x="726" y="404" type="line"/>
    </contour>
    <contour>
      <point x="114" y="441" type="curve"/>
      <point x="114" y="424" type="line"/>
      <point x="209" y="426"/>
      <point x="290" y="446"/>
      <point x="290" y="529" type="curve" smooth="yes"/>
      <point x="290" y="600"/>
      <point x="236" y="638"/>
      <point x="161" y="638" type="curve" smooth="yes"/>
      <point x="115" y="638"/>
      <point x="73" y="621"/>
      <point x="45" y="585" type="curve"/>
      <point x="60" y="569" type="line"/>
      <point x="85" y="600"/>
      <point x="119" y="618"/>
      <point x="158" y="618" type="curve" smooth="yes"/>
      <point x="222" y="618"/>
      <point x="268" y="587"/>
      <point x="268" y="527" type="curve" smooth="yes"/>
      <point x="268" y="455"/>
      <point x="197" y="442"/>
    </contour>
    <contour>
      <point x="114" y="420" type="line"/>
      <point x="204" y="417"/>
      <point x="284" y="408"/>
      <point x="284" y="330" type="curve" smooth="yes"/>
      <point x="286" y="264"/>
      <point x="228" y="237"/>
      <point x="153" y="239" type="curve" smooth="yes"/>
      <point x="116" y="239"/>
      <point x="82" y="248"/>
      <point x="50" y="267" type="curve"/>
      <point x="37" y="251" type="line"/>
      <point x="72" y="229"/>
      <point x="110" y="218"/>
      <point x="151" y="218" type="curve" smooth="yes"/>
      <point x="240" y="215"/>
      <point x="307" y="253"/>
      <point x="305" y="333" type="curve" smooth="yes"/>
      <point x="305" y="421"/>
      <point x="215" y="432"/>
      <point x="114" y="435" type="curve"/>
    </contour>
  </outline>
</glyph>
<glyph name="questiondown" format="1">
  <advance width="394"/>
  <unicode hex="00BF"/>
  <outline>
    <component base="period" xScale="-1" yScale="-1" xOffset="403" yOffset="568"/>
    <contour>
      <point x="327" y="-106" type="line"/>
      <point x="300" y="-116"/>
      <point x="279" y="-122"/>
      <point x="250" y="-122" type="curve" smooth="yes"/>
      <point x="146" y="-122"/>
      <point x="74" y="-54"/>
      <point x="74" y="49" type="curve" smooth="yes"/>
      <point x="74" y="161"/>
      <point x="154" y="234"/>
      <point x="268" y="234" type="curve"/>
      <point x="268" y="255" type="line"/>
      <point x="142" y="255"/>
      <point x="56" y="172"/>
      <point x="56" y="47" type="curve" smooth="yes"/>
      <point x="56" y="-67"/>
      <point x="134" y="-142"/>
      <point x="248" y="-142" type="curve" smooth="yes"/>
      <point x="280" y="-142"/>
      <point x="304" y="-136"/>
      <point x="334" y="-126" type="curve"/>
    </contour>
    <contour>
      <point x="268" y="244" type="line"/>
      <point x="268" y="346" type="line"/>
      <point x="246" y="346" type="line"/>
      <point x="246" y="244" type="line"/>
    </contour>
  </outline>
</glyph>
<glyph name="AE" format="1">
  <advance width="850"/>
  <unicode hex="00C6"/>
  <outline>
    <contour>
      <point x="374" y="722" type="line"/>
      <point x="31" y="0" type="line"/>
      <point x="55" y="0" type="line"/>
      <point x="396" y="722" type="line"/>
    </contour>
    <contour>
      <point x="394" y="296" type="line"/>
      <point x="182" y="296" type="line"/>
      <point x="173" y="275" type="line"/>
      <point x="401" y="275" type="line"/>
    </contour>
    <contour>
      <point x="400" y="362" type="line"/>
      <point x="728" y="362" type="line"/>
      <point x="728" y="384" type="line"/>
      <point x="400" y="384" type="line"/>
    </contour>
    <contour>
      <point x="385" y="701" type="line"/>
      <point x="791" y="701" type="line"/>
      <point x="791" y="722" type="line"/>
      <point x="385" y="722" type="line"/>
    </contour>
    <contour>
      <point x="407" y="0" type="line"/>
      <point x="407" y="722" type="line"/>
      <point x="385" y="722" type="line"/>
      <point x="385" y="0" type="line"/>
    </contour>
    <contour>
      <point x="385" y="0" type="line"/>
      <point x="825" y="0" type="line"/>
      <point x="825" y="22" type="line"/>
      <point x="385" y="22" type="line"/>
    </contour>
  </outline>
</glyph>
<glyph name="Ocircumflex" format="1">
  <advance width="800"/>
  <unicode hex="00D4"/>
  <outline>
    <contour>
      <point x="104" y="358" type="curve"/>
      <point x="100" y="151"/>
      <point x="209" y="-7"/>
      <point x="404" y="-6" type="curve" smooth="yes"/>
      <point x="599" y="-6"/>
      <point x="703" y="155"/>
      <point x="703" y="364" type="curve" smooth="yes"/>
      <point x="703" y="570"/>
      <point x="597" y="728"/>
      <point x="404" y="728" type="curve" smooth="yes"/>
      <point x="208" y="729"/>
      <point x="100" y="568"/>
    </contour>
    <contour>
      <point x="125" y="360" type="curve" smooth="yes"/>
      <point x="125" y="555"/>
      <point x="220" y="707"/>
      <point x="401" y="707" type="curve" smooth="yes"/>
      <point x="584" y="709"/>
      <point x="685" y="559"/>
      <point x="682" y="363" type="curve"/>
      <point x="682" y="168"/>
      <point x="588" y="15"/>
      <point x="407" y="15" type="curve" smooth="yes"/>
      <point x="224" y="15"/>
      <point x="125" y="165"/>
    </contour>
    <contour>
      <point x="391" y="968" type="line"/>
      <point x="511" y="797" type="line"/>
      <point x="533" y="797" type="line"/>
      <point x="413" y="968" type="line"/>
    </contour>
    <contour>
      <point x="413" y="968" type="line"/>
      <point x="391" y="968" type="line"/>
      <point x="267" y="787" type="line"/>
      <point x="289" y="787" type="line"/>
    </contour>
  </outline>
</glyph>
<glyph name="Otilde" format="1">
  <advance width="800"/>
  <unicode hex="00D5"/>
  <outline>
    <contour>
      <point x="104" y="358" type="curve"/>
      <point x="100" y="151"/>
      <point x="209" y="-7"/>
      <point x="404" y="-6" type="curve" smooth="yes"/>
      <point x="599" y="-6"/>
      <point x="703" y="155"/>
      <point x="703" y="364" type="curve" smooth="yes"/>
      <point x="703" y="570"/>
      <point x="597" y="728"/>
      <point x="404" y="728" type="curve" smooth="yes"/>
      <point x="208" y="729"/>
      <point x="100" y="568"/>
    </contour>
    <contour>
      <point x="125" y="360" type="curve" smooth="yes"/>
      <point x="125" y="555"/>
      <point x="220" y="707"/>
      <point x="401" y="707" type="curve" smooth="yes"/>
      <point x="584" y="709"/>
      <point x="685" y="559"/>
      <point x="682" y="363" type="curve"/>
      <point x="682" y="168"/>
      <point x="588" y="15"/>
      <point x="407" y="15" type="curve" smooth="yes"/>
      <point x="224" y="15"/>
      <point x="125" y="165"/>
    </contour>
    <contour>
      <point x="544" y="964" type="line"/>
      <point x="544" y="917"/>
      <point x="528" y="880"/>
      <point x="486" y="880" type="curve" smooth="yes"/>
      <point x="452" y="880"/>
      <point x="433" y="897"/>
      <point x="407" y="919" type="curve" smooth="yes"/>
      <point x="380" y="943"/>
      <point x="361" y="964"/>
      <point x="325" y="964" type="curve" smooth="yes"/>
      <point x="266" y="964"/>
      <point x="235" y="920"/>
      <point x="235" y="858" type="curve"/>
      <point x="255" y="858" type="line"/>
      <point x="255" y="908"/>
      <point x="278" y="944"/>
      <point x="324" y="944" type="curve" smooth="yes"/>
      <point x="352" y="944"/>
      <point x="366" y="928"/>
      <point x="387" y="909" type="curve" smooth="yes"/>
      <point x="419" y="882"/>
      <point x="442" y="860"/>
      <point x="484" y="859" type="curve" smooth="yes"/>
      <point x="540" y="859"/>
      <point x="565" y="904"/>
      <point x="565" y="964" type="curve"/>
    </contour>
  </outline>
</glyph>
<glyph name="multiply" format="1">
  <advance width="400"/>
  <unicode hex="00D7"/>
  <outline>
    <contour>
      <point x="46" y="444" type="line"/>
      <point x="335" y="155" type="line"/>
      <point x="351" y="170" type="line"/>
      <point x="61" y="460" type="line"/>
    </contour>
    <contour>
      <point x="354" y="442" type="line"/>
      <point x="338" y="457" type="line"/>
      <point x="54" y="173" type="line"/>
      <point x="69" y="157" type="line"/>
    </contour>
  </outline>
</glyph>
<glyph name="idieresis" format="1">
  <advance width="241"/>
  <unicode hex="00EF"/>
  <outline>
    <component base="dieresis" xOffset="-32"/>
    <contour>
      <point x="110" y="0" type="line"/>
      <point x="133" y="0" type="line"/>
      <point x="133" y="533" type="line"/>
      <point x="110" y="533" type="line"/>
    </contour>
  </outline>
</glyph>
<glyph name="divide" format="1">
  <advance width="533"/>
  <unicode hex="00F7"/>
  <outline>
    <component base="period" xOffset="118" yOffset="62"/>
    <component base="period" xOffset="118" yOffset="395"/>
    <contour>
      <point x="495" y="243" type="line"/>
      <point x="495" y="265" type="line"/>
      <point x="40" y="265" type="line"/>
      <point x="40" y="243" type="line"/>
    </contour>
  </outline>
</glyph>
<glyph name="cacute" format="1">
  <advance width="545"/>
  <unicode hex="0107"/>
  <outline>
    <contour>
      <point x="97" y="267" type="curve" smooth="yes"/>
      <point x="97" y="120"/>
      <point x="166" y="-8"/>
      <point x="319" y="-8" type="curve" smooth="yes"/>
      <point x="384" y="-8"/>
      <point x="444" y="22"/>
      <point x="484" y="74" type="curve"/>
      <point x="469" y="89" type="line"/>
      <point x="433" y="42"/>
      <point x="378" y="15"/>
      <point x="321" y="15" type="curve" smooth="yes"/>
      <point x="180" y="15"/>
      <point x="119" y="130"/>
      <point x="119" y="267" type="curve" smooth="yes"/>
      <point x="119" y="402"/>
      <point x="185" y="519"/>
      <point x="327" y="519" type="curve" smooth="yes"/>
      <point x="378" y="519"/>
      <point x="422" y="501"/>
      <point x="459" y="466" type="curve"/>
      <point x="471" y="483" type="line"/>
      <point x="430" y="521"/>
      <point x="382" y="540"/>
      <point x="327" y="540" type="curve" smooth="yes"/>
      <point x="174" y="540"/>
      <point x="97" y="417"/>
    </contour>
    <contour>
      <point x="203" y="644" type="line"/>
      <point x="188" y="656" type="line"/>
      <point x="344" y="846" type="line"/>
      <point x="358" y="835" type="line"/>
    </contour>
  </outline>
</glyph>
<glyph name="Lacute" format="1">
  <advance width="618"/>
  <unicode hex="0139"/>
  <outline>
    <component base="acute" xOffset="202" yOffset="130"/>
    <contour>
      <point x="141" y="0" type="line"/>
      <point x="141" y="722" type="line"/>
      <point x="119" y="722" type="line"/>
      <point x="119" y="0" type="line"/>
    </contour>
    <contour>
      <point x="129" y="0" type="line"/>
      <point x="551" y="0" type="line"/>
      <point x="551" y="22" type="line"/>
      <point x="129" y="22" type="line"/>
    </contour>
  </outline>
</glyph>
<glyph name="Nacute" format="1">
  <advance width="800"/>
  <unicode hex="0143"/>
  <outline>
    <component base="acute" xOffset="294" yOffset="132"/>
    <contour>
      <point x="684" y="0" type="line"/>
      <point x="148" y="722" type="line"/>
      <point x="122" y="722" type="line"/>
      <point x="658" y="0" type="line"/>
    </contour>
    <contour>
      <point x="662" y="722" type="line"/>
      <point x="662" y="0" type="line"/>
      <point x="684" y="0" type="line"/>
      <point x="684" y="722" type="line"/>
    </contour>
    <contour>
      <point x="144" y="722" type="line"/>
      <point x="122" y="722" type="line"/>
      <point x="122" y="0" type="line"/>
      <point x="144" y="0" type="line"/>
    </contour>
  </outline>
</glyph>
<glyph name="nacute" format="1">
  <advance width="618"/>
  <unicode hex="0144"/>
  <outline>
    <contour>
      <point x="134" y="398" type="line"/>
      <point x="173" y="462"/>
      <point x="237" y="520"/>
      <point x="334" y="520" type="curve" smooth="yes"/>
      <point x="440" y="520"/>
      <point x="490" y="451"/>
      <point x="490" y="339" type="curve" smooth="yes"/>
      <point x="490" y="0" type="line"/>
      <point x="512" y="0" type="line"/>
      <point x="512" y="344" type="line" smooth="yes"/>
      <point x="512" y="467"/>
      <point x="456" y="543"/>
      <point x="338" y="543" type="curve" smooth="yes"/>
      <point x="235" y="543"/>
      <point x="163" y="489"/>
      <point x="125" y="417" type="curve"/>
    </contour>
    <contour>
      <point x="140" y="533" type="line"/>
      <point x="118" y="533" type="line"/>
      <point x="118" y="0" type="line"/>
      <point x="140" y="0" type="line"/>
    </contour>
    <contour>
      <point x="240" y="644" type="line"/>
      <point x="225" y="656" type="line"/>
      <point x="381" y="846" type="line"/>
      <point x="395" y="835" type="line"/>
    </contour>
  </outline>
</glyph>
<glyph name="omacron" format="1">
  <advance width="644"/>
  <unicode hex="014D"/>
  <outline>
    <contour>
      <point x="87" y="270" type="curve" smooth="yes"/>
      <point x="87" y="114"/>
      <point x="167" y="-6"/>
      <point x="313" y="-6" type="curve" smooth="yes"/>
      <point x="460" y="-6"/>
      <point x="542" y="114"/>
      <point x="542" y="270" type="curve" smooth="yes"/>
      <point x="542" y="423"/>
      <point x="458" y="539"/>
      <point x="312" y="539" type="curve" smooth="yes"/>
      <point x="168" y="539"/>
      <point x="87" y="423"/>
    </contour>
    <contour>
      <point x="108" y="271" type="curve" smooth="yes"/>
      <point x="108" y="410"/>
      <point x="180" y="518"/>
      <point x="310" y="518" type="curve" smooth="yes"/>
      <point x="444" y="518"/>
      <point x="521" y="410"/>
      <point x="521" y="268" type="curve" smooth="yes"/>
      <point x="521" y="127"/>
      <point x="449" y="17"/>
      <point x="317" y="17" type="curve" smooth="yes"/>
      <point x="182" y="17"/>
      <point x="108" y="128"/>
    </contour>
  </outline>
</glyph>
<glyph name="OE" format="1">
  <advance width="927"/>
  <unicode hex="0152"/>
  <outline>
    <contour>
      <point x="64" y="344" type="curve" smooth="yes"/>
      <point x="64" y="136"/>
      <point x="167" y="-9"/>
      <point x="364" y="-9" type="curve" smooth="yes"/>
      <point x="411" y="-9"/>
      <point x="443" y="-5"/>
      <point x="489" y="4" type="curve"/>
      <point x="482" y="23" type="line"/>
      <point x="439" y="15"/>
      <point x="409" y="12"/>
      <point x="366" y="12" type="curve" smooth="yes"/>
      <point x="182" y="12"/>
      <point x="86" y="150"/>
      <point x="86" y="345" type="curve" smooth="yes"/>
      <point x="86" y="557"/>
      <point x="185" y="709"/>
      <point x="383" y="709" type="curve" smooth="yes"/>
      <point x="421" y="709"/>
      <point x="448" y="705"/>
      <point x="485" y="696" type="curve"/>
      <point x="492" y="717" type="line"/>
      <point x="453" y="726"/>
      <point x="425" y="730"/>
      <point x="385" y="730" type="curve" smooth="yes"/>
      <point x="173" y="730"/>
      <point x="64" y="570"/>
    </contour>
    <contour>
      <point x="482" y="362" type="line"/>
      <point x="810" y="362" type="line"/>
      <point x="810" y="384" type="line"/>
      <point x="482" y="384" type="line"/>
    </contour>
    <contour>
      <point x="467" y="701" type="line"/>
      <point x="873" y="701" type="line"/>
      <point x="873" y="722" type="line"/>
      <point x="467" y="722" type="line"/>
    </contour>
    <contour>
      <point x="489" y="0" type="line"/>
      <point x="489" y="722" type="line"/>
      <point x="467" y="722" type="line"/>
      <point x="467" y="0" type="line"/>
    </contour>
    <contour>
      <point x="467" y="0" type="line"/>
      <point x="907" y="0" type="line"/>
      <point x="907" y="22" type="line"/>
      <point x="467" y="22" type="line"/>
    </contour>
  </outline>
</glyph>
<glyph name="oe" format="1">
  <advance width="972"/>
  <unicode hex="0153"/>
  <outline>
    <contour>
      <point x="87" y="270" type="curve" smooth="yes"/>
      <point x="87" y="114"/>
      <point x="167" y="-6"/>
      <point x="313" y="-6" type="curve" smooth="yes"/>
      <point x="460" y="-6"/>
      <point x="542" y="114"/>
      <point x="542" y="270" type="curve" smooth="yes"/>
      <point x="542" y="423"/>
      <point x="458" y="539"/>
      <point x="312" y="539" type="curve" smooth="yes"/>
      <point x="168" y="539"/>
      <point x="87" y="423"/>
    </contour>
    <contour>
      <point x="108" y="271" type="curve" smooth="yes"/>
      <point x="108" y="410"/>
      <point x="180" y="518"/>
      <point x="310" y="518" type="curve" smooth="yes"/>
      <point x="444" y="518"/>
      <point x="521" y="410"/>
      <point x="521" y="268" type="curve" smooth="yes"/>
      <point x="521" y="127"/>
      <point x="449" y="17"/>
      <point x="317" y="17" type="curve" smooth="yes"/>
      <point x="182" y="17"/>
      <point x="108" y="128"/>
    </contour>
    <contour>
      <point x="930" y="274" type="line"/>
      <point x="930" y="299" type="line" smooth="yes"/>
      <point x="930" y="438"/>
      <point x="864" y="544"/>
      <point x="736" y="544" type="curve" smooth="yes"/>
      <point x="597" y="544"/>
      <point x="525" y="430"/>
      <point x="525" y="281" type="curve" smooth="yes"/>
      <point x="525" y="117"/>
      <point x="605" y="-10"/>
      <point x="758" y="-10" type="curve" smooth="yes"/>
      <point x="828" y="-10"/>
      <point x="879" y="14"/>
      <point x="928" y="64" type="curve"/>
      <point x="914" y="79" type="line"/>
      <point x="870" y="35"/>
      <point x="825" y="13"/>
      <point x="763" y="13" type="curve" smooth="yes"/>
      <point x="625" y="13"/>
      <point x="553" y="127"/>
      <point x="547" y="275" type="curve"/>
      <point x="549" y="413"/>
      <point x="606" y="522"/>
      <point x="732" y="522" type="curve" smooth="yes"/>
      <point x="848" y="522"/>
      <point x="909" y="429"/>
      <point x="909" y="305" type="curve" smooth="yes"/>
      <point x="909" y="274" type="line"/>
    </contour>
    <contour>
      <point x="920" y="274" type="line"/>
      <point x="920" y="293" type="line"/>
      <point x="537" y="293" type="line"/>
      <point x="537" y="274" type="line"/>
    </contour>
  </outline>
</glyph>
<glyph name="Rcommaaccent" format="1">
  <advance width="638"/>
  <unicode hex="0156"/>
  <outline>
    <component base="comma" xOffset="80" yOffset="-81"/>
    <contour>
      <point x="295" y="354" type="line"/>
      <point x="581" y="0" type="line"/>
      <point x="608" y="0" type="line"/>
      <point x="319" y="359" type="line"/>
    </contour>
    <contour>
      <point x="91" y="722" type="line"/>
      <point x="91" y="0" type="line"/>
      <point x="113" y="0" type="line"/>
      <point x="113" y="722" type="line"/>
    </contour>
    <contour>
      <point x="104" y="701" type="line"/>
      <point x="259" y="701" type="line" smooth="yes"/>
      <point x="378" y="701"/>
      <point x="470" y="645"/>
      <point x="470" y="535" type="curve" smooth="yes"/>
      <point x="470" y="420"/>
      <point x="375" y="361"/>
      <point x="251" y="361" type="curve" smooth="yes"/>
      <point x="104" y="361" type="line"/>
      <point x="104" y="339" type="line"/>
      <point x="248" y="339" type="line" smooth="yes"/>
      <point x="387" y="339"/>
      <point x="492" y="408"/>
      <point x="492" y="538" type="curve" smooth="yes"/>
      <point x="492" y="659"/>
      <point x="393" y="722"/>
      <point x="263" y="722" type="curve" smooth="yes"/>
      <point x="104" y="722" type="line"/>
    </contour>
  </outline>
</glyph>
<glyph name="rcaron" format="1">
  <advance width="390"/>
  <unicode hex="0159"/>
  <outline>
    <component base="caron" xOffset="60" yOffset="49"/>
    <contour>
      <point x="140" y="533" type="line"/>
      <point x="118" y="533" type="line"/>
      <point x="118" y="0" type="line"/>
      <point x="140" y="0" type="line"/>
    </contour>
    <contour>
      <point x="134" y="412" type="line"/>
      <point x="178" y="491"/>
      <point x="247" y="524"/>
      <point x="338" y="524" type="curve"/>
      <point x="342" y="547" type="line"/>
      <point x="244" y="547"/>
      <point x="169" y="511"/>
      <point x="125" y="424" type="curve"/>
    </contour>
  </outline>
</glyph>
<glyph name="Scedilla" format="1">
  <advance width="508"/>
  <unicode hex="015E"/>
  <outline>
    <component base="cedilla" xOffset="90" yOffset="-3"/>
    <contour>
      <point x="49" y="48" type="line"/>
      <point x="114" y="9"/>
      <point x="167" y="-10"/>
      <point x="243" y="-10" type="curve" smooth="yes"/>
      <point x="372" y="-10"/>
      <point x="470" y="48"/>
      <point x="470" y="168" type="curve" smooth="yes"/>
      <point x="470" y="282"/>
      <point x="380" y="330"/>
      <point x="274" y="381" type="curve" smooth="yes"/>
      <point x="180" y="426"/>
      <point x="96" y="462"/>
      <point x="96" y="563" type="curve" smooth="yes"/>
      <point x="96" y="656"/>
      <point x="163" y="711"/>
      <point x="260" y="711" type="curve" smooth="yes"/>
      <point x="332" y="711"/>
      <point x="382" y="693"/>
      <point x="444" y="657" type="curve"/>
      <point x="454" y="673" type="line"/>
      <point x="389" y="711"/>
      <point x="337" y="732"/>
      <point x="261" y="732" type="curve" smooth="yes"/>
      <point x="151" y="732"/>
      <point x="74" y="670"/>
      <point x="74" y="563" type="curve" smooth="yes"/>
      <point x="74" y="460"/>
      <point x="155" y="416"/>
      <point x="251" y="369" type="curve" smooth="yes"/>
      <point x="355" y="320"/>
      <point x="448" y="280"/>
      <point x="448" y="169" type="curve" smooth="yes"/>
      <point x="448" y="63"/>
      <point x="361" y="11"/>
      <point x="246" y="11" type="curve" smooth="yes"/>
      <point x="173" y="11"/>
      <point x="122" y="30"/>
      <point x="61" y="69" type="curve"/>
    </contour>
  </outline>
</glyph>
<glyph name="tcaron" format="1">
  <advance width="497"/>
  <unicode hex="0165"/>
  <outline>
    <component base="comma" xOffset="144" yOffset="651"/>
    <contour>
      <point x="43" y="497" type="line"/>
      <point x="43" y="476" type="line"/>
      <point x="434" y="476" type="line"/>
      <point x="434" y="497" type="line"/>
    </contour>
    <contour>
      <point x="186" y="149" type="line" smooth="yes"/>
      <point x="186" y="59"/>
      <point x="227" y="-6"/>
      <point x="310" y="-6" type="curve" smooth="yes"/>
      <point x="352" y="-6"/>
      <point x="381" y="3"/>
      <point x="419" y="22" type="curve"/>
      <point x="410" y="39" type="line"/>
      <point x="377" y="21"/>
      <point x="352" y="13"/>
      <point x="314" y="13" type="curve" smooth="yes"/>
      <point x="241" y="13"/>
      <point x="207" y="71"/>
      <point x="207" y="150" type="curve" smooth="yes"/>
      <point x="207" y="651" type="line"/>
      <point x="186" y="638" type="line"/>
    </contour>
  </outline>
</glyph>
<glyph name="uring" format="1">
  <advance width="618"/>
  <unicode hex="016F"/>
  <outline>
    <component base="ring" xOffset="196" yOffset="21"/>
    <contour>
      <point x="483" y="0" type="line"/>
      <point x="505" y="0" type="line"/>
      <point x="505" y="533" type="line"/>
      <point x="483" y="533" type="line"/>
    </contour>
    <contour>
      <point x="489" y="121" type="line"/>
      <point x="456" y="45"/>
      <point x="395" y="11"/>
      <point x="312" y="11" type="curve" smooth="yes"/>
      <point x="208" y="11"/>
      <point x="140" y="81"/>
      <point x="140" y="186" type="curve" smooth="yes"/>
      <point x="140" y="533" type="line"/>
      <point x="118" y="533" type="line"/>
      <point x="118" y="189" type="line" smooth="yes"/>
      <point x="118" y="70"/>
      <point x="191" y="-12"/>
      <point x="308" y="-12" type="curve" smooth="yes"/>
      <point x="399" y="-12"/>
      <point x="466" y="27"/>
      <point x="500" y="110" type="curve"/>
    </contour>
  </outline>
</glyph>
<glyph name="Ydieresis" format="1">
  <advance width="509"/>
  <unicode hex="0178"/>
  <outline>
    <component base="dieresis" xOffset="99" yOffset="195"/>
    <contour>
      <point x="258" y="337" type="line"/>
      <point x="23" y="722" type="line"/>
      <point x="-1" y="722" type="line"/>
      <point x="234" y="337" type="line"/>
    </contour>
    <contour>
      <point x="482" y="722" type="line"/>
      <point x="234" y="337" type="line"/>
      <point x="258" y="337" type="line"/>
      <point x="506" y="722" type="line"/>
    </contour>
    <contour>
      <point x="258" y="0" type="line"/>
      <point x="258" y="346" type="line"/>
      <point x="234" y="346" type="line"/>
      <point x="234" y="0" type="line"/>
    </contour>
  </outline>
</glyph>
<glyph name="zdotaccent" format="1">
  <advance width="581"/>
  <unicode hex="017C"/>
  <outline>
    <contour>
      <point x="489" y="511" type="line"/>
      <point x="489" y="533" type="line"/>
      <point x="105" y="533" type="line"/>
      <point x="105" y="511" type="line"/>
    </contour>
    <contour>
      <point x="473" y="523" type="line"/>
      <point x="35" y="22" type="line"/>
      <point x="51" y="10" type="line"/>
      <point x="489" y="511" type="line"/>
    </contour>
    <contour>
      <point x="35" y="22" type="line"/>
      <point x="35" y="0" type="line"/>
      <point x="511" y="0" type="line"/>
      <point x="511" y="22" type="line"/>
    </contour>
  </outline>
</glyph>
<glyph name="Zcaron" format="1">
  <advance width="676"/>
  <unicode hex="017D"/>
  <outline>
    <component base="caron" xOffset="204" yOffset="247"/>
    <contour>
      <point x="601" y="712" type="line"/>
      <point x="35" y="22" type="line"/>
      <point x="51" y="10" type="line"/>
      <point x="617" y="700" type="line"/>
    </contour>
    <contour>
      <point x="35" y="22" type="line"/>
      <point x="35" y="0" type="line"/>
      <point x="639" y="0" type="line"/>
      <point x="639" y="22" type="line"/>
    </contour>
    <contour>
      <point x="617" y="700" type="line"/>
      <point x="617" y="722" type="line"/>
      <point x="105" y="722" type="line"/>
      <point x="105" y="700" type="line"/>
    </contour>
  </outline>
</glyph>
<glyph name="zcaron" format="1">
  <advance width="532"/>
  <unicode hex="017E"/>
  <outline>
    <component base="caron" xOffset="124" yOffset="31"/>
    <contour>
      <point x="489" y="511" type="line"/>
      <point x="489" y="533" type="line"/>
      <point x="105" y="533" type="line"/>
      <point x="105" y="511" type="line"/>
    </contour>
    <contour>
      <point x="473" y="523" type="line"/>
      <point x="35" y="22" type="line"/>
      <point x="51" y="10" type="line"/>
      <point x="489" y="511" type="line"/>
    </contour>
    <contour>
      <point x="35" y="22" type="line"/>
      <point x="35" y="0" type="line"/>
      <point x="511" y="0" type="line"/>
      <point x="511" y="22" type="line"/>
    </contour>
  </outline>
</glyph>
<glyph name="uni021A" format="1">
  <advance width="692"/>
  <unicode hex="021A"/>
  <outline>
    <contour>
      <point x="325" y="710" type="line"/>
      <point x="325" y="0" type="line"/>
      <point x="347" y="0" type="line"/>
      <point x="347" y="710" type="line"/>
    </contour>
    <contour>
      <point x="646" y="700" type="line"/>
      <point x="646" y="722" type="line"/>
      <point x="43" y="722" type="line"/>
      <point x="43" y="700" type="line"/>
    </contour>
  </outline>
</glyph>
<glyph name="circumflex" format="1">
  <advance width="355"/>
  <unicode hex="02C6"/>
  <outline>
    <contour>
      <point x="163" y="739" type="line"/>
      <point x="288" y="608" type="line"/>
      <point x="310" y="608" type="line"/>
      <point x="191" y="739" type="line"/>
    </contour>
    <contour>
      <point x="191" y="739" type="line"/>
      <point x="163" y="739" type="line"/>
      <point x="44" y="608" type="line"/>
      <point x="66" y="608" type="line"/>
    </contour>
  </outline>
</glyph>
<glyph name="caron" format="1">
  <advance width="336"/>
  <unicode hex="02C7"/>
  <outline>
    <contour>
      <point x="153" y="555" type="line"/>
      <point x="181" y="555" type="line"/>
      <point x="296" y="690" type="line"/>
      <point x="274" y="690" type="line"/>
    </contour>
    <contour>
      <point x="181" y="555" type="line"/>
      <point x="61" y="690" type="line"/>
      <point x="39" y="690" type="line"/>
      <point x="153" y="555" type="line"/>
    </contour>
  </outline>
</glyph>
<glyph name="breve" format="1">
  <advance width="302"/>
  <unicode hex="02D8"/>
  <outline>
    <contour>
      <point x="266" y="953" type="line"/>
      <point x="266" y="887"/>
      <point x="219" y="853"/>
      <point x="150" y="853" type="curve" smooth="yes"/>
      <point x="83" y="853"/>
      <point x="39" y="889"/>
      <point x="39" y="954" type="curve"/>
      <point x="18" y="954" type="line"/>
      <point x="18" y="875"/>
      <point x="68" y="830"/>
      <point x="148" y="830" type="curve" smooth="yes"/>
      <point x="232" y="830"/>
      <point x="287" y="873"/>
      <point x="287" y="953" type="curve"/>
    </contour>
  </outline>
</glyph>
<glyph name="ring" format="1">
  <advance width="246"/>
  <unicode hex="02DA"/>
  <outline>
    <contour>
      <point x="46" y="625" type="curve" smooth="yes"/>
      <point x="46" y="580"/>
      <point x="76" y="549"/>
      <point x="121" y="549" type="curve" smooth="yes"/>
      <point x="166" y="549"/>
      <point x="196" y="580"/>
      <point x="196" y="625" type="curve" smooth="yes"/>
      <point x="196" y="670"/>
      <point x="164" y="701"/>
      <point x="119" y="701" type="curve" smooth="yes"/>
      <point x="75" y="701"/>
      <point x="46" y="669"/>
    </contour>
    <contour>
      <point x="68" y="625" type="curve" smooth="yes"/>
      <point x="68" y="657"/>
      <point x="88" y="680"/>
      <point x="119" y="680" type="curve" smooth="yes"/>
      <point x="152" y="680"/>
      <point x="175" y="658"/>
      <point x="175" y="625" type="curve" smooth="yes"/>
      <point x="175" y="593"/>
      <point x="153" y="571"/>
      <point x="121" y="571" type="curve" smooth="yes"/>
      <point x="89" y="571"/>
      <point x="68" y="593"/>
    </contour>
  </outline>
</glyph>
<glyph name="ogonek" format="1">
  <advance width="250"/>
  <unicode hex="02DB"/>
  <outline>
    <contour>
      <point x="156" y="0" type="curve"/>
      <point x="147" y="15" type="line"/>
      <point x="91" y="-12"/>
      <point x="40" y="-38"/>
      <point x="40" y="-99" type="curve" smooth="yes"/>
      <point x="40" y="-155"/>
      <point x="73" y="-193"/>
      <point x="127" y="-193" type="curve" smooth="yes"/>
      <point x="158" y="-193"/>
      <point x="179" y="-184"/>
      <point x="205" y="-169" type="curve"/>
      <point x="194" y="-150" type="line"/>
      <point x="172" y="-163"/>
      <point x="154" y="-170"/>
      <point x="129" y="-170" type="curve" smooth="yes"/>
      <point x="88" y="-170"/>
      <point x="63" y="-141"/>
      <point x="63" y="-99" type="curve" smooth="yes"/>
      <point x="63" y="-45"/>
      <point x="108" y="-27"/>
    </contour>
  </outline>
</glyph>
<glyph name="hungarumlaut" format="1">
  <advance width="290"/>
  <unicode hex="02DD"/>
  <outline>
    <contour>
      <point x="294" y="690" type="line"/>
      <point x="263" y="690" type="line"/>
      <point x="173" y="556" type="line"/>
      <point x="197" y="556" type="line"/>
    </contour>
    <contour>
      <point x="121" y="690" type="line"/>
      <point x="90" y="690" type="line"/>
      <point x="0" y="556" type="line"/>
      <point x="24" y="556" type="line"/>
    </contour>
  </outline>
</glyph>
<glyph name="candrabindudeva" format="1">
  <advance width="0"/>
  <unicode hex="0901"/>
  <outline>
    <component base="nuktadeva" xOffset="356" yOffset="961"/>
    <contour>
      <point x="27" y="881" type="line"/>
      <point x="27" y="787"/>
      <point x="-34" y="731"/>
      <point x="-129" y="731" type="curve" smooth="yes"/>
      <point x="-223" y="731"/>
      <point x="-282" y="788"/>
      <point x="-282" y="881" type="curve"/>
      <point x="-303" y="881" type="line"/>
      <point x="-303" y="775"/>
      <point x="-237" y="708"/>
      <point x="-131" y="708" type="curve" smooth="yes"/>
      <point x="-22" y="708"/>
      <point x="48" y="773"/>
      <point x="48" y="881" type="curve"/>
    </contour>
  </outline>
</glyph>
<glyph name="iideva" format="1">
  <advance width="566"/>
  <unicode hex="0908"/>
  <outline>
    <contour>
      <point x="559" y="999" type="curve"/>
      <point x="568" y="1016" type="line"/>
      <point x="521" y="1041"/>
      <point x="482" y="1052"/>
      <point x="429" y="1052" type="curve" smooth="yes"/>
      <point x="330" y="1052"/>
      <point x="269" y="985"/>
      <point x="269" y="885" type="curve" smooth="yes"/>
      <point x="269" y="777"/>
      <point x="329" y="701"/>
      <point x="433" y="701" type="curve"/>
      <point x="433" y="722" type="line"/>
      <point x="341" y="722"/>
      <point x="290" y="791"/>
      <point x="291" y="887" type="curve" smooth="yes"/>
      <point x="292" y="973"/>
      <point x="343" y="1032"/>
      <point x="427" y="1032" type="curve" smooth="yes"/>
      <point x="478" y="1032"/>
      <point x="514" y="1022"/>
    </contour>
    <contour>
      <point x="565" y="700" type="line"/>
      <point x="565" y="722" type="line"/>
      <point x="-12" y="722" type="line"/>
      <point x="-12" y="700" type="line"/>
    </contour>
    <contour>
      <point x="151" y="289" type="line"/>
      <point x="102" y="326"/>
      <point x="69" y="354"/>
      <point x="69" y="415" type="curve" smooth="yes"/>
      <point x="69" y="492"/>
      <point x="126" y="523"/>
      <point x="210" y="523" type="curve" smooth="yes"/>
      <point x="407" y="523" type="line"/>
      <point x="407" y="543" type="line"/>
      <point x="213" y="543" type="line" smooth="yes"/>
      <point x="115" y="543"/>
      <point x="47" y="507"/>
      <point x="47" y="417" type="curve" smooth="yes"/>
      <point x="47" y="344"/>
      <point x="83" y="307"/>
      <point x="145" y="267" type="curve"/>
    </contour>
    <contour>
      <point x="102" y="145" type="line"/>
      <point x="341" y="-144" type="line"/>
      <point x="362" y="-126" type="line"/>
      <point x="117" y="158" type="line"/>
    </contour>
    <contour>
      <point x="395" y="711" type="line"/>
      <point x="395" y="523" type="line"/>
      <point x="417" y="523" type="line"/>
      <point x="417" y="711" type="line"/>
    </contour>
    <contour>
      <point x="145" y="267" type="line"/>
      <point x="324" y="322"/>
      <point x="486" y="344"/>
      <point x="486" y="202" type="curve" smooth="yes"/>
      <point x="486" y="88"/>
      <point x="379" y="50"/>
      <point x="249" y="50" type="curve" smooth="yes"/>
      <point x="180" y="50"/>
      <point x="103" y="59"/>
      <point x="103" y="118" type="curve" smooth="yes"/>
      <point x="103" y="129"/>
      <point x="107" y="138"/>
      <point x="117" y="138" type="curve"/>
      <point x="117" y="158" type="line"/>
      <point x="94" y="158"/>
      <point x="81" y="140"/>
      <point x="81" y="115" type="curve" smooth="yes"/>
      <point x="81" y="47"/>
      <point x="166" y="29"/>
      <point x="245" y="29" type="curve" smooth="yes"/>
      <point x="390" y="29"/>
      <point x="507" y="78"/>
      <point x="507" y="207" type="curve" smooth="yes"/>
      <point x="505" y="355"/>
      <point x="338" y="346"/>
      <point x="151" y="289" type="curve"/>
    </contour>
  </outline>
</glyph>
<glyph name="udeva" format="1">
  <advance width="524"/>
  <unicode hex="0909"/>
  <outline>
    <contour>
      <point x="293" y="700" type="line"/>
      <point x="293" y="722" type="line"/>
      <point x="-12" y="722" type="line"/>
      <point x="-12" y="700" type="line"/>
    </contour>
    <contour>
      <point x="184" y="357" type="line"/>
      <point x="318" y="357"/>
      <point x="437" y="304"/>
      <point x="439" y="183" type="curve" smooth="yes"/>
      <point x="441" y="76"/>
      <point x="353" y="7"/>
      <point x="241" y="11" type="curve" smooth="yes"/>
      <point x="173" y="11"/>
      <point x="108" y="42"/>
      <point x="64" y="94" type="curve"/>
      <point x="49" y="81" type="line"/>
      <point x="95" y="23"/>
      <point x="165" y="-10"/>
      <point x="239" y="-10" type="curve" smooth="yes"/>
      <point x="364" y="-15"/>
      <point x="462" y="65"/>
      <point x="460" y="186" type="curve" smooth="yes"/>
      <point x="458" y="317"/>
      <point x="329" y="374"/>
      <point x="184" y="374" type="curve"/>
    </contour>
    <contour>
      <point x="184" y="378" type="curve"/>
      <point x="184" y="360" type="line"/>
      <point x="321" y="360"/>
      <point x="440" y="419"/>
      <point x="440" y="542" type="curve" smooth="yes"/>
      <point x="440" y="648"/>
      <point x="360" y="720"/>
      <point x="252" y="720" type="curve"/>
      <point x="249" y="700" type="line"/>
      <point x="346" y="700"/>
      <point x="419" y="635"/>
      <point x="418" y="540" type="curve" smooth="yes"/>
      <point x="417" y="429"/>
      <point x="308" y="378"/>
    </contour>
    <contour>
      <point x="537" y="700" type="line"/>
      <point x="537" y="722" type="line"/>
      <point x="241" y="722" type="line"/>
      <point x="241" y="700" type="line"/>
    </contour>
  </outline>
</glyph>
<glyph name="rvocalicdeva" format="1">
  <advance width="902"/>
  <unicode hex="090B"/>
  <outline>
    <contour>
      <point x="604" y="511" type="line"/>
      <point x="708" y="429"/>
      <point x="799" y="371"/>
      <point x="799" y="240" type="curve" smooth="yes"/>
      <point x="799" y="125"/>
      <point x="722" y="52"/>
      <point x="603" y="52" type="curve"/>
      <point x="605" y="33" type="line"/>
      <point x="735" y="33"/>
      <point x="819" y="116"/>
      <point x="819" y="243" type="curve" smooth="yes"/>
      <point x="819" y="378"/>
      <point x="727" y="439"/>
      <point x="620" y="523" type="curve"/>
    </contour>
    <contour>
      <point x="441" y="387" type="curve"/>
      <point x="436" y="367" type="line"/>
      <point x="462" y="360"/>
      <point x="480" y="356"/>
      <point x="506" y="356" type="curve" smooth="yes"/>
      <point x="635" y="356"/>
      <point x="734" y="396"/>
      <point x="734" y="498" type="curve" smooth="yes"/>
      <point x="734" y="536"/>
      <point x="713" y="561"/>
      <point x="676" y="561" type="curve" smooth="yes"/>
      <point x="642" y="561"/>
      <point x="625" y="539"/>
      <point x="604" y="511" type="curve"/>
      <point x="624" y="500" type="line"/>
      <point x="639" y="520"/>
      <point x="648" y="539"/>
      <point x="673" y="539" type="curve" smooth="yes"/>
      <point x="698" y="539"/>
      <point x="713" y="522"/>
      <point x="713" y="496" type="curve" smooth="yes"/>
      <point x="713" y="408"/>
      <point x="622" y="377"/>
      <point x="507" y="377" type="curve" smooth="yes"/>
      <point x="482" y="377"/>
      <point x="465" y="381"/>
    </contour>
    <contour>
      <point x="54" y="467" type="line"/>
      <point x="98" y="500"/>
      <point x="133" y="524"/>
      <point x="188" y="524" type="curve" smooth="yes"/>
      <point x="306" y="524"/>
      <point x="347" y="424"/>
      <point x="445" y="362" type="curve"/>
      <point x="454" y="381" type="line"/>
      <point x="354" y="444"/>
      <point x="312" y="545"/>
      <point x="191" y="545" type="curve" smooth="yes"/>
      <point x="129" y="545"/>
      <point x="89" y="521"/>
      <point x="41" y="482" type="curve"/>
    </contour>
    <contour>
      <point x="442" y="389" type="line"/>
      <point x="129" y="188" type="line"/>
      <point x="141" y="168" type="line"/>
      <point x="454" y="373" type="line"/>
    </contour>
    <contour>
      <point x="436" y="711" type="line"/>
      <point x="436" y="0" type="line"/>
      <point x="458" y="0" type="line"/>
      <point x="458" y="711" type="line"/>
    </contour>
    <contour>
      <point x="913" y="700" type="line"/>
      <point x="913" y="722" type="line"/>
      <point x="-12" y="722" type="line"/>
      <point x="-12" y="700" type="line"/>
    </contour>
  </outline>
</glyph>
<glyph name="lvocalicdeva" format="1">
  <advance width="778"/>
  <unicode hex="090C"/>
  <outline>
    <contour>
      <point x="712" y="-65" type="curve"/>
      <point x="701" y="-48" type="line"/>
      <point x="666" y="-73"/>
      <point x="635" y="-91"/>
      <point x="591" y="-91" type="curve" smooth="yes"/>
      <point x="529" y="-91"/>
      <point x="484" y="-54"/>
      <point x="484" y="6" type="curve" smooth="yes"/>
      <point x="484" y="83"/>
      <point x="545" y="119"/>
      <point x="597" y="175" type="curve" smooth="yes"/>
      <point x="652" y="233"/>
      <point x="698" y="283"/>
      <point x="698" y="363" type="curve" smooth="yes"/>
      <point x="698" y="460"/>
      <point x="622" y="518"/>
      <point x="520" y="518" type="curve" smooth="yes"/>
      <point x="384" y="518"/>
      <point x="326" y="383"/>
      <point x="359" y="229" type="curve"/>
      <point x="377" y="233" type="line"/>
      <point x="348" y="374"/>
      <point x="395" y="498"/>
      <point x="517" y="498" type="curve" smooth="yes"/>
      <point x="609" y="498"/>
      <point x="678" y="446"/>
      <point x="678" y="359" type="curve" smooth="yes"/>
      <point x="678" y="289"/>
      <point x="635" y="246"/>
      <point x="587" y="195" type="curve" smooth="yes"/>
      <point x="529" y="133"/>
      <point x="464" y="90"/>
      <point x="463" y="5" type="curve" smooth="yes"/>
      <point x="463" y="-67"/>
      <point x="516" y="-112"/>
      <point x="589" y="-112" type="curve" smooth="yes"/>
      <point x="638" y="-112"/>
      <point x="673" y="-95"/>
    </contour>
    <contour>
      <point x="790" y="700" type="line"/>
      <point x="790" y="722" type="line"/>
      <point x="-13" y="722" type="line"/>
      <point x="-13" y="700" type="line"/>
    </contour>
    <contour>
      <point x="509" y="711" type="line"/>
      <point x="509" y="511" type="line"/>
      <point x="531" y="511" type="line"/>
      <point x="531" y="711" type="line"/>
    </contour>
    <contour>
      <point x="271" y="7" type="line"/>
      <point x="149" y="83"/>
      <point x="68" y="176"/>
      <point x="68" y="318" type="curve" smooth="yes"/>
      <point x="68" y="420"/>
      <point x="118" y="501"/>
      <point x="213" y="501" type="curve" smooth="yes"/>
      <point x="284" y="501"/>
      <point x="337" y="474"/>
      <point x="385" y="422" type="curve"/>
      <point x="395" y="438" type="line"/>
      <point x="345" y="493"/>
      <point x="289" y="521"/>
      <point x="215" y="521" type="curve" smooth="yes"/>
      <point x="107" y="521"/>
      <point x="47" y="431"/>
      <point x="47" y="316" type="curve" smooth="yes"/>
      <point x="47" y="167"/>
      <point x="130" y="68"/>
      <point x="258" y="-10" type="curve"/>
    </contour>
  </outline>
</glyph>
<glyph name="ecandradeva" format="1">
  <advance width="590"/>
  <unicode hex="090D"/>
  <outline>
    <contour>
      <point x="448" y="1030" type="line"/>
      <point x="448" y="936"/>
      <point x="387" y="880"/>
      <point x="292" y="880" type="curve" smooth="yes"/>
      <point x="198" y="880"/>
      <point x="139" y="937"/>
      <point x="139" y="1030" type="curve"/>
      <point x="118" y="1030" type="line"/>
      <point x="118" y="924"/>
      <point x="184" y="857"/>
      <point x="290" y="857" type="curve" smooth="yes"/>
      <point x="399" y="857"/>
      <point x="469" y="922"/>
      <point x="469" y="1030" type="curve"/>
    </contour>
    <contour>
      <point x="440" y="8" type="line"/>
      <point x="242" y="90"/>
      <point x="119" y="223"/>
      <point x="119" y="434" type="curve" smooth="yes"/>
      <point x="119" y="711" type="line"/>
      <point x="97" y="711" type="line"/>
      <point x="97" y="430" type="line" smooth="yes"/>
      <point x="97" y="210"/>
      <point x="225" y="70"/>
      <point x="433" y="-12" type="curve"/>
    </contour>
    <contour>
      <point x="602" y="700" type="line"/>
      <point x="602" y="722" type="line"/>
      <point x="-13" y="722" type="line"/>
      <point x="-13" y="700" type="line"/>
    </contour>
    <contour>
      <point x="354" y="253" type="line"/>
      <point x="450" y="314"/>
      <point x="497" y="395"/>
      <point x="497" y="509" type="curve" smooth="yes"/>
      <point x="497" y="711" type="line"/>
      <point x="475" y="711" type="line"/>
      <point x="475" y="506" type="line" smooth="yes"/>
      <point x="475" y="401"/>
      <point x="430" y="327"/>
      <point x="341" y="271" type="curve"/>
    </contour>
  </outline>
</glyph>
<glyph name="edeva" format="1">
  <advance width="590"/>
  <unicode hex="090F"/>
  <outline>
    <contour>
      <point x="354" y="253" type="line"/>
      <point x="450" y="314"/>
      <point x="497" y="395"/>
      <point x="497" y="509" type="curve" smooth="yes"/>
      <point x="497" y="711" type="line"/>
      <point x="475" y="711" type="line"/>
      <point x="475" y="506" type="line" smooth="yes"/>
      <point x="475" y="401"/>
      <point x="430" y="327"/>
      <point x="341" y="271" type="curve"/>
    </contour>
    <contour>
      <point x="602" y="700" type="line"/>
      <point x="602" y="722" type="line"/>
      <point x="-13" y="722" type="line"/>
      <point x="-13" y="700" type="line"/>
    </contour>
    <contour>
      <point x="440" y="8" type="line"/>
      <point x="242" y="90"/>
      <point x="119" y="223"/>
      <point x="119" y="434" type="curve" smooth="yes"/>
      <point x="119" y="711" type="line"/>
      <point x="97" y="711" type="line"/>
      <point x="97" y="430" type="line" smooth="yes"/>
      <point x="97" y="210"/>
      <point x="225" y="70"/>
      <point x="433" y="-12" type="curve"/>
    </contour>
  </outline>
</glyph>
<glyph name="aideva" format="1">
  <advance width="590"/>
  <unicode hex="0910"/>
  <outline>
    <contour>
      <point x="67" y="994" type="line"/>
      <point x="107" y="1011"/>
      <point x="147" y="1028"/>
      <point x="191" y="1028" type="curve" smooth="yes"/>
      <point x="362" y="1028"/>
      <point x="406" y="868"/>
      <point x="477" y="705" type="curve"/>
      <point x="497" y="710" type="line"/>
      <point x="423" y="882"/>
      <point x="374" y="1051"/>
      <point x="194" y="1051" type="curve" smooth="yes"/>
      <point x="146" y="1051"/>
      <point x="101" y="1035"/>
      <point x="57" y="1016" type="curve"/>
    </contour>
    <contour>
      <point x="440" y="8" type="line"/>
      <point x="242" y="90"/>
      <point x="119" y="223"/>
      <point x="119" y="434" type="curve" smooth="yes"/>
      <point x="119" y="711" type="line"/>
      <point x="97" y="711" type="line"/>
      <point x="97" y="430" type="line" smooth="yes"/>
      <point x="97" y="210"/>
      <point x="225" y="70"/>
      <point x="433" y="-12" type="curve"/>
    </contour>
    <contour>
      <point x="354" y="253" type="line"/>
      <point x="450" y="314"/>
      <point x="497" y="395"/>
      <point x="497" y="509" type="curve" smooth="yes"/>
      <point x="497" y="711" type="line"/>
      <point x="475" y="711" type="line"/>
      <point x="475" y="506" type="line" smooth="yes"/>
      <point x="475" y="401"/>
      <point x="430" y="327"/>
      <point x="341" y="271" type="curve"/>
    </contour>
    <contour>
      <point x="602" y="700" type="line"/>
      <point x="602" y="722" type="line"/>
      <point x="-13" y="722" type="line"/>
      <point x="-13" y="700" type="line"/>
    </contour>
  </outline>
</glyph>
<glyph name="ocandradeva" format="1">
  <advance width="1053"/>
  <unicode hex="0911"/>
  <outline>
    <contour>
      <point x="935" y="1030" type="line"/>
      <point x="935" y="936"/>
      <point x="874" y="880"/>
      <point x="779" y="880" type="curve" smooth="yes"/>
      <point x="685" y="880"/>
      <point x="626" y="937"/>
      <point x="626" y="1030" type="curve"/>
      <point x="605" y="1030" type="line"/>
      <point x="605" y="924"/>
      <point x="671" y="857"/>
      <point x="777" y="857" type="curve" smooth="yes"/>
      <point x="886" y="857"/>
      <point x="956" y="922"/>
      <point x="956" y="1030" type="curve"/>
    </contour>
    <contour>
      <point x="170" y="398" type="curve"/>
      <point x="170" y="380" type="line"/>
      <point x="311" y="380"/>
      <point x="416" y="443"/>
      <point x="416" y="574" type="curve" smooth="yes"/>
      <point x="416" y="674"/>
      <point x="343" y="730"/>
      <point x="239" y="730" type="curve" smooth="yes"/>
      <point x="168" y="730"/>
      <point x="120" y="710"/>
      <point x="63" y="668" type="curve"/>
      <point x="77" y="652" type="line"/>
      <point x="129" y="690"/>
      <point x="172" y="710"/>
      <point x="236" y="710" type="curve" smooth="yes"/>
      <point x="329" y="710"/>
      <point x="395" y="661"/>
      <point x="394" y="572" type="curve" smooth="yes"/>
      <point x="393" y="454"/>
      <point x="298" y="398"/>
    </contour>
    <contour>
      <point x="639" y="709" type="line"/>
      <point x="639" y="0" type="line"/>
      <point x="661" y="0" type="line"/>
      <point x="661" y="709" type="line"/>
    </contour>
    <contour>
      <point x="170" y="377" type="line"/>
      <point x="310" y="377"/>
      <point x="423" y="338"/>
      <point x="425" y="214" type="curve" smooth="yes"/>
      <point x="427" y="106"/>
      <point x="343" y="48"/>
      <point x="227" y="52" type="curve" smooth="yes"/>
      <point x="157" y="52"/>
      <point x="96" y="83"/>
      <point x="50" y="135" type="curve"/>
      <point x="35" y="122" type="line"/>
      <point x="82" y="65"/>
      <point x="151" y="31"/>
      <point x="225" y="31" type="curve" smooth="yes"/>
      <point x="355" y="26"/>
      <point x="448" y="94"/>
      <point x="446" y="217" type="curve" smooth="yes"/>
      <point x="444" y="351"/>
      <point x="321" y="394"/>
      <point x="170" y="394" type="curve"/>
    </contour>
    <contour>
      <point x="1064" y="699" type="line"/>
      <point x="1064" y="721" type="line"/>
      <point x="498" y="721" type="line"/>
      <point x="498" y="699" type="line"/>
    </contour>
    <contour>
      <point x="903" y="709" type="line"/>
      <point x="903" y="0" type="line"/>
      <point x="925" y="0" type="line"/>
      <point x="925" y="709" type="line"/>
    </contour>
    <contour>
      <point x="644" y="401" type="line"/>
      <point x="505" y="335"/>
      <point x="388" y="367"/>
      <point x="236" y="392" type="curve"/>
      <point x="231" y="376" type="line"/>
      <point x="389" y="347"/>
      <point x="507" y="317"/>
      <point x="653" y="384" type="curve"/>
    </contour>
  </outline>
</glyph>
<glyph name="audeva" format="1">
  <advance width="1053"/>
  <unicode hex="0914"/>
  <outline>
    <contour>
      <point x="610" y="872" type="line"/>
      <point x="631" y="887"/>
      <point x="655" y="896"/>
      <point x="681" y="896" type="curve" smooth="yes"/>
      <point x="797" y="896"/>
      <point x="845" y="805"/>
      <point x="907" y="705" type="curve"/>
      <point x="924" y="710" type="line"/>
      <point x="859" y="820"/>
      <point x="809" y="919"/>
      <point x="684" y="919" type="curve" smooth="yes"/>
      <point x="654" y="919"/>
      <point x="625" y="910"/>
      <point x="600" y="893" type="curve"/>
    </contour>
    <contour>
      <point x="635" y="1004" type="line"/>
      <point x="656" y="1018"/>
      <point x="680" y="1028"/>
      <point x="706" y="1028" type="curve" smooth="yes"/>
      <point x="859" y="1028"/>
      <point x="867" y="865"/>
      <point x="907" y="705" type="curve"/>
      <point x="927" y="710" type="line"/>
      <point x="884" y="880"/>
      <point x="872" y="1051"/>
      <point x="709" y="1051" type="curve" smooth="yes"/>
      <point x="679" y="1051"/>
      <point x="650" y="1042"/>
      <point x="625" y="1025" type="curve"/>
    </contour>
    <contour>
      <point x="170" y="398" type="curve"/>
      <point x="170" y="380" type="line"/>
      <point x="308" y="380"/>
      <point x="416" y="429"/>
      <point x="416" y="553" type="curve" smooth="yes"/>
      <point x="416" y="653"/>
      <point x="343" y="709"/>
      <point x="239" y="709" type="curve" smooth="yes"/>
      <point x="168" y="709"/>
      <point x="120" y="689"/>
      <point x="63" y="647" type="curve"/>
      <point x="77" y="631" type="line"/>
      <point x="129" y="669"/>
      <point x="172" y="689"/>
      <point x="236" y="689" type="curve" smooth="yes"/>
      <point x="329" y="689"/>
      <point x="395" y="640"/>
      <point x="394" y="551" type="curve" smooth="yes"/>
      <point x="393" y="440"/>
      <point x="294" y="398"/>
    </contour>
    <contour>
      <point x="1064" y="688" type="line"/>
      <point x="1064" y="710" type="line"/>
      <point x="498" y="710" type="line"/>
      <point x="498" y="688" type="line"/>
    </contour>
    <contour>
      <point x="639" y="698" type="line"/>
      <point x="639" y="0" type="line"/>
      <point x="661" y="0" type="line"/>
      <point x="661" y="698" type="line"/>
    </contour>
    <contour>
      <point x="644" y="401" type="line"/>
      <point x="505" y="335"/>
      <point x="388" y="367"/>
      <point x="236" y="392" type="curve"/>
      <point x="231" y="376" type="line"/>
      <point x="389" y="347"/>
      <point x="507" y="317"/>
      <point x="653" y="384" type="curve"/>
    </contour>
    <contour>
      <point x="911" y="698" type="line"/>
      <point x="911" y="0" type="line"/>
      <point x="933" y="0" type="line"/>
      <point x="933" y="698" type="line"/>
    </contour>
    <contour>
      <point x="170" y="377" type="line"/>
      <point x="310" y="377"/>
      <point x="423" y="338"/>
      <point x="425" y="214" type="curve" smooth="yes"/>
      <point x="427" y="106"/>
      <point x="343" y="48"/>
      <point x="227" y="52" type="curve" smooth="yes"/>
      <point x="157" y="52"/>
      <point x="96" y="83"/>
      <point x="50" y="135" type="curve"/>
      <point x="35" y="122" type="line"/>
      <point x="82" y="65"/>
      <point x="151" y="31"/>
      <point x="225" y="31" type="curve" smooth="yes"/>
      <point x="355" y="26"/>
      <point x="448" y="94"/>
      <point x="446" y="217" type="curve" smooth="yes"/>
      <point x="444" y="351"/>
      <point x="321" y="394"/>
      <point x="170" y="394" type="curve"/>
    </contour>
  </outline>
</glyph>
<glyph name="gadeva" format="1">
  <advance width="638"/>
  <unicode hex="0917"/>
  <outline>
    <contour>
      <point x="79" y="380" type="line"/>
      <point x="198" y="283" type="line"/>
      <point x="212" y="299" type="line"/>
      <point x="94" y="393" type="line"/>
    </contour>
    <contour>
      <point x="126" y="705" type="line"/>
      <point x="205" y="641"/>
      <point x="251" y="564"/>
      <point x="251" y="462" type="curve" smooth="yes"/>
      <point x="251" y="364"/>
      <point x="216" y="278"/>
      <point x="129" y="278" type="curve" smooth="yes"/>
      <point x="95" y="278"/>
      <point x="66" y="292"/>
      <point x="66" y="323" type="curve" smooth="yes"/>
      <point x="66" y="345"/>
      <point x="76" y="362"/>
      <point x="94" y="373" type="curve"/>
      <point x="94" y="393" type="line"/>
      <point x="61" y="383"/>
      <point x="44" y="355"/>
      <point x="44" y="320" type="curve" smooth="yes"/>
      <point x="44" y="279"/>
      <point x="80" y="257"/>
      <point x="125" y="257" type="curve" smooth="yes"/>
      <point x="226" y="257"/>
      <point x="272" y="354"/>
      <point x="272" y="467" type="curve" smooth="yes"/>
      <point x="271" y="572"/>
      <point x="224" y="650"/>
      <point x="143" y="718" type="curve"/>
    </contour>
    <contour>
      <point x="650" y="700" type="line"/>
      <point x="650" y="722" type="line"/>
      <point x="-11" y="722" type="line"/>
      <point x="-11" y="700" type="line"/>
    </contour>
    <contour>
      <point x="489" y="710" type="line"/>
      <point x="489" y="0" type="line"/>
      <point x="511" y="0" type="line"/>
      <point x="511" y="710" type="line"/>
    </contour>
  </outline>
</glyph>
<glyph name="cadeva" format="1">
  <advance width="717"/>
  <unicode hex="091A"/>
  <outline>
    <contour>
      <point x="36" y="495" type="line"/>
      <point x="415" y="495" type="line"/>
      <point x="415" y="517" type="line"/>
      <point x="36" y="517" type="line"/>
    </contour>
    <contour>
      <point x="577" y="710" type="line"/>
      <point x="577" y="0" type="line"/>
      <point x="599" y="0" type="line"/>
      <point x="599" y="710" type="line"/>
    </contour>
    <contour>
      <point x="415" y="495" type="curve"/>
      <point x="415" y="510" type="line"/>
      <point x="282" y="510"/>
      <point x="182" y="444"/>
      <point x="182" y="321" type="curve" smooth="yes"/>
      <point x="182" y="217"/>
      <point x="268" y="158"/>
      <point x="379" y="158" type="curve" smooth="yes"/>
      <point x="477" y="158"/>
      <point x="551" y="203"/>
      <point x="596" y="290" type="curve"/>
      <point x="580" y="299" type="line"/>
      <point x="536" y="222"/>
      <point x="471" y="179"/>
      <point x="383" y="179" type="curve" smooth="yes"/>
      <point x="283" y="179"/>
      <point x="204" y="230"/>
      <point x="204" y="323" type="curve" smooth="yes"/>
      <point x="204" y="433"/>
      <point x="297" y="495"/>
    </contour>
    <contour>
      <point x="728" y="700" type="line"/>
      <point x="728" y="722" type="line"/>
      <point x="-12" y="722" type="line"/>
      <point x="-12" y="700" type="line"/>
    </contour>
  </outline>
</glyph>
<glyph name="jadeva" format="1">
  <advance width="782"/>
  <unicode hex="091C"/>
  <outline>
    <contour>
      <point x="642" y="710" type="line"/>
      <point x="642" y="0" type="line"/>
      <point x="664" y="0" type="line"/>
      <point x="664" y="710" type="line"/>
    </contour>
    <contour>
      <point x="793" y="700" type="line"/>
      <point x="793" y="722" type="line"/>
      <point x="-12" y="722" type="line"/>
      <point x="-12" y="700" type="line"/>
    </contour>
    <contour>
      <point x="649" y="464" type="line"/>
      <point x="649" y="486" type="line"/>
      <point x="209" y="486" type="line"/>
      <point x="209" y="464" type="line"/>
    </contour>
    <contour>
      <point x="209" y="464" type="line"/>
      <point x="335" y="464"/>
      <point x="432" y="400"/>
      <point x="432" y="283" type="curve" smooth="yes"/>
      <point x="432" y="181"/>
      <point x="357" y="118"/>
      <point x="252" y="118" type="curve" smooth="yes"/>
      <point x="154" y="118"/>
      <point x="92" y="182"/>
      <point x="57" y="276" type="curve"/>
      <point x="36" y="266" type="line"/>
      <point x="76" y="165"/>
      <point x="143" y="97"/>
      <point x="250" y="97" type="curve" smooth="yes"/>
      <point x="368" y="97"/>
      <point x="453" y="170"/>
      <point x="453" y="286" type="curve" smooth="yes"/>
      <point x="453" y="413"/>
      <point x="346" y="481"/>
      <point x="209" y="481" type="curve"/>
    </contour>
  </outline>
</glyph>
<glyph name="ttadeva" format="1">
  <advance width="576"/>
  <unicode hex="091F"/>
  <outline>
    <contour>
      <point x="445" y="467" type="curve"/>
      <point x="445" y="489" type="line"/>
      <point x="238" y="478"/>
      <point x="60" y="412"/>
      <point x="60" y="227" type="curve" smooth="yes"/>
      <point x="60" y="83"/>
      <point x="175" y="-1"/>
      <point x="327" y="-1" type="curve" smooth="yes"/>
      <point x="388" y="-1"/>
      <point x="435" y="14"/>
      <point x="490" y="40" type="curve"/>
      <point x="481" y="60" type="line"/>
      <point x="429" y="33"/>
      <point x="385" y="21"/>
      <point x="327" y="21" type="curve" smooth="yes"/>
      <point x="188" y="21"/>
      <point x="82" y="96"/>
      <point x="82" y="227" type="curve" smooth="yes"/>
      <point x="82" y="400"/>
      <point x="251" y="457"/>
    </contour>
    <contour>
      <point x="588" y="700" type="line"/>
      <point x="588" y="722" type="line"/>
      <point x="-11" y="722" type="line"/>
      <point x="-11" y="700" type="line"/>
    </contour>
    <contour>
      <point x="423" y="711" type="line"/>
      <point x="423" y="467" type="line"/>
      <point x="445" y="467" type="line"/>
      <point x="445" y="711" type="line"/>
    </contour>
  </outline>
</glyph>
<glyph name="ddadeva" format="1">
  <advance width="563"/>
  <unicode hex="0921"/>
  <outline>
    <contour>
      <point x="412" y="711" type="line"/>
      <point x="412" y="524" type="line"/>
      <point x="434" y="524" type="line"/>
      <point x="434" y="711" type="line"/>
    </contour>
    <contour>
      <point x="574" y="700" type="line"/>
      <point x="574" y="722" type="line"/>
      <point x="-12" y="722" type="line"/>
      <point x="-12" y="700" type="line"/>
    </contour>
    <contour>
      <point x="168" y="289" type="line"/>
      <point x="122" y="323"/>
      <point x="86" y="360"/>
      <point x="86" y="417" type="curve" smooth="yes"/>
      <point x="86" y="493"/>
      <point x="144" y="524"/>
      <point x="231" y="524" type="curve" smooth="yes"/>
      <point x="424" y="524" type="line"/>
      <point x="424" y="544" type="line"/>
      <point x="230" y="544" type="line" smooth="yes"/>
      <point x="131" y="544"/>
      <point x="64" y="506"/>
      <point x="64" y="417" type="curve" smooth="yes"/>
      <point x="64" y="350"/>
      <point x="104" y="304"/>
      <point x="162" y="267" type="curve"/>
    </contour>
    <contour>
      <point x="162" y="267" type="line"/>
      <point x="331" y="319"/>
      <point x="493" y="312"/>
      <point x="493" y="178" type="curve" smooth="yes"/>
      <point x="493" y="71"/>
      <point x="402" y="10"/>
      <point x="288" y="10" type="curve" smooth="yes"/>
      <point x="195" y="10"/>
      <point x="125" y="52"/>
      <point x="61" y="121" type="curve"/>
      <point x="45" y="105" type="line"/>
      <point x="113" y="34"/>
      <point x="186" y="-11"/>
      <point x="284" y="-11" type="curve" smooth="yes"/>
      <point x="413" y="-11"/>
      <point x="514" y="61"/>
      <point x="514" y="183" type="curve" smooth="yes"/>
      <point x="512" y="325"/>
      <point x="344" y="343"/>
      <point x="168" y="289" type="curve"/>
    </contour>
  </outline>
</glyph>
<glyph name="tadeva" format="1">
  <advance width="634"/>
  <unicode hex="0924"/>
  <outline>
    <contour>
      <point x="496" y="710" type="line"/>
      <point x="496" y="0" type="line"/>
      <point x="518" y="0" type="line"/>
      <point x="518" y="710" type="line"/>
    </contour>
    <contour>
      <point x="295" y="13" type="line"/>
      <point x="188" y="82"/>
      <point x="97" y="166"/>
      <point x="97" y="295" type="curve" smooth="yes"/>
      <point x="97" y="381"/>
      <point x="151" y="448"/>
      <point x="251" y="448" type="curve" smooth="yes"/>
      <point x="508" y="448" type="line"/>
      <point x="508" y="468" type="line"/>
      <point x="250" y="468" type="line" smooth="yes"/>
      <point x="138" y="468"/>
      <point x="74" y="394"/>
      <point x="74" y="295" type="curve" smooth="yes"/>
      <point x="74" y="159"/>
      <point x="168" y="65"/>
      <point x="283" y="-4" type="curve"/>
    </contour>
    <contour>
      <point x="646" y="700" type="line"/>
      <point x="646" y="722" type="line"/>
      <point x="-12" y="722" type="line"/>
      <point x="-12" y="700" type="line"/>
    </contour>
  </outline>
</glyph>
<glyph name="padeva" format="1">
  <advance width="573"/>
  <unicode hex="092A"/>
  <outline>
    <contour>
      <point x="440" y="359" type="line"/>
      <point x="407" y="284"/>
      <point x="345" y="247"/>
      <point x="263" y="247" type="curve" smooth="yes"/>
      <point x="158" y="247"/>
      <point x="87" y="319"/>
      <point x="87" y="424" type="curve" smooth="yes"/>
      <point x="87" y="710" type="line"/>
      <point x="65" y="710" type="line"/>
      <point x="65" y="427" type="line" smooth="yes"/>
      <point x="65" y="308"/>
      <point x="142" y="224"/>
      <point x="259" y="224" type="curve" smooth="yes"/>
      <point x="349" y="224"/>
      <point x="418" y="264"/>
      <point x="452" y="347" type="curve"/>
    </contour>
    <contour>
      <point x="584" y="700" type="line"/>
      <point x="584" y="722" type="line"/>
      <point x="-12" y="722" type="line"/>
      <point x="-12" y="700" type="line"/>
    </contour>
    <contour>
      <point x="430" y="710" type="line"/>
      <point x="430" y="0" type="line"/>
      <point x="452" y="0" type="line"/>
      <point x="452" y="710" type="line"/>
    </contour>
  </outline>
</glyph>
<glyph name="uni092C" format="1">
  <advance width="618"/>
  <unicode hex="092C"/>
  <outline>
    <contour>
      <point x="405" y="199" type="line"/>
      <point x="176" y="509" type="line"/>
      <point x="158" y="497" type="line"/>
      <point x="389" y="185" type="line"/>
    </contour>
    <contour>
      <point x="624" y="700" type="line"/>
      <point x="624" y="722" type="line"/>
      <point x="-11" y="722" type="line"/>
      <point x="-11" y="700" type="line"/>
    </contour>
    <contour>
      <point x="461" y="710" type="line"/>
      <point x="461" y="0" type="line"/>
      <point x="483" y="0" type="line"/>
      <point x="483" y="710" type="line"/>
    </contour>
    <contour>
      <point x="464" y="302" type="line"/>
      <point x="429" y="216"/>
      <point x="367" y="166"/>
      <point x="275" y="166" type="curve" smooth="yes"/>
      <point x="160" y="166"/>
      <point x="81" y="239"/>
      <point x="81" y="353" type="curve" smooth="yes"/>
      <point x="81" y="460"/>
      <point x="159" y="525"/>
      <point x="269" y="525" type="curve" smooth="yes"/>
      <point x="355" y="525"/>
      <point x="416" y="486"/>
      <point x="463" y="413" type="curve"/>
      <point x="476" y="429" type="line"/>
      <point x="431" y="508"/>
      <point x="363" y="545"/>
      <point x="272" y="545" type="curve" smooth="yes"/>
      <point x="149" y="545"/>
      <point x="60" y="472"/>
      <point x="60" y="353" type="curve" smooth="yes"/>
      <point x="60" y="227"/>
      <point x="146" y="145"/>
      <point x="273" y="145" type="curve" smooth="yes"/>
      <point x="374" y="145"/>
      <point x="445" y="198"/>
      <point x="480" y="294" type="curve"/>
    </contour>
  </outline>
</glyph>
<glyph name="bhadeva" format="1">
  <advance width="715"/>
  <unicode hex="092D"/>
  <outline>
    <contour>
      <point x="565" y="710" type="line"/>
      <point x="565" y="0" type="line"/>
      <point x="587" y="0" type="line"/>
      <point x="587" y="710" type="line"/>
    </contour>
    <contour>
      <point x="727" y="700" type="line"/>
      <point x="727" y="722" type="line"/>
      <point x="414" y="722" type="line"/>
      <point x="414" y="700" type="line"/>
    </contour>
    <contour>
      <point x="269" y="600" type="curve" smooth="yes"/>
      <point x="269" y="258" type="line" smooth="yes"/>
      <point x="269" y="235"/>
      <point x="256" y="218"/>
      <point x="235" y="218" type="curve" smooth="yes"/>
      <point x="212" y="218"/>
      <point x="196" y="235"/>
      <point x="196" y="258" type="curve" smooth="yes"/>
      <point x="196" y="284"/>
      <point x="215" y="302"/>
      <point x="242" y="302" type="curve" smooth="yes"/>
      <point x="580" y="302" type="line"/>
      <point x="580" y="322" type="line"/>
      <point x="243" y="322" type="line" smooth="yes"/>
      <point x="203" y="322"/>
      <point x="175" y="296"/>
      <point x="175" y="257" type="curve" smooth="yes"/>
      <point x="175" y="222"/>
      <point x="199" y="198"/>
      <point x="234" y="198" type="curve" smooth="yes"/>
      <point x="267" y="198"/>
      <point x="289" y="224"/>
      <point x="289" y="258" type="curve" smooth="yes"/>
      <point x="289" y="600" type="line" smooth="yes"/>
      <point x="289" y="676"/>
      <point x="235" y="725"/>
      <point x="158" y="725" type="curve" smooth="yes"/>
      <point x="85" y="725"/>
      <point x="32" y="680"/>
      <point x="31" y="609" type="curve" smooth="yes"/>
      <point x="31" y="549"/>
      <point x="68" y="510"/>
      <point x="124" y="484" type="curve"/>
      <point x="133" y="504" type="line"/>
      <point x="85" y="526"/>
      <point x="51" y="557"/>
      <point x="51" y="608" type="curve" smooth="yes"/>
      <point x="52" y="668"/>
      <point x="96" y="705"/>
      <point x="157" y="705" type="curve" smooth="yes"/>
      <point x="223" y="705"/>
      <point x="269" y="664"/>
    </contour>
  </outline>
</glyph>
<glyph name="madeva" format="1">
  <advance width="612"/>
  <unicode hex="092E"/>
  <outline>
    <contour>
      <point x="625" y="700" type="line"/>
      <point x="625" y="722" type="line"/>
      <point x="-12" y="722" type="line"/>
      <point x="-12" y="700" type="line"/>
    </contour>
    <contour>
      <point x="463" y="710" type="line"/>
      <point x="463" y="0" type="line"/>
      <point x="485" y="0" type="line"/>
      <point x="485" y="710" type="line"/>
    </contour>
    <contour>
      <point x="147" y="710" type="line"/>
      <point x="147" y="258" type="line" smooth="yes"/>
      <point x="147" y="235"/>
      <point x="134" y="218"/>
      <point x="113" y="218" type="curve" smooth="yes"/>
      <point x="90" y="218"/>
      <point x="74" y="235"/>
      <point x="74" y="258" type="curve" smooth="yes"/>
      <point x="74" y="284"/>
      <point x="93" y="302"/>
      <point x="120" y="302" type="curve" smooth="yes"/>
      <point x="478" y="302" type="line"/>
      <point x="478" y="322" type="line"/>
      <point x="121" y="322" type="line" smooth="yes"/>
      <point x="81" y="322"/>
      <point x="53" y="296"/>
      <point x="53" y="257" type="curve" smooth="yes"/>
      <point x="53" y="222"/>
      <point x="77" y="198"/>
      <point x="112" y="198" type="curve" smooth="yes"/>
      <point x="145" y="198"/>
      <point x="167" y="224"/>
      <point x="167" y="258" type="curve" smooth="yes"/>
      <point x="167" y="710" type="line"/>
    </contour>
  </outline>
</glyph>
<glyph name="radeva" format="1">
  <advance width="454"/>
  <unicode hex="0930"/>
  <outline>
    <contour>
      <point x="335" y="13" type="line"/>
      <point x="76" y="414" type="line"/>
      <point x="58" y="405" type="line"/>
      <point x="307" y="-4" type="line"/>
    </contour>
    <contour>
      <point x="467" y="700" type="line"/>
      <point x="467" y="722" type="line"/>
      <point x="-12" y="722" type="line"/>
      <point x="-12" y="700" type="line"/>
    </contour>
    <contour>
      <point x="231" y="718" type="curve"/>
      <point x="215" y="702" type="line"/>
      <point x="286" y="636"/>
      <point x="342" y="575"/>
      <point x="342" y="479" type="curve" smooth="yes"/>
      <point x="342" y="390"/>
      <point x="288" y="325"/>
      <point x="202" y="325" type="curve" smooth="yes"/>
      <point x="143" y="325"/>
      <point x="106" y="362"/>
      <point x="76" y="414" type="curve"/>
      <point x="66" y="398" type="line"/>
      <point x="90" y="354"/>
      <point x="133" y="303"/>
      <point x="202" y="303" type="curve" smooth="yes"/>
      <point x="301" y="303"/>
      <point x="364" y="377"/>
      <point x="364" y="479" type="curve" smooth="yes"/>
      <point x="364" y="581"/>
      <point x="305" y="647"/>
    </contour>
  </outline>
</glyph>
<glyph name="uni0932" format="1">
  <advance width="781"/>
  <unicode hex="0932"/>
  <outline>
    <contour>
      <point x="641" y="710" type="line"/>
      <point x="641" y="0" type="line"/>
      <point x="663" y="0" type="line"/>
      <point x="663" y="710" type="line"/>
    </contour>
    <contour>
      <point x="793" y="700" type="line"/>
      <point x="793" y="722" type="line"/>
      <point x="-12" y="722" type="line"/>
      <point x="-12" y="700" type="line"/>
    </contour>
    <contour>
      <point x="645" y="476" type="line"/>
      <point x="605" y="498"/>
      <point x="571" y="510"/>
      <point x="526" y="510" type="curve" smooth="yes"/>
      <point x="401" y="510"/>
      <point x="353" y="391"/>
      <point x="353" y="250" type="curve"/>
      <point x="373" y="250" type="line"/>
      <point x="373" y="379"/>
      <point x="411" y="490"/>
      <point x="524" y="490" type="curve" smooth="yes"/>
      <point x="571" y="490"/>
      <point x="606" y="478"/>
      <point x="645" y="453" type="curve"/>
    </contour>
    <contour>
      <point x="295" y="8" type="line"/>
      <point x="176" y="91"/>
      <point x="74" y="168"/>
      <point x="74" y="311" type="curve" smooth="yes"/>
      <point x="74" y="413"/>
      <point x="124" y="493"/>
      <point x="219" y="493" type="curve" smooth="yes"/>
      <point x="292" y="493"/>
      <point x="342" y="459"/>
      <point x="391" y="405" type="curve"/>
      <point x="401" y="421" type="line"/>
      <point x="350" y="477"/>
      <point x="297" y="513"/>
      <point x="221" y="513" type="curve" smooth="yes"/>
      <point x="113" y="513"/>
      <point x="53" y="424"/>
      <point x="53" y="309" type="curve" smooth="yes"/>
      <point x="53" y="159"/>
      <point x="157" y="76"/>
      <point x="283" y="-9" type="curve"/>
    </contour>
  </outline>
</glyph>
<glyph name="llladeva" format="1">
  <advance width="824"/>
  <unicode hex="0934"/>
  <outline>
    <component base="nuktadeva" xOffset="908" yOffset="32"/>
    <contour>
      <point x="596" y="710" type="line"/>
      <point x="596" y="497" type="line"/>
      <point x="618" y="497" type="line"/>
      <point x="618" y="710" type="line"/>
    </contour>
    <contour>
      <point x="835" y="700" type="line"/>
      <point x="835" y="722" type="line"/>
      <point x="-12" y="722" type="line"/>
      <point x="-12" y="700" type="line"/>
    </contour>
    <contour>
      <point x="247" y="95" type="curve" smooth="yes"/>
      <point x="140" y="95"/>
      <point x="84" y="186"/>
      <point x="84" y="301" type="curve" smooth="yes"/>
      <point x="84" y="410"/>
      <point x="146" y="490"/>
      <point x="250" y="490" type="curve" smooth="yes"/>
      <point x="333" y="490"/>
      <point x="388" y="443"/>
      <point x="435" y="373" type="curve"/>
      <point x="448" y="391" type="line"/>
      <point x="400" y="465"/>
      <point x="340" y="510"/>
      <point x="252" y="510" type="curve" smooth="yes"/>
      <point x="135" y="510"/>
      <point x="63" y="421"/>
      <point x="63" y="299" type="curve" smooth="yes"/>
      <point x="63" y="173"/>
      <point x="126" y="74"/>
      <point x="244" y="74" type="curve" smooth="yes"/>
      <point x="356" y="74"/>
      <point x="390" y="181"/>
      <point x="424" y="296" type="curve" smooth="yes"/>
      <point x="452" y="396"/>
      <point x="490" y="484"/>
      <point x="587" y="484" type="curve" smooth="yes"/>
      <point x="688" y="484"/>
      <point x="748" y="404"/>
      <point x="748" y="298" type="curve" smooth="yes"/>
      <point x="748" y="181"/>
      <point x="680" y="95"/>
      <point x="567" y="95" type="curve" smooth="yes"/>
      <point x="490" y="95"/>
      <point x="433" y="127"/>
      <point x="387" y="190" type="curve"/>
      <point x="376" y="169" type="line"/>
      <point x="424" y="105"/>
      <point x="485" y="75"/>
      <point x="565" y="75" type="curve" smooth="yes"/>
      <point x="691" y="75"/>
      <point x="770" y="168"/>
      <point x="770" y="298" type="curve" smooth="yes"/>
      <point x="770" y="417"/>
      <point x="703" y="505"/>
      <point x="590" y="505" type="curve" smooth="yes"/>
      <point x="475" y="505"/>
      <point x="436" y="412"/>
      <point x="403" y="302" type="curve" smooth="yes"/>
      <point x="372" y="199"/>
      <point x="339" y="95"/>
    </contour>
  </outline>
</glyph>
<glyph name="vadeva" format="1">
  <advance width="610"/>
  <unicode hex="0935"/>
  <outline>
    <contour>
      <point x="462" y="339" type="line"/>
      <point x="432" y="254"/>
      <point x="361" y="207"/>
      <point x="270" y="207" type="curve" smooth="yes"/>
      <point x="177" y="207"/>
      <point x="110" y="274"/>
      <point x="110" y="367" type="curve" smooth="yes"/>
      <point x="110" y="460"/>
      <point x="179" y="525"/>
      <point x="274" y="525" type="curve" smooth="yes"/>
      <point x="360" y="525"/>
      <point x="424" y="476"/>
      <point x="461" y="397" type="curve"/>
      <point x="474" y="413" type="line"/>
      <point x="439" y="498"/>
      <point x="366" y="545"/>
      <point x="274" y="545" type="curve" smooth="yes"/>
      <point x="167" y="545"/>
      <point x="89" y="472"/>
      <point x="89" y="367" type="curve" smooth="yes"/>
      <point x="89" y="261"/>
      <point x="165" y="186"/>
      <point x="271" y="186" type="curve" smooth="yes"/>
      <point x="372" y="186"/>
      <point x="449" y="243"/>
      <point x="479" y="339" type="curve"/>
    </contour>
    <contour>
      <point x="624" y="700" type="line"/>
      <point x="624" y="722" type="line"/>
      <point x="-11" y="722" type="line"/>
      <point x="-11" y="700" type="line"/>
    </contour>
    <contour>
      <point x="461" y="710" type="line"/>
      <point x="461" y="0" type="line"/>
      <point x="483" y="0" type="line"/>
      <point x="483" y="710" type="line"/>
    </contour>
  </outline>
</glyph>
<glyph name="shadeva" format="1">
  <advance width="765"/>
  <unicode hex="0936"/>
  <outline>
    <contour>
      <point x="58" y="331" type="line"/>
      <point x="338" y="-2" type="line"/>
      <point x="359" y="16" type="line"/>
      <point x="73" y="344" type="line"/>
    </contour>
    <contour>
      <point x="624" y="710" type="line"/>
      <point x="624" y="0" type="line"/>
      <point x="646" y="0" type="line"/>
      <point x="646" y="710" type="line"/>
    </contour>
    <contour>
      <point x="777" y="700" type="line"/>
      <point x="777" y="722" type="line"/>
      <point x="524" y="722" type="line"/>
      <point x="524" y="700" type="line"/>
    </contour>
    <contour>
      <point x="132" y="214" type="curve"/>
      <point x="315" y="214"/>
      <point x="433" y="336"/>
      <point x="433" y="521" type="curve" smooth="yes"/>
      <point x="433" y="639"/>
      <point x="370" y="725"/>
      <point x="257" y="725" type="curve" smooth="yes"/>
      <point x="159" y="725"/>
      <point x="88" y="674"/>
      <point x="87" y="581" type="curve" smooth="yes"/>
      <point x="87" y="511"/>
      <point x="126" y="465"/>
      <point x="193" y="440" type="curve"/>
      <point x="203" y="463" type="line"/>
      <point x="144" y="482"/>
      <point x="109" y="521"/>
      <point x="109" y="582" type="curve" smooth="yes"/>
      <point x="110" y="661"/>
      <point x="172" y="702"/>
      <point x="256" y="702" type="curve" smooth="yes"/>
      <point x="356" y="702"/>
      <point x="410" y="624"/>
      <point x="411" y="519" type="curve" smooth="yes"/>
      <point x="412" y="349"/>
      <point x="302" y="236"/>
      <point x="132" y="236" type="curve" smooth="yes"/>
      <point x="86" y="236"/>
      <point x="49" y="255"/>
      <point x="49" y="297" type="curve" smooth="yes"/>
      <point x="49" y="313"/>
      <point x="58" y="324"/>
      <point x="73" y="324" type="curve"/>
      <point x="73" y="344" type="line"/>
      <point x="44" y="344"/>
      <point x="27" y="323"/>
      <point x="27" y="294" type="curve" smooth="yes"/>
      <point x="27" y="240"/>
      <point x="73" y="215"/>
    </contour>
  </outline>
</glyph>
<glyph name="ssadeva" format="1">
  <advance width="571"/>
  <unicode hex="0937"/>
  <outline>
    <contour>
      <point x="584" y="700" type="line"/>
      <point x="584" y="722" type="line"/>
      <point x="-12" y="722" type="line"/>
      <point x="-12" y="700" type="line"/>
    </contour>
    <contour>
      <point x="430" y="710" type="line"/>
      <point x="430" y="0" type="line"/>
      <point x="452" y="0" type="line"/>
      <point x="452" y="710" type="line"/>
    </contour>
    <contour>
      <point x="440" y="359" type="line"/>
      <point x="407" y="284"/>
      <point x="345" y="247"/>
      <point x="263" y="247" type="curve" smooth="yes"/>
      <point x="158" y="247"/>
      <point x="87" y="319"/>
      <point x="87" y="424" type="curve" smooth="yes"/>
      <point x="87" y="710" type="line"/>
      <point x="65" y="710" type="line"/>
      <point x="65" y="427" type="line" smooth="yes"/>
      <point x="65" y="308"/>
      <point x="142" y="224"/>
      <point x="259" y="224" type="curve" smooth="yes"/>
      <point x="349" y="224"/>
      <point x="418" y="264"/>
      <point x="452" y="347" type="curve"/>
    </contour>
    <contour>
      <point x="449" y="340" type="line"/>
      <point x="84" y="718" type="line"/>
      <point x="66" y="706" type="line"/>
      <point x="435" y="324" type="line"/>
    </contour>
  </outline>
</glyph>
<glyph name="sadeva" format="1">
  <advance width="763"/>
  <unicode hex="0938"/>
  <outline>
    <contour>
      <point x="627" y="407" type="line"/>
      <point x="579" y="358"/>
      <point x="530" y="330"/>
      <point x="462" y="330" type="curve" smooth="yes"/>
      <point x="408" y="330"/>
      <point x="368" y="346"/>
      <point x="325" y="379" type="curve"/>
      <point x="308" y="366" type="line"/>
      <point x="354" y="326"/>
      <point x="400" y="308"/>
      <point x="460" y="308" type="curve" smooth="yes"/>
      <point x="537" y="308"/>
      <point x="594" y="337"/>
      <point x="646" y="394" type="curve"/>
    </contour>
    <contour>
      <point x="231" y="718" type="curve"/>
      <point x="215" y="702" type="line"/>
      <point x="286" y="636"/>
      <point x="342" y="575"/>
      <point x="342" y="479" type="curve" smooth="yes"/>
      <point x="342" y="390"/>
      <point x="288" y="325"/>
      <point x="202" y="325" type="curve" smooth="yes"/>
      <point x="143" y="325"/>
      <point x="106" y="362"/>
      <point x="76" y="414" type="curve"/>
      <point x="66" y="398" type="line"/>
      <point x="90" y="354"/>
      <point x="133" y="303"/>
      <point x="202" y="303" type="curve" smooth="yes"/>
      <point x="301" y="303"/>
      <point x="364" y="377"/>
      <point x="364" y="479" type="curve" smooth="yes"/>
      <point x="364" y="581"/>
      <point x="305" y="647"/>
    </contour>
    <contour>
      <point x="624" y="710" type="line"/>
      <point x="624" y="0" type="line"/>
      <point x="646" y="0" type="line"/>
      <point x="646" y="710" type="line"/>
    </contour>
    <contour>
      <point x="775" y="700" type="line"/>
      <point x="775" y="722" type="line"/>
      <point x="-12" y="722" type="line"/>
      <point x="-12" y="700" type="line"/>
    </contour>
    <contour>
      <point x="335" y="13" type="line"/>
      <point x="76" y="414" type="line"/>
      <point x="58" y="405" type="line"/>
      <point x="307" y="-4" type="line"/>
    </contour>
  </outline>
</glyph>
<glyph name="hadeva" format="1">
  <advance width="550"/>
  <unicode hex="0939"/>
  <outline>
    <contour>
      <point x="466" y="192" type="curve" smooth="yes"/>
      <point x="466" y="149"/>
      <point x="449" y="117"/>
      <point x="419" y="87" type="curve"/>
      <point x="435" y="72" type="line"/>
      <point x="470" y="108"/>
      <point x="489" y="145"/>
      <point x="489" y="195" type="curve" smooth="yes"/>
      <point x="489" y="295"/>
      <point x="405" y="348"/>
      <point x="298" y="348" type="curve" smooth="yes"/>
      <point x="169" y="348"/>
      <point x="78" y="266"/>
      <point x="78" y="139" type="curve" smooth="yes"/>
      <point x="78" y="-3"/>
      <point x="189" y="-89"/>
      <point x="338" y="-89" type="curve"/>
      <point x="341" y="-70" type="line"/>
      <point x="203" y="-70"/>
      <point x="99" y="8"/>
      <point x="99" y="139" type="curve" smooth="yes"/>
      <point x="99" y="253"/>
      <point x="182" y="327"/>
      <point x="298" y="327" type="curve" smooth="yes"/>
      <point x="392" y="327"/>
      <point x="466" y="280"/>
    </contour>
    <contour>
      <point x="562" y="700" type="line"/>
      <point x="562" y="722" type="line"/>
      <point x="-12" y="722" type="line"/>
      <point x="-12" y="700" type="line"/>
    </contour>
    <contour>
      <point x="197" y="318" type="line"/>
      <point x="146" y="351"/>
      <point x="97" y="378"/>
      <point x="97" y="437" type="curve" smooth="yes"/>
      <point x="97" y="495"/>
      <point x="151" y="521"/>
      <point x="216" y="521" type="curve" smooth="yes"/>
      <point x="396" y="521" type="line"/>
      <point x="396" y="541" type="line"/>
      <point x="213" y="541" type="line" smooth="yes"/>
      <point x="136" y="541"/>
      <point x="74" y="508"/>
      <point x="74" y="438" type="curve" smooth="yes"/>
      <point x="74" y="370"/>
      <point x="125" y="335"/>
      <point x="185" y="300" type="curve"/>
    </contour>
    <contour>
      <point x="384" y="711" type="line"/>
      <point x="384" y="521" type="line"/>
      <point x="406" y="521" type="line"/>
      <point x="406" y="711" type="line"/>
    </contour>
  </outline>
</glyph>
<glyph name="nuktadeva" format="1">
  <advance width="0"/>
  <unicode hex="093C"/>
  <outline>
    <contour>
      <point x="-510" y="-88" type="curve" smooth="yes"/>
      <point x="-510" y="-102"/>
      <point x="-499" y="-113"/>
      <point x="-485" y="-113" type="curve" smooth="yes"/>
      <point x="-471" y="-113"/>
      <point x="-459" y="-101"/>
      <point x="-459" y="-88" type="curve" smooth="yes"/>
      <point x="-459" y="-73"/>
      <point x="-470" y="-62"/>
      <point x="-485" y="-62" type="curve" smooth="yes"/>
      <point x="-498" y="-62"/>
      <point x="-510" y="-74"/>
    </contour>
  </outline>
</glyph>
<glyph name="avagrahadeva" format="1">
  <advance width="535"/>
  <unicode hex="093D"/>
  <outline>
    <contour>
      <point x="49" y="48" type="line"/>
      <point x="114" y="9"/>
      <point x="167" y="-10"/>
      <point x="243" y="-10" type="curve" smooth="yes"/>
      <point x="372" y="-10"/>
      <point x="470" y="48"/>
      <point x="470" y="168" type="curve" smooth="yes"/>
      <point x="470" y="282"/>
      <point x="380" y="330"/>
      <point x="274" y="381" type="curve" smooth="yes"/>
      <point x="180" y="426"/>
      <point x="96" y="462"/>
      <point x="96" y="563" type="curve" smooth="yes"/>
      <point x="96" y="656"/>
      <point x="163" y="711"/>
      <point x="260" y="711" type="curve" smooth="yes"/>
      <point x="425" y="711" type="line"/>
      <point x="425" y="732" type="line"/>
      <point x="261" y="732" type="line" smooth="yes"/>
      <point x="151" y="732"/>
      <point x="74" y="670"/>
      <point x="74" y="563" type="curve" smooth="yes"/>
      <point x="74" y="460"/>
      <point x="155" y="416"/>
      <point x="251" y="369" type="curve" smooth="yes"/>
      <point x="355" y="320"/>
      <point x="448" y="280"/>
      <point x="448" y="169" type="curve" smooth="yes"/>
      <point x="448" y="63"/>
      <point x="361" y="11"/>
      <point x="246" y="11" type="curve" smooth="yes"/>
      <point x="173" y="11"/>
      <point x="122" y="30"/>
      <point x="61" y="69" type="curve"/>
    </contour>
  </outline>
</glyph>
<glyph name="uni093E" format="1">
  <advance width="269"/>
  <unicode hex="093E"/>
  <outline>
    <contour>
      <point x="281" y="700" type="line"/>
      <point x="281" y="722" type="line"/>
      <point x="-12" y="722" type="line"/>
      <point x="-12" y="700" type="line"/>
    </contour>
    <contour>
      <point x="124" y="710" type="line"/>
      <point x="124" y="0" type="line"/>
      <point x="146" y="0" type="line"/>
      <point x="146" y="710" type="line"/>
    </contour>
  </outline>
</glyph>
<glyph name="uni0940" format="1">
  <advance width="269"/>
  <unicode hex="0940"/>
  <outline>
    <contour>
      <point x="-130" y="722" type="line"/>
      <point x="-171" y="753"/>
      <point x="-209" y="803"/>
      <point x="-209" y="865" type="curve" smooth="yes"/>
      <point x="-209" y="933"/>
      <point x="-164" y="979"/>
      <point x="-96" y="979" type="curve" smooth="yes"/>
      <point x="46" y="979"/>
      <point x="102" y="854"/>
      <point x="131" y="704" type="curve"/>
      <point x="147" y="714" type="line"/>
      <point x="116" y="871"/>
      <point x="54" y="999"/>
      <point x="-94" y="999" type="curve" smooth="yes"/>
      <point x="-176" y="999"/>
      <point x="-230" y="945"/>
      <point x="-230" y="863" type="curve" smooth="yes"/>
      <point x="-230" y="794"/>
      <point x="-188" y="740"/>
      <point x="-142" y="705" type="curve"/>
    </contour>
    <contour>
      <point x="124" y="710" type="line"/>
      <point x="124" y="0" type="line"/>
      <point x="146" y="0" type="line"/>
      <point x="146" y="710" type="line"/>
    </contour>
    <contour>
      <point x="281" y="700" type="line"/>
      <point x="281" y="722" type="line"/>
      <point x="-11" y="722" type="line"/>
      <point x="-11" y="700" type="line"/>
    </contour>
  </outline>
</glyph>
<glyph name="uvowelsigndeva" format="1">
  <advance width="0"/>
  <unicode hex="0941"/>
  <outline>
    <contour>
      <point x="-479" y="-79" type="curve"/>
      <point x="-496" y="-93" type="line"/>
      <point x="-400" y="-218"/>
      <point x="-308" y="-312"/>
      <point x="-152" y="-312" type="curve" smooth="yes"/>
      <point x="-52" y="-312"/>
      <point x="19" y="-255"/>
      <point x="19" y="-159" type="curve" smooth="yes"/>
      <point x="19" y="-59"/>
      <point x="-46" y="8"/>
      <point x="-145" y="8" type="curve" smooth="yes"/>
      <point x="-180" y="8"/>
      <point x="-206" y="3"/>
      <point x="-239" y="-10" type="curve"/>
      <point x="-231" y="-30" type="line"/>
      <point x="-202" y="-16"/>
      <point x="-178" y="-12"/>
      <point x="-146" y="-12" type="curve" smooth="yes"/>
      <point x="-59" y="-12"/>
      <point x="-3" y="-71"/>
      <point x="-3" y="-159" type="curve" smooth="yes"/>
      <point x="-3" y="-242"/>
      <point x="-66" y="-291"/>
      <point x="-153" y="-291" type="curve" smooth="yes"/>
      <point x="-302" y="-291"/>
      <point x="-387" y="-198"/>
    </contour>
  </outline>
</glyph>
<glyph name="uuvowelsigndeva" format="1">
  <advance width="0"/>
  <unicode hex="0942"/>
  <outline>
    <contour>
      <point x="149" y="-280" type="curve"/>
      <point x="169" y="-271" type="line"/>
      <point x="93" y="-114"/>
      <point x="-5" y="8"/>
      <point x="-174" y="8" type="curve" smooth="yes"/>
      <point x="-272" y="8"/>
      <point x="-345" y="-51"/>
      <point x="-345" y="-145" type="curve" smooth="yes"/>
      <point x="-345" y="-243"/>
      <point x="-279" y="-312"/>
      <point x="-181" y="-312" type="curve" smooth="yes"/>
      <point x="-146" y="-312"/>
      <point x="-119" y="-307"/>
      <point x="-87" y="-294" type="curve"/>
      <point x="-95" y="-274" type="line"/>
      <point x="-123" y="-288"/>
      <point x="-149" y="-292"/>
      <point x="-180" y="-292" type="curve" smooth="yes"/>
      <point x="-265" y="-292"/>
      <point x="-323" y="-231"/>
      <point x="-323" y="-145" type="curve" smooth="yes"/>
      <point x="-323" y="-63"/>
      <point x="-259" y="-13"/>
      <point x="-173" y="-13" type="curve" smooth="yes"/>
      <point x="-13" y="-13"/>
      <point x="79" y="-131"/>
    </contour>
  </outline>
</glyph>
<glyph name="rvocalicvowelsigndeva" format="1">
  <advance width="0"/>
  <unicode hex="0943"/>
  <outline>
    <contour>
      <point x="23" y="-208" type="line"/>
      <point x="-44" y="-253"/>
      <point x="-102" y="-289"/>
      <point x="-183" y="-289" type="curve" smooth="yes"/>
      <point x="-269" y="-289"/>
      <point x="-330" y="-233"/>
      <point x="-330" y="-148" type="curve" smooth="yes"/>
      <point x="-330" y="-66"/>
      <point x="-269" y="-12"/>
      <point x="-185" y="-12" type="curve" smooth="yes"/>
      <point x="-107" y="-12" type="line"/>
      <point x="-107" y="8" type="line"/>
      <point x="-186" y="8" type="line" smooth="yes"/>
      <point x="-282" y="8"/>
      <point x="-352" y="-54"/>
      <point x="-352" y="-148" type="curve" smooth="yes"/>
      <point x="-352" y="-245"/>
      <point x="-282" y="-310"/>
      <point x="-184" y="-310" type="curve" smooth="yes"/>
      <point x="-98" y="-310"/>
      <point x="-36" y="-275"/>
      <point x="34" y="-226" type="curve"/>
    </contour>
  </outline>
</glyph>
<glyph name="rrvocalicvowelsigndeva" format="1">
  <advance width="0"/>
  <unicode hex="0944"/>
  <outline>
    <contour>
      <point x="-106" y="31" type="curve"/>
      <point x="-105" y="51" type="line"/>
      <point x="-209" y="51"/>
      <point x="-287" y="8"/>
      <point x="-287" y="-87" type="curve" smooth="yes"/>
      <point x="-287" y="-172"/>
      <point x="-232" y="-224"/>
      <point x="-146" y="-224" type="curve" smooth="yes"/>
      <point x="-100" y="-224"/>
      <point x="-70" y="-210"/>
      <point x="-33" y="-184" type="curve"/>
      <point x="-45" y="-167" type="line"/>
      <point x="-78" y="-191"/>
      <point x="-105" y="-204"/>
      <point x="-146" y="-204" type="curve" smooth="yes"/>
      <point x="-219" y="-204"/>
      <point x="-266" y="-160"/>
      <point x="-265" y="-88" type="curve" smooth="yes"/>
      <point x="-264" y="-5"/>
      <point x="-196" y="31"/>
    </contour>
    <contour>
      <point x="-205" y="-196" type="line"/>
      <point x="-251" y="-221"/>
      <point x="-276" y="-254"/>
      <point x="-276" y="-306" type="curve" smooth="yes"/>
      <point x="-276" y="-387"/>
      <point x="-214" y="-429"/>
      <point x="-128" y="-429" type="curve" smooth="yes"/>
      <point x="-75" y="-429"/>
      <point x="-40" y="-413"/>
      <point x="2" y="-382" type="curve"/>
      <point x="-10" y="-365" type="line"/>
      <point x="-47" y="-395"/>
      <point x="-80" y="-409"/>
      <point x="-128" y="-409" type="curve" smooth="yes"/>
      <point x="-202" y="-409"/>
      <point x="-255" y="-375"/>
      <point x="-254" y="-307" type="curve" smooth="yes"/>
      <point x="-254" y="-263"/>
      <point x="-235" y="-234"/>
      <point x="-196" y="-214" type="curve"/>
    </contour>
  </outline>
</glyph>
<glyph name="ecandravowelsigndeva" format="1">
  <advance width="0"/>
  <unicode hex="0945"/>
  <outline>
    <contour>
      <point x="4" y="1030" type="line"/>
      <point x="4" y="936"/>
      <point x="-57" y="880"/>
      <point x="-152" y="880" type="curve" smooth="yes"/>
      <point x="-246" y="880"/>
      <point x="-305" y="937"/>
      <point x="-305" y="1030" type="curve"/>
      <point x="-326" y="1030" type="line"/>
      <point x="-326" y="924"/>
      <point x="-260" y="857"/>
      <point x="-154" y="857" type="curve" smooth="yes"/>
      <point x="-45" y="857"/>
      <point x="25" y="922"/>
      <point x="25" y="1030" type="curve"/>
    </contour>
  </outline>
</glyph>
<glyph name="eshortvowelsigndeva" format="1">
  <advance width="0"/>
  <unicode hex="0946"/>
  <outline>
    <contour>
      <point x="-143" y="717" type="curve"/>
      <point x="-121" y="717" type="line"/>
      <point x="-121" y="844"/>
      <point x="-216" y="889"/>
      <point x="-352" y="905" type="curve" smooth="yes"/>
      <point x="-474" y="920"/>
      <point x="-568" y="943"/>
      <point x="-568" y="1054" type="curve"/>
      <point x="-589" y="1054" type="line"/>
      <point x="-589" y="931"/>
      <point x="-487" y="903"/>
      <point x="-352" y="885" type="curve" smooth="yes"/>
      <point x="-230" y="869"/>
      <point x="-143" y="831"/>
    </contour>
  </outline>
</glyph>
<glyph name="evowelsigndeva" format="1">
  <advance width="0"/>
  <unicode hex="0947"/>
  <outline>
    <contour>
      <point x="-553" y="994" type="line"/>
      <point x="-513" y="1011"/>
      <point x="-473" y="1028"/>
      <point x="-429" y="1028" type="curve" smooth="yes"/>
      <point x="-258" y="1028"/>
      <point x="-214" y="868"/>
      <point x="-143" y="705" type="curve"/>
      <point x="-123" y="710" type="line"/>
      <point x="-197" y="882"/>
      <point x="-246" y="1051"/>
      <point x="-426" y="1051" type="curve" smooth="yes"/>
      <point x="-474" y="1051"/>
      <point x="-519" y="1035"/>
      <point x="-563" y="1016" type="curve"/>
    </contour>
  </outline>
</glyph>
<glyph name="ocandravowelsigndeva" format="1">
  <advance width="269"/>
  <unicode hex="0949"/>
  <outline>
    <contour>
      <point x="153" y="1030" type="line"/>
      <point x="153" y="936"/>
      <point x="92" y="878"/>
      <point x="-3" y="878" type="curve" smooth="yes"/>
      <point x="-97" y="878"/>
      <point x="-156" y="937"/>
      <point x="-156" y="1030" type="curve"/>
      <point x="-177" y="1030" type="line"/>
      <point x="-177" y="924"/>
      <point x="-111" y="855"/>
      <point x="-5" y="855" type="curve" smooth="yes"/>
      <point x="104" y="855"/>
      <point x="174" y="922"/>
      <point x="174" y="1030" type="curve"/>
    </contour>
    <contour>
      <point x="281" y="700" type="line"/>
      <point x="281" y="722" type="line"/>
      <point x="-11" y="722" type="line"/>
      <point x="-11" y="700" type="line"/>
    </contour>
    <contour>
      <point x="124" y="710" type="line"/>
      <point x="124" y="0" type="line"/>
      <point x="146" y="0" type="line"/>
      <point x="146" y="710" type="line"/>
    </contour>
  </outline>
</glyph>
<glyph name="uni094A" format="1">
  <advance width="269"/>
  <unicode hex="094A"/>
  <outline>
    <contour>
      <point x="124" y="704" type="curve"/>
      <point x="146" y="704" type="line"/>
      <point x="146" y="831"/>
      <point x="76" y="874"/>
      <point x="-60" y="891" type="curve" smooth="yes"/>
      <point x="-179" y="906"/>
      <point x="-284" y="930"/>
      <point x="-284" y="1041" type="curve"/>
      <point x="-305" y="1041" type="line"/>
      <point x="-305" y="918"/>
      <point x="-201" y="889"/>
      <point x="-66" y="871" type="curve" smooth="yes"/>
      <point x="56" y="855"/>
      <point x="124" y="818"/>
    </contour>
    <contour>
      <point x="281" y="700" type="line"/>
      <point x="281" y="722" type="line"/>
      <point x="-11" y="722" type="line"/>
      <point x="-11" y="700" type="line"/>
    </contour>
    <contour>
      <point x="124" y="710" type="line"/>
      <point x="124" y="0" type="line"/>
      <point x="146" y="0" type="line"/>
      <point x="146" y="710" type="line"/>
    </contour>
  </outline>
</glyph>
<glyph name="uni094C" format="1">
  <advance width="269"/>
  <unicode hex="094C"/>
  <outline>
    <contour>
      <point x="-204" y="872" type="line"/>
      <point x="-179" y="890"/>
      <point x="-149" y="899"/>
      <point x="-118" y="899" type="curve" smooth="yes"/>
      <point x="3" y="899"/>
      <point x="62" y="810"/>
      <point x="127" y="705" type="curve"/>
      <point x="144" y="710" type="line"/>
      <point x="77" y="824"/>
      <point x="15" y="922"/>
      <point x="-115" y="922" type="curve" smooth="yes"/>
      <point x="-150" y="922"/>
      <point x="-185" y="913"/>
      <point x="-214" y="893" type="curve"/>
    </contour>
    <contour>
      <point x="-147" y="1009" type="line"/>
      <point x="-126" y="1023"/>
      <point x="-102" y="1033"/>
      <point x="-76" y="1033" type="curve" smooth="yes"/>
      <point x="80" y="1033"/>
      <point x="88" y="867"/>
      <point x="128" y="705" type="curve"/>
      <point x="147" y="710" type="line"/>
      <point x="104" y="881"/>
      <point x="92" y="1056"/>
      <point x="-73" y="1056" type="curve" smooth="yes"/>
      <point x="-103" y="1056"/>
      <point x="-132" y="1047"/>
      <point x="-157" y="1030" type="curve"/>
    </contour>
    <contour>
      <point x="281" y="700" type="line"/>
      <point x="281" y="722" type="line"/>
      <point x="-11" y="722" type="line"/>
      <point x="-11" y="700" type="line"/>
    </contour>
    <contour>
      <point x="124" y="710" type="line"/>
      <point x="124" y="0" type="line"/>
      <point x="146" y="0" type="line"/>
      <point x="146" y="710" type="line"/>
    </contour>
  </outline>
</glyph>
<glyph name="viramadeva" format="1">
  <advance width="0"/>
  <unicode hex="094D"/>
  <outline>
    <contour>
      <point x="-11" y="-222" type="line"/>
      <point x="-229" y="-55" type="line"/>
      <point x="-214" y="-37" type="line"/>
      <point x="1" y="-207" type="line"/>
    </contour>
  </outline>
</glyph>
<glyph name="omdeva" format="1">
  <advance width="1067"/>
  <unicode hex="0950"/>
  <outline>
    <component base="nuktadeva" xOffset="1121" yOffset="966"/>
    <contour>
      <point x="793" y="881" type="line"/>
      <point x="793" y="787"/>
      <point x="732" y="731"/>
      <point x="637" y="731" type="curve" smooth="yes"/>
      <point x="543" y="731"/>
      <point x="484" y="788"/>
      <point x="484" y="881" type="curve"/>
      <point x="463" y="881" type="line"/>
      <point x="463" y="775"/>
      <point x="529" y="708"/>
      <point x="635" y="708" type="curve" smooth="yes"/>
      <point x="744" y="708"/>
      <point x="814" y="773"/>
      <point x="814" y="881" type="curve"/>
    </contour>
    <contour>
      <point x="180" y="413" type="curve"/>
      <point x="180" y="395" type="line"/>
      <point x="319" y="395"/>
      <point x="436" y="450"/>
      <point x="436" y="575" type="curve" smooth="yes"/>
      <point x="436" y="673"/>
      <point x="361" y="733"/>
      <point x="259" y="733" type="curve" smooth="yes"/>
      <point x="197" y="733"/>
      <point x="150" y="714"/>
      <point x="100" y="679" type="curve"/>
      <point x="114" y="663" type="line"/>
      <point x="159" y="694"/>
      <point x="201" y="713"/>
      <point x="256" y="713" type="curve" smooth="yes"/>
      <point x="347" y="713"/>
      <point x="415" y="660"/>
      <point x="414" y="573" type="curve" smooth="yes"/>
      <point x="413" y="460"/>
      <point x="306" y="413"/>
    </contour>
    <contour>
      <point x="649" y="125" type="line"/>
      <point x="812" y="60"/>
      <point x="962" y="176"/>
      <point x="962" y="363" type="curve" smooth="yes"/>
      <point x="962" y="492"/>
      <point x="898" y="594"/>
      <point x="778" y="594" type="curve" smooth="yes"/>
      <point x="673" y="594"/>
      <point x="629" y="502"/>
      <point x="587" y="401" type="curve" smooth="yes"/>
      <point x="564" y="347"/>
      <point x="544" y="295"/>
      <point x="488" y="295" type="curve" smooth="yes"/>
      <point x="461" y="295"/>
      <point x="443" y="303"/>
      <point x="421" y="319" type="curve"/>
      <point x="413" y="303" type="line"/>
      <point x="438" y="287"/>
      <point x="459" y="275"/>
      <point x="488" y="275" type="curve" smooth="yes"/>
      <point x="553" y="275"/>
      <point x="582" y="330"/>
      <point x="608" y="392" type="curve" smooth="yes"/>
      <point x="646" y="486"/>
      <point x="682" y="574"/>
      <point x="779" y="574" type="curve" smooth="yes"/>
      <point x="886" y="574"/>
      <point x="940" y="479"/>
      <point x="940" y="362" type="curve" smooth="yes"/>
      <point x="940" y="193"/>
      <point x="804" y="87"/>
      <point x="656" y="145" type="curve"/>
    </contour>
    <contour>
      <point x="180" y="392" type="line"/>
      <point x="318" y="392"/>
      <point x="433" y="338"/>
      <point x="435" y="214" type="curve" smooth="yes"/>
      <point x="437" y="110"/>
      <point x="353" y="48"/>
      <point x="243" y="52" type="curve" smooth="yes"/>
      <point x="177" y="52"/>
      <point x="118" y="88"/>
      <point x="73" y="136" type="curve"/>
      <point x="58" y="123" type="line"/>
      <point x="105" y="69"/>
      <point x="170" y="31"/>
      <point x="241" y="31" type="curve" smooth="yes"/>
      <point x="365" y="26"/>
      <point x="458" y="99"/>
      <point x="456" y="217" type="curve" smooth="yes"/>
      <point x="454" y="351"/>
      <point x="329" y="409"/>
      <point x="180" y="409" type="curve"/>
    </contour>
  </outline>
</glyph>
<glyph name="udattadeva" format="1">
  <advance width="0"/>
  <unicode hex="0951"/>
  <outline>
    <contour>
      <point x="-122" y="1332" type="line"/>
      <point x="-144" y="1332" type="line"/>
      <point x="-144" y="886" type="line"/>
      <point x="-122" y="886" type="line"/>
    </contour>
  </outline>
</glyph>
<glyph name="anudattadeva" format="1">
  <advance width="0"/>
  <unicode hex="0952"/>
  <outline>
    <contour>
      <point x="-125" y="-284" type="line"/>
      <point x="-125" y="-262" type="line"/>
      <point x="-571" y="-262" type="line"/>
      <point x="-571" y="-284" type="line"/>
    </contour>
  </outline>
</glyph>
<glyph name="gravedeva" format="1">
  <advance width="2014"/>
  <unicode hex="0953"/>
  <outline>
    <contour>
      <point x="-248" y="829" type="line"/>
      <point x="-233" y="841" type="line"/>
      <point x="-381" y="1034" type="line"/>
      <point x="-400" y="1019" type="line"/>
    </contour>
  </outline>
</glyph>
<glyph name="acutedeva" format="1">
  <advance width="2014"/>
  <unicode hex="0954"/>
  <outline>
    <contour>
      <point x="-384" y="836" type="line"/>
      <point x="-399" y="848" type="line"/>
      <point x="-243" y="1038" type="line"/>
      <point x="-224" y="1023" type="line"/>
    </contour>
  </outline>
</glyph>
<glyph name="uni0956" format="1">
  <advance width="0"/>
  <unicode hex="0956"/>
  <outline>
    <contour>
      <point x="-145" y="-159" type="curve" smooth="yes"/>
      <point x="-217" y="-159"/>
      <point x="-270" y="-121"/>
      <point x="-311" y="-66" type="curve"/>
      <point x="-328" y="-79" type="line"/>
      <point x="-284" y="-141"/>
      <point x="-226" y="-181"/>
      <point x="-147" y="-181" type="curve" smooth="yes"/>
      <point x="-65" y="-181"/>
      <point x="-6" y="-147"/>
      <point x="39" y="-83" type="curve"/>
      <point x="20" y="-70" type="line"/>
      <point x="-22" y="-127"/>
      <point x="-73" y="-159"/>
    </contour>
  </outline>
</glyph>
<glyph name="uni0957" format="1">
  <advance width="0"/>
  <unicode hex="0957"/>
  <outline>
    <contour>
      <point x="20" y="-201" type="line"/>
      <point x="-22" y="-258"/>
      <point x="-73" y="-290"/>
      <point x="-145" y="-290" type="curve" smooth="yes"/>
      <point x="-217" y="-290"/>
      <point x="-270" y="-252"/>
      <point x="-311" y="-197" type="curve"/>
      <point x="-328" y="-210" type="line"/>
      <point x="-284" y="-272"/>
      <point x="-226" y="-312"/>
      <point x="-147" y="-312" type="curve" smooth="yes"/>
      <point x="-65" y="-312"/>
      <point x="-6" y="-278"/>
      <point x="39" y="-214" type="curve"/>
    </contour>
    <contour>
      <point x="20" y="-70" type="line"/>
      <point x="-22" y="-127"/>
      <point x="-73" y="-159"/>
      <point x="-145" y="-159" type="curve" smooth="yes"/>
      <point x="-217" y="-159"/>
      <point x="-270" y="-121"/>
      <point x="-311" y="-66" type="curve"/>
      <point x="-328" y="-79" type="line"/>
      <point x="-284" y="-141"/>
      <point x="-226" y="-181"/>
      <point x="-147" y="-181" type="curve" smooth="yes"/>
      <point x="-65" y="-181"/>
      <point x="-6" y="-147"/>
      <point x="39" y="-83" type="curve"/>
    </contour>
  </outline>
</glyph>
<glyph name="khhadeva" format="1">
  <advance width="887"/>
  <unicode hex="0959"/>
  <outline>
    <component base="nuktadeva" xOffset="568" yOffset="87"/>
    <contour>
      <point x="738" y="710" type="line"/>
      <point x="738" y="0" type="line"/>
      <point x="760" y="0" type="line"/>
      <point x="760" y="710" type="line"/>
    </contour>
    <contour>
      <point x="739" y="462" type="curve"/>
      <point x="755" y="478" type="line"/>
      <point x="721" y="526"/>
      <point x="676" y="548"/>
      <point x="617" y="548" type="curve" smooth="yes"/>
      <point x="533" y="548"/>
      <point x="479" y="485"/>
      <point x="479" y="398" type="curve" smooth="yes"/>
      <point x="479" y="315"/>
      <point x="535" y="258"/>
      <point x="618" y="258" type="curve" smooth="yes"/>
      <point x="678" y="258"/>
      <point x="724" y="281"/>
      <point x="756" y="331" type="curve"/>
      <point x="740" y="345" type="line"/>
      <point x="713" y="300"/>
      <point x="671" y="280"/>
      <point x="618" y="280" type="curve" smooth="yes"/>
      <point x="549" y="280"/>
      <point x="503" y="330"/>
      <point x="503" y="400" type="curve" smooth="yes"/>
      <point x="503" y="472"/>
      <point x="547" y="525"/>
      <point x="617" y="525" type="curve" smooth="yes"/>
      <point x="670" y="525"/>
      <point x="711" y="506"/>
    </contour>
    <contour>
      <point x="899" y="700" type="line"/>
      <point x="899" y="722" type="line"/>
      <point x="-11" y="722" type="line"/>
      <point x="-11" y="700" type="line"/>
    </contour>
    <contour>
      <point x="45" y="491" type="line"/>
      <point x="65" y="413"/>
      <point x="113" y="359"/>
      <point x="191" y="359" type="curve" smooth="yes"/>
      <point x="271" y="359"/>
      <point x="316" y="425"/>
      <point x="316" y="511" type="curve" smooth="yes"/>
      <point x="316" y="598"/>
      <point x="282" y="663"/>
      <point x="215" y="719" type="curve"/>
      <point x="192" y="705" type="line"/>
      <point x="257" y="653"/>
      <point x="291" y="592"/>
      <point x="291" y="509" type="curve" smooth="yes"/>
      <point x="291" y="438"/>
      <point x="257" y="381"/>
      <point x="191" y="381" type="curve" smooth="yes"/>
      <point x="124" y="381"/>
      <point x="84" y="428"/>
      <point x="67" y="495" type="curve"/>
    </contour>
    <contour>
      <point x="45" y="491" type="line"/>
      <point x="45" y="230"/>
      <point x="208" y="42"/>
      <point x="463" y="42" type="curve" smooth="yes"/>
      <point x="578" y="42"/>
      <point x="672" y="63"/>
      <point x="757" y="140" type="curve"/>
      <point x="745" y="158" type="line"/>
      <point x="660" y="88"/>
      <point x="573" y="64"/>
      <point x="463" y="64" type="curve" smooth="yes"/>
      <point x="220" y="64"/>
      <point x="67" y="245"/>
      <point x="67" y="495" type="curve"/>
    </contour>
  </outline>
</glyph>
<glyph name="zadeva" format="1">
  <advance width="782"/>
  <unicode hex="095B"/>
  <outline>
    <component base="nuktadeva" xOffset="556" yOffset="39"/>
    <contour>
      <point x="209" y="464" type="line"/>
      <point x="335" y="464"/>
      <point x="432" y="400"/>
      <point x="432" y="283" type="curve" smooth="yes"/>
      <point x="432" y="181"/>
      <point x="357" y="118"/>
      <point x="252" y="118" type="curve" smooth="yes"/>
      <point x="154" y="118"/>
      <point x="92" y="182"/>
      <point x="57" y="276" type="curve"/>
      <point x="36" y="266" type="line"/>
      <point x="76" y="165"/>
      <point x="143" y="97"/>
      <point x="250" y="97" type="curve" smooth="yes"/>
      <point x="368" y="97"/>
      <point x="453" y="170"/>
      <point x="453" y="286" type="curve" smooth="yes"/>
      <point x="453" y="413"/>
      <point x="346" y="481"/>
      <point x="209" y="481" type="curve"/>
    </contour>
    <contour>
      <point x="642" y="710" type="line"/>
      <point x="642" y="0" type="line"/>
      <point x="664" y="0" type="line"/>
      <point x="664" y="710" type="line"/>
    </contour>
    <contour>
      <point x="649" y="464" type="line"/>
      <point x="649" y="486" type="line"/>
      <point x="209" y="486" type="line"/>
      <point x="209" y="464" type="line"/>
    </contour>
    <contour>
      <point x="793" y="700" type="line"/>
      <point x="793" y="722" type="line"/>
      <point x="-12" y="722" type="line"/>
      <point x="-12" y="700" type="line"/>
    </contour>
  </outline>
</glyph>
<glyph name="rhadeva" format="1">
  <advance width="632"/>
  <unicode hex="095D"/>
  <outline>
    <component base="nuktadeva" xOffset="839" yOffset="-39"/>
    <contour>
      <point x="464" y="522" type="line"/>
      <point x="464" y="544" type="line"/>
      <point x="363" y="544" type="line" smooth="yes"/>
      <point x="190" y="544"/>
      <point x="65" y="446"/>
      <point x="65" y="280" type="curve" smooth="yes"/>
      <point x="65" y="112"/>
      <point x="175" y="-1"/>
      <point x="342" y="-1" type="curve" smooth="yes"/>
      <point x="474" y="-1"/>
      <point x="582" y="48"/>
      <point x="582" y="166" type="curve" smooth="yes"/>
      <point x="582" y="252"/>
      <point x="524" y="309"/>
      <point x="437" y="309" type="curve" smooth="yes"/>
      <point x="351" y="309"/>
      <point x="294" y="252"/>
      <point x="294" y="166" type="curve" smooth="yes"/>
      <point x="294" y="88"/>
      <point x="343" y="40"/>
      <point x="415" y="6" type="curve"/>
      <point x="429" y="23" type="line"/>
      <point x="362" y="52"/>
      <point x="316" y="95"/>
      <point x="316" y="167" type="curve" smooth="yes"/>
      <point x="316" y="239"/>
      <point x="364" y="287"/>
      <point x="436" y="287" type="curve" smooth="yes"/>
      <point x="510" y="287"/>
      <point x="560" y="238"/>
      <point x="560" y="164" type="curve" smooth="yes"/>
      <point x="560" y="60"/>
      <point x="461" y="21"/>
      <point x="344" y="21" type="curve" smooth="yes"/>
      <point x="189" y="21"/>
      <point x="87" y="127"/>
      <point x="87" y="283" type="curve" smooth="yes"/>
      <point x="87" y="434"/>
      <point x="204" y="522"/>
      <point x="363" y="522" type="curve" smooth="yes"/>
    </contour>
    <contour>
      <point x="645" y="700" type="line"/>
      <point x="645" y="722" type="line"/>
      <point x="-12" y="722" type="line"/>
      <point x="-12" y="700" type="line"/>
    </contour>
    <contour>
      <point x="453" y="711" type="line"/>
      <point x="453" y="522" type="line"/>
      <point x="475" y="522" type="line"/>
      <point x="475" y="711" type="line"/>
    </contour>
  </outline>
</glyph>
<glyph name="fadeva" format="1">
  <advance width="883"/>
  <unicode hex="095E"/>
  <outline>
    <component base="nuktadeva" xOffset="630" yOffset="128"/>
    <contour>
      <point x="430" y="710" type="line"/>
      <point x="430" y="0" type="line"/>
      <point x="452" y="0" type="line"/>
      <point x="452" y="710" type="line"/>
    </contour>
    <contour>
      <point x="440" y="359" type="line"/>
      <point x="407" y="284"/>
      <point x="345" y="247"/>
      <point x="263" y="247" type="curve" smooth="yes"/>
      <point x="158" y="247"/>
      <point x="87" y="319"/>
      <point x="87" y="424" type="curve" smooth="yes"/>
      <point x="87" y="710" type="line"/>
      <point x="65" y="710" type="line"/>
      <point x="65" y="427" type="line" smooth="yes"/>
      <point x="65" y="308"/>
      <point x="142" y="224"/>
      <point x="259" y="224" type="curve" smooth="yes"/>
      <point x="349" y="224"/>
      <point x="418" y="264"/>
      <point x="452" y="347" type="curve"/>
    </contour>
    <contour>
      <point x="893" y="700" type="line"/>
      <point x="893" y="722" type="line"/>
      <point x="-12" y="722" type="line"/>
      <point x="-12" y="700" type="line"/>
    </contour>
    <contour>
      <point x="451" y="345" type="line"/>
      <point x="475" y="433"/>
      <point x="543" y="483"/>
      <point x="634" y="483" type="curve" smooth="yes"/>
      <point x="729" y="483"/>
      <point x="804" y="426"/>
      <point x="804" y="335" type="curve" smooth="yes"/>
      <point x="804" y="238"/>
      <point x="743" y="165"/>
      <point x="649" y="165" type="curve" smooth="yes"/>
      <point x="602" y="165"/>
      <point x="563" y="175"/>
      <point x="527" y="205" type="curve"/>
      <point x="514" y="188" type="line"/>
      <point x="554" y="156"/>
      <point x="598" y="146"/>
      <point x="649" y="146" type="curve" smooth="yes"/>
      <point x="754" y="146"/>
      <point x="825" y="226"/>
      <point x="825" y="334" type="curve" smooth="yes"/>
      <point x="825" y="438"/>
      <point x="742" y="504"/>
      <point x="634" y="504" type="curve" smooth="yes"/>
      <point x="533" y="504"/>
      <point x="458" y="444"/>
      <point x="434" y="345" type="curve"/>
    </contour>
  </outline>
</glyph>
<glyph name="rrvocalicdeva" format="1">
  <advance width="943"/>
  <unicode hex="0960"/>
  <outline>
    <contour>
      <point x="932" y="77" type="line"/>
      <point x="891" y="37"/>
      <point x="853" y="10"/>
      <point x="796" y="10" type="curve" smooth="yes"/>
      <point x="725" y="10"/>
      <point x="673" y="51"/>
      <point x="674" y="119" type="curve" smooth="yes"/>
      <point x="676" y="186"/>
      <point x="729" y="220"/>
      <point x="794" y="245" type="curve"/>
      <point x="786" y="264" type="line"/>
      <point x="710" y="237"/>
      <point x="653" y="193"/>
      <point x="653" y="115" type="curve" smooth="yes"/>
      <point x="653" y="37"/>
      <point x="714" y="-10"/>
      <point x="795" y="-10" type="curve" smooth="yes"/>
      <point x="857" y="-10"/>
      <point x="901" y="18"/>
      <point x="946" y="60" type="curve"/>
    </contour>
    <contour>
      <point x="54" y="467" type="line"/>
      <point x="98" y="500"/>
      <point x="133" y="524"/>
      <point x="188" y="524" type="curve" smooth="yes"/>
      <point x="306" y="524"/>
      <point x="347" y="424"/>
      <point x="445" y="362" type="curve"/>
      <point x="454" y="381" type="line"/>
      <point x="354" y="444"/>
      <point x="312" y="545"/>
      <point x="191" y="545" type="curve" smooth="yes"/>
      <point x="129" y="545"/>
      <point x="89" y="521"/>
      <point x="41" y="482" type="curve"/>
    </contour>
    <contour>
      <point x="442" y="389" type="line"/>
      <point x="129" y="188" type="line"/>
      <point x="141" y="168" type="line"/>
      <point x="454" y="373" type="line"/>
    </contour>
    <contour>
      <point x="436" y="711" type="line"/>
      <point x="436" y="0" type="line"/>
      <point x="458" y="0" type="line"/>
      <point x="458" y="711" type="line"/>
    </contour>
    <contour>
      <point x="441" y="387" type="curve"/>
      <point x="436" y="367" type="line"/>
      <point x="462" y="360"/>
      <point x="480" y="356"/>
      <point x="506" y="356" type="curve" smooth="yes"/>
      <point x="635" y="356"/>
      <point x="734" y="396"/>
      <point x="734" y="498" type="curve" smooth="yes"/>
      <point x="734" y="536"/>
      <point x="713" y="561"/>
      <point x="676" y="561" type="curve" smooth="yes"/>
      <point x="642" y="561"/>
      <point x="625" y="539"/>
      <point x="604" y="511" type="curve"/>
      <point x="624" y="500" type="line"/>
      <point x="639" y="520"/>
      <point x="648" y="539"/>
      <point x="673" y="539" type="curve" smooth="yes"/>
      <point x="698" y="539"/>
      <point x="713" y="522"/>
      <point x="713" y="496" type="curve" smooth="yes"/>
      <point x="713" y="408"/>
      <point x="622" y="377"/>
      <point x="507" y="377" type="curve" smooth="yes"/>
      <point x="482" y="377"/>
      <point x="465" y="381"/>
    </contour>
    <contour>
      <point x="955" y="700" type="line"/>
      <point x="955" y="722" type="line"/>
      <point x="-12" y="722" type="line"/>
      <point x="-12" y="700" type="line"/>
    </contour>
    <contour>
      <point x="604" y="511" type="line"/>
      <point x="794" y="245" type="line"/>
      <point x="820" y="255" type="line"/>
      <point x="622" y="522" type="line"/>
    </contour>
  </outline>
</glyph>
<glyph name="llvocalicvowelsigndeva" format="1">
  <advance width="0"/>
  <unicode hex="0963"/>
  <outline>
    <contour>
      <point x="-222" y="-46" type="line"/>
      <point x="-257" y="-9"/>
      <point x="-292" y="11"/>
      <point x="-342" y="11" type="curve" smooth="yes"/>
      <point x="-425" y="11"/>
      <point x="-477" y="-49"/>
      <point x="-477" y="-134" type="curve" smooth="yes"/>
      <point x="-477" y="-194"/>
      <point x="-455" y="-237"/>
      <point x="-408" y="-274" type="curve"/>
      <point x="-394" y="-258" type="line"/>
      <point x="-435" y="-224"/>
      <point x="-456" y="-187"/>
      <point x="-456" y="-134" type="curve" smooth="yes"/>
      <point x="-456" y="-61"/>
      <point x="-413" y="-10"/>
      <point x="-343" y="-11" type="curve" smooth="yes"/>
      <point x="-297" y="-11"/>
      <point x="-266" y="-32"/>
      <point x="-234" y="-64" type="curve"/>
    </contour>
    <contour>
      <point x="-244" y="-166" type="line"/>
      <point x="-244" y="-80"/>
      <point x="-213" y="-10"/>
      <point x="-137" y="-11" type="curve" smooth="yes"/>
      <point x="-79" y="-11"/>
      <point x="-38" y="-47"/>
      <point x="-37" y="-104" type="curve" smooth="yes"/>
      <point x="-37" y="-136"/>
      <point x="-54" y="-156"/>
      <point x="-75" y="-180" type="curve" smooth="yes"/>
      <point x="-101" y="-211"/>
      <point x="-128" y="-233"/>
      <point x="-128" y="-274" type="curve" smooth="yes"/>
      <point x="-127" y="-321"/>
      <point x="-92" y="-347"/>
      <point x="-43" y="-347" type="curve" smooth="yes"/>
      <point x="-11" y="-347"/>
      <point x="11" y="-336"/>
      <point x="36" y="-316" type="curve"/>
      <point x="22" y="-299" type="line"/>
      <point x="3" y="-317"/>
      <point x="-15" y="-326"/>
      <point x="-41" y="-326" type="curve" smooth="yes"/>
      <point x="-78" y="-326"/>
      <point x="-107" y="-308"/>
      <point x="-106" y="-273" type="curve" smooth="yes"/>
      <point x="-106" y="-237"/>
      <point x="-80" y="-220"/>
      <point x="-58" y="-192" type="curve" smooth="yes"/>
      <point x="-35" y="-164"/>
      <point x="-16" y="-141"/>
      <point x="-16" y="-104" type="curve" smooth="yes"/>
      <point x="-15" y="-34"/>
      <point x="-64" y="11"/>
      <point x="-136" y="11" type="curve" smooth="yes"/>
      <point x="-225" y="11"/>
      <point x="-264" y="-68"/>
      <point x="-264" y="-166" type="curve"/>
    </contour>
    <contour>
      <point x="-66" y="-329" type="line"/>
      <point x="-87" y="-342"/>
      <point x="-108" y="-367"/>
      <point x="-108" y="-404" type="curve" smooth="yes"/>
      <point x="-108" y="-461"/>
      <point x="-69" y="-497"/>
      <point x="-11" y="-497" type="curve" smooth="yes"/>
      <point x="25" y="-497"/>
      <point x="50" y="-483"/>
      <point x="77" y="-461" type="curve"/>
      <point x="64" y="-445" type="line"/>
      <point x="39" y="-466"/>
      <point x="22" y="-476"/>
      <point x="-9" y="-476" type="curve" smooth="yes"/>
      <point x="-54" y="-476"/>
      <point x="-86" y="-448"/>
      <point x="-86" y="-404" type="curve" smooth="yes"/>
      <point x="-86" y="-376"/>
      <point x="-73" y="-360"/>
      <point x="-53" y="-343" type="curve"/>
    </contour>
  </outline>
</glyph>
<glyph name="dbldanda-deva" format="1">
  <advance width="703"/>
  <unicode hex="0965"/>
  <outline>
    <contour>
      <point x="474" y="722" type="line"/>
      <point x="474" y="0" type="line"/>
      <point x="496" y="0" type="line"/>
      <point x="496" y="722" type="line"/>
    </contour>
    <contour>
      <point x="206" y="722" type="line"/>
      <point x="206" y="0" type="line"/>
      <point x="228" y="0" type="line"/>
      <point x="228" y="722" type="line"/>
    </contour>
  </outline>
</glyph>
<glyph name="zerodeva" format="1">
  <advance width="578"/>
  <unicode hex="0966"/>
  <outline>
    <contour>
      <point x="96" y="352" type="curve" smooth="yes"/>
      <point x="96" y="489"/>
      <point x="168" y="585"/>
      <point x="298" y="585" type="curve" smooth="yes"/>
      <point x="431" y="587"/>
      <point x="509" y="492"/>
      <point x="507" y="355" type="curve"/>
      <point x="507" y="218"/>
      <point x="434" y="123"/>
      <point x="303" y="123" type="curve" smooth="yes"/>
      <point x="172" y="123"/>
      <point x="96" y="216"/>
    </contour>
    <contour>
      <point x="75" y="350" type="curve"/>
      <point x="72" y="202"/>
      <point x="156" y="101"/>
      <point x="300" y="102" type="curve" smooth="yes"/>
      <point x="445" y="102"/>
      <point x="528" y="206"/>
      <point x="528" y="356" type="curve" smooth="yes"/>
      <point x="528" y="505"/>
      <point x="445" y="606"/>
      <point x="301" y="606" type="curve" smooth="yes"/>
      <point x="155" y="607"/>
      <point x="72" y="501"/>
    </contour>
  </outline>
</glyph>
<glyph name="threedeva" format="1">
  <advance width="559"/>
  <unicode hex="0969"/>
  <outline>
    <contour>
      <point x="194" y="409" type="curve"/>
      <point x="194" y="391" type="line"/>
      <point x="343" y="391"/>
      <point x="464" y="436"/>
      <point x="464" y="568" type="curve" smooth="yes"/>
      <point x="464" y="670"/>
      <point x="386" y="724"/>
      <point x="277" y="724" type="curve" smooth="yes"/>
      <point x="214" y="724"/>
      <point x="169" y="711"/>
      <point x="117" y="675" type="curve"/>
      <point x="127" y="657" type="line"/>
      <point x="174" y="693"/>
      <point x="217" y="704"/>
      <point x="277" y="704" type="curve" smooth="yes"/>
      <point x="373" y="704"/>
      <point x="443" y="658"/>
      <point x="442" y="569" type="curve" smooth="yes"/>
      <point x="441" y="448"/>
      <point x="330" y="409"/>
    </contour>
    <contour>
      <point x="255" y="39" type="curve" smooth="yes"/>
      <point x="390" y="34"/>
      <point x="490" y="99"/>
      <point x="488" y="225" type="curve" smooth="yes"/>
      <point x="486" y="366"/>
      <point x="354" y="405"/>
      <point x="194" y="405" type="curve"/>
      <point x="194" y="388" type="line"/>
      <point x="341" y="388"/>
      <point x="465" y="355"/>
      <point x="467" y="226" type="curve" smooth="yes"/>
      <point x="469" y="113"/>
      <point x="377" y="56"/>
      <point x="254" y="60" type="curve" smooth="yes"/>
      <point x="186" y="60"/>
      <point x="127" y="67"/>
      <point x="127" y="125" type="curve" smooth="yes"/>
      <point x="127" y="143"/>
      <point x="140" y="153"/>
      <point x="159" y="152" type="curve"/>
      <point x="159" y="172" type="line"/>
      <point x="128" y="172"/>
      <point x="107" y="155"/>
      <point x="107" y="125" type="curve" smooth="yes"/>
      <point x="107" y="55"/>
      <point x="175" y="39"/>
    </contour>
    <contour>
      <point x="142" y="161" type="line"/>
      <point x="356" y="-100" type="line"/>
      <point x="375" y="-83" type="line"/>
      <point x="159" y="172" type="line"/>
    </contour>
  </outline>
</glyph>
<glyph name="fivedeva" format="1">
  <advance width="620"/>
  <unicode hex="096B"/>
  <outline>
    <contour>
      <point x="384" y="510" type="curve"/>
      <point x="365" y="504" type="line"/>
      <point x="444" y="381"/>
      <point x="518" y="295"/>
      <point x="518" y="149" type="curve" smooth="yes"/>
      <point x="518" y="62"/>
      <point x="460" y="9"/>
      <point x="371" y="4" type="curve"/>
      <point x="374" y="-17" type="line"/>
      <point x="475" y="-10"/>
      <point x="539" y="51"/>
      <point x="539" y="150" type="curve" smooth="yes"/>
      <point x="539" y="298"/>
      <point x="464" y="385"/>
    </contour>
    <contour>
      <point x="472" y="478" type="curve" smooth="yes"/>
      <point x="472" y="515"/>
      <point x="454" y="541"/>
      <point x="419" y="541" type="curve" smooth="yes"/>
      <point x="393" y="541"/>
      <point x="378" y="527"/>
      <point x="365" y="504" type="curve"/>
      <point x="382" y="494" type="line"/>
      <point x="391" y="509"/>
      <point x="400" y="521"/>
      <point x="417" y="521" type="curve" smooth="yes"/>
      <point x="441" y="522"/>
      <point x="451" y="502"/>
      <point x="451" y="475" type="curve" smooth="yes"/>
      <point x="451" y="366"/>
      <point x="374" y="302"/>
      <point x="261" y="302" type="curve" smooth="yes"/>
      <point x="138" y="302"/>
      <point x="78" y="401"/>
      <point x="78" y="534" type="curve" smooth="yes"/>
      <point x="78" y="619"/>
      <point x="120" y="700"/>
      <point x="161" y="741" type="curve"/>
      <point x="145" y="754" type="line"/>
      <point x="100" y="709"/>
      <point x="57" y="624"/>
      <point x="57" y="533" type="curve" smooth="yes"/>
      <point x="57" y="388"/>
      <point x="125" y="281"/>
      <point x="260" y="281" type="curve" smooth="yes"/>
      <point x="387" y="281"/>
      <point x="472" y="354"/>
    </contour>
  </outline>
</glyph>
